<svg width="7" height="4" viewBox="0 0 7 4" fill="none" xmlns="http://www.w3.org/2000/svg">
<path d="M7 0.45493C7 0.580716 6.95598 0.681345 6.86792 0.756817L3.81132 3.81342C3.72327 3.90147 3.62264 3.9455 3.50943 3.9455C3.39623 3.9455 3.28931 3.90147 3.18868 3.81342L0.132076 0.756817C0.0440252 0.668766 4.03496e-08 0.561848 4.18496e-08 0.436062C4.33496e-08 0.310276 0.0440252 0.209647 0.132076 0.134175C0.220126 0.0587034 0.320755 0.0146782 0.433962 0.00209976C0.54717 -0.010479 0.654088 0.0335462 0.754717 0.134175L3.50943 2.88889L6.26415 0.134175C6.3522 0.046125 6.45283 0.00209983 6.56604 0.00209983C6.67925 0.00209983 6.77987 0.046125 6.86792 0.134175C6.95598 0.222226 7 0.329144 7 0.45493Z" fill="#7B7A7E"/>
</svg>
