<svg width="80" height="52" viewBox="0 0 80 52" fill="none" xmlns="http://www.w3.org/2000/svg">
<path fill-rule="evenodd" clip-rule="evenodd" d="M20.0007 0C17.5087 0 15.5454 0.350756 13.6196 1.14571C9.95713 2.66554 8.14478 5.09714 8.14478 8.53428C8.14478 10.9659 9.0132 12.6961 10.9388 14.216C13.0533 15.8993 15.9606 16.6944 19.8873 16.6944C22.9835 16.6944 25.9285 16.2267 28.6092 15.2449V7.48201H18.4525L19.132 10.1476H23.1343V13.8418C22.2659 14.1223 21.322 14.2393 20.1514 14.2393C18.4525 14.2393 17.0176 13.9121 16.0359 13.3275C14.7143 12.5092 14.0724 11.0128 14.0724 8.69814C14.0724 6.26638 14.5256 4.51277 16.3002 3.46067C17.2064 2.92286 18.528 2.64235 20.0759 2.64235C22.077 2.64235 23.8516 3.03983 25.5507 3.90487L28.3447 1.87059C26.0418 0.63126 23.1723 0 20.0007 0Z" fill="#1A171B"/>
<path fill-rule="evenodd" clip-rule="evenodd" d="M35.5789 16.5072H40.865V9.32925H47.548V6.6637H40.865V2.94606H49.2092L49.8135 0.304047H35.5789V16.5072Z" fill="#1A171B"/>
<path fill-rule="evenodd" clip-rule="evenodd" d="M55.5849 2.96959H63.6648C65.2506 2.96959 66.3456 2.85278 66.3456 2.85278C66.3456 2.85278 65.4394 3.57749 64.722 4.32572L55.056 14.216V16.5074H71.4429L72.8021 13.842H63.9668C62.9096 13.842 61.3615 13.9355 61.3615 13.9355C61.3615 13.9355 62.1544 13.3745 62.7207 12.7897L72.4621 2.61883V0.257324H56.7551L55.5849 2.96959Z" fill="#1A171B"/>
<path fill-rule="evenodd" clip-rule="evenodd" d="M80 33.993C55.5461 28.0207 24.3021 28.1187 0 34.1567C20.406 24.2555 59.2964 24.1612 80 33.993Z" fill="#005C9C"/>
<path fill-rule="evenodd" clip-rule="evenodd" d="M8.30707 45.5619V51.467H10.2218V49.2982H11.275C12.3281 49.2982 12.7384 49.2304 13.176 49.1035C14.2154 48.7984 14.817 48.1546 14.817 47.3751C14.817 46.6973 14.3383 46.1552 13.4494 45.8502C12.916 45.6636 12.4235 45.5621 10.8098 45.5621H8.30707V45.5619ZM10.2218 46.5192H11.439C11.8492 46.5192 12.1774 46.604 12.3963 46.7648C12.6152 46.9173 12.7245 47.1291 12.7245 47.4003C12.7245 47.6798 12.6561 47.8662 12.4919 48.0272C12.2321 48.2728 11.9997 48.3322 11.2201 48.3322H10.2218V46.5192Z" fill="#1A171B"/>
<path fill-rule="evenodd" clip-rule="evenodd" d="M24.2834 49.1455C24.2834 47.629 22.82 46.8666 20.7413 46.8666C18.5258 46.8666 17.1581 47.7306 17.1581 49.2217C17.1581 50.5773 18.4711 51.5344 20.8097 51.5344C23.1211 51.5346 24.2834 50.569 24.2834 49.1455ZM22.1909 49.1455C22.1909 50.3484 21.6712 50.7383 20.7139 50.7383C19.6882 50.7383 19.1959 50.3994 19.1959 49.2555C19.1959 48.222 19.6335 47.6714 20.7139 47.6714C21.8491 47.6714 22.1909 48.222 22.1909 49.1455Z" fill="#1A171B"/>
<path fill-rule="evenodd" clip-rule="evenodd" d="M33.0029 46.9258H27.04V47.8239H28.9409V51.467H30.8146V47.8239H32.6471C32.6471 47.8239 33.0164 46.9258 33.0029 46.9258Z" fill="#1A171B"/>
<path fill-rule="evenodd" clip-rule="evenodd" d="M41.7303 49.9758C41.7303 49.2811 40.9371 48.8406 39.6515 48.6542L38.667 48.51C38.0514 48.4253 37.9011 48.3236 37.9011 48.1034C37.9011 47.8493 38.3113 47.6884 38.8858 47.6884C39.4604 47.6884 40.103 47.7983 40.8004 48.0272L41.6621 47.2393C40.9784 46.9598 39.8431 46.7735 38.8447 46.7735C37.0806 46.7735 35.8633 47.3834 35.8633 48.2222C35.8633 48.4763 35.9589 48.7052 36.1641 48.9254C36.4377 49.2303 36.9711 49.4422 37.7642 49.5692L38.6942 49.7048C39.3642 49.7896 39.6515 49.9675 39.6515 50.2131C39.6515 50.5267 39.2139 50.6621 38.3523 50.6621C37.5454 50.6621 36.9299 50.5265 36.1641 50.3232L35.5623 51.1872C36.4512 51.4499 37.3675 51.5686 38.2566 51.5686C40.3491 51.5686 41.7303 50.9416 41.7303 49.9758Z" fill="#1A171B"/>
<path fill-rule="evenodd" clip-rule="evenodd" d="M51.4282 49.2386C51.4282 47.8662 50.3342 47.0953 48.5425 46.9683C48.2281 46.9427 47.5168 46.9427 47.038 46.9427H45.4243V51.467H47.3253C47.886 51.467 48.2552 51.467 48.5699 51.4416C50.2109 51.3143 51.4282 50.5603 51.4282 49.2386ZM49.3906 49.3319C49.3906 50.3147 48.816 50.5857 48.1597 50.5857H47.2843V47.7731H47.9545C49.0894 47.7731 49.3904 48.3409 49.3906 49.3319Z" fill="#1A171B"/>
<path fill-rule="evenodd" clip-rule="evenodd" d="M61.1814 51.4668L58.6376 46.9002H56.7776L54.0698 51.4668H55.9981L56.518 50.5009H58.6924L59.2531 51.4668H61.1814ZM58.2819 49.6623H56.9554C57.1741 49.1793 57.4886 48.4338 57.6391 47.9764C57.7759 48.4338 58.0767 49.1878 58.2819 49.6623Z" fill="#1A171B"/>
<path fill-rule="evenodd" clip-rule="evenodd" d="M72.5363 51.4669L71.7841 46.9258H69.4866L68.5156 48.9845C68.3925 49.2472 68.2967 49.5182 68.2011 49.7979C68.1191 49.5099 68.0369 49.3234 67.9003 49.027L66.9702 46.9258H64.6864L63.8931 51.4669H65.7394L65.9719 49.298C66.0129 49.0185 66.0402 48.6965 66.0539 48.3832C66.1632 48.7473 66.3137 49.0948 66.4094 49.298L67.3941 51.4586H68.9532L70.0475 49.2303C70.1705 48.9931 70.3208 48.7473 70.4167 48.4849C70.4441 48.7984 70.4713 49.0185 70.4986 49.2558L70.7449 51.467H72.5363V51.4669Z" fill="#1A171B"/>
</svg>
