<svg width="45" height="43" viewBox="0 0 45 43" fill="none" xmlns="http://www.w3.org/2000/svg">
<path d="M2.00118 37.0588H25.8088C26.9034 37.0588 27.7941 36.1681 27.7941 35.0735V9.92647C27.7941 9.89603 27.7809 9.86956 27.7769 9.84044C27.7732 9.8127 27.7675 9.78527 27.7597 9.75838C27.7338 9.64558 27.678 9.54181 27.5982 9.45794L18.3349 0.194559C18.2299 0.0953986 18.0958 0.0327374 17.9524 0.0158824C17.9246 0.0132353 17.8981 0 17.8676 0H1.99324C0.894706 0 0 0.890735 0 1.98529V35.0735C0 36.1681 0.897353 37.0588 2.00118 37.0588ZM18.5294 2.25926L25.5349 9.26471H19.1912C19.0157 9.26471 18.8473 9.19498 18.7232 9.07088C18.5991 8.94677 18.5294 8.77845 18.5294 8.60294V2.25926ZM1.32353 1.98529C1.32353 1.62 1.62397 1.32353 1.99324 1.32353H17.2059V8.60294C17.2059 9.6975 18.0966 10.5882 19.1912 10.5882H26.4706V35.0735C26.4706 35.249 26.4009 35.4174 26.2768 35.5415C26.1527 35.6656 25.9843 35.7353 25.8088 35.7353H2.00118C1.91323 35.7363 1.82593 35.7201 1.74428 35.6874C1.66263 35.6547 1.58821 35.6062 1.52528 35.5448C1.46236 35.4833 1.41215 35.4101 1.37753 35.3292C1.34292 35.2484 1.32457 35.1615 1.32353 35.0735V1.98529Z" fill="#2DA37D"/>
<path d="M5.95589 15.8824H21.8382C22.0138 15.8824 22.1821 15.8126 22.3062 15.6885C22.4303 15.5644 22.5 15.3961 22.5 15.2206C22.5 15.0451 22.4303 14.8768 22.3062 14.7527C22.1821 14.6286 22.0138 14.5588 21.8382 14.5588H5.95589C5.78038 14.5588 5.61206 14.6286 5.48795 14.7527C5.36385 14.8768 5.29413 15.0451 5.29413 15.2206C5.29413 15.3961 5.36385 15.5644 5.48795 15.6885C5.61206 15.8126 5.78038 15.8824 5.95589 15.8824Z" fill="#2DA37D"/>
<path d="M5.95589 21.1766H21.8382C22.0138 21.1766 22.1821 21.1068 22.3062 20.9827C22.4303 20.8586 22.5 20.6903 22.5 20.5148C22.5 20.3393 22.4303 20.171 22.3062 20.0469C22.1821 19.9227 22.0138 19.853 21.8382 19.853H5.95589C5.78038 19.853 5.61206 19.9227 5.48795 20.0469C5.36385 20.171 5.29413 20.3393 5.29413 20.5148C5.29413 20.6903 5.36385 20.8586 5.48795 20.9827C5.61206 21.1068 5.78038 21.1766 5.95589 21.1766Z" fill="#2DA37D"/>
<path d="M5.95589 10.5882H12.5735C12.7491 10.5882 12.9174 10.5185 13.0415 10.3944C13.1656 10.2702 13.2353 10.1019 13.2353 9.92641C13.2353 9.7509 13.1656 9.58258 13.0415 9.45847C12.9174 9.33437 12.7491 9.26465 12.5735 9.26465H5.95589C5.78038 9.26465 5.61206 9.33437 5.48795 9.45847C5.36385 9.58258 5.29413 9.7509 5.29413 9.92641C5.29413 10.1019 5.36385 10.2702 5.48795 10.3944C5.61206 10.5185 5.78038 10.5882 5.95589 10.5882Z" fill="#2DA37D"/>
<path d="M5.95589 26.4705H21.8382C22.0138 26.4705 22.1821 26.4008 22.3062 26.2767C22.4303 26.1526 22.5 25.9842 22.5 25.8087C22.5 25.6332 22.4303 25.4649 22.3062 25.3408C22.1821 25.2167 22.0138 25.147 21.8382 25.147H5.95589C5.78038 25.147 5.61206 25.2167 5.48795 25.3408C5.36385 25.4649 5.29413 25.6332 5.29413 25.8087C5.29413 25.9842 5.36385 26.1526 5.48795 26.2767C5.61206 26.4008 5.78038 26.4705 5.95589 26.4705Z" fill="#2DA37D"/>
<path d="M5.95589 31.7647H21.8382C22.0138 31.7647 22.1821 31.695 22.3062 31.5709C22.4303 31.4468 22.5 31.2784 22.5 31.1029C22.5 30.9274 22.4303 30.7591 22.3062 30.635C22.1821 30.5109 22.0138 30.4412 21.8382 30.4412H5.95589C5.78038 30.4412 5.61206 30.5109 5.48795 30.635C5.36385 30.7591 5.29413 30.9274 5.29413 31.1029C5.29413 31.2784 5.36385 31.4468 5.48795 31.5709C5.61206 31.695 5.78038 31.7647 5.95589 31.7647Z" fill="#2DA37D"/>
<path d="M28.4559 6.61772H34.4118V13.8971C34.4118 14.9917 35.3025 15.8824 36.397 15.8824H43.6765V40.3677C43.6765 40.5432 43.6067 40.7116 43.4826 40.8357C43.3585 40.9598 43.1902 41.0295 43.0147 41.0295H19.207C19.1191 41.0305 19.0318 41.0142 18.9502 40.9816C18.8685 40.9489 18.7941 40.9004 18.7312 40.839C18.6682 40.7775 18.618 40.7043 18.5834 40.6234C18.5488 40.5425 18.5304 40.4557 18.5294 40.3677V39.0442C18.5294 38.8687 18.4597 38.7004 18.3356 38.5762C18.2115 38.4521 18.0431 38.3824 17.8676 38.3824C17.6921 38.3824 17.5238 38.4521 17.3997 38.5762C17.2756 38.7004 17.2059 38.8687 17.2059 39.0442V40.3677C17.2059 41.4623 18.1032 42.353 19.207 42.353H43.0147C44.1093 42.353 45 41.4623 45 40.3677V15.2207C45 15.1902 44.9868 15.1637 44.9828 15.1346C44.9791 15.1069 44.9733 15.0795 44.9656 15.0526C44.9396 14.9398 44.8839 14.836 44.8041 14.7521L35.5407 5.48875C35.4365 5.38876 35.3019 5.32636 35.1582 5.3114C35.1304 5.30742 35.104 5.29419 35.0735 5.29419H28.4559C28.2804 5.29419 28.112 5.36391 27.9879 5.48802C27.8638 5.61212 27.7941 5.78044 27.7941 5.95595C27.7941 6.13147 27.8638 6.29979 27.9879 6.42389C28.112 6.548 28.2804 6.61772 28.4559 6.61772ZM36.397 14.5589C36.2215 14.5589 36.0532 14.4892 35.9291 14.3651C35.805 14.241 35.7353 14.0726 35.7353 13.8971V7.55345L42.7407 14.5589H36.397Z" fill="#2DA37D"/>
<path d="M31.1029 21.1766H39.0441C39.2196 21.1766 39.3879 21.1068 39.512 20.9827C39.6361 20.8586 39.7059 20.6903 39.7059 20.5148C39.7059 20.3393 39.6361 20.171 39.512 20.0469C39.3879 19.9227 39.2196 19.853 39.0441 19.853H31.1029C30.9274 19.853 30.7591 19.9227 30.635 20.0469C30.5109 20.171 30.4412 20.3393 30.4412 20.5148C30.4412 20.6903 30.5109 20.8586 30.635 20.9827C30.7591 21.1068 30.9274 21.1766 31.1029 21.1766Z" fill="#2DA37D"/>
<path d="M31.1029 26.4705H39.0441C39.2196 26.4705 39.3879 26.4008 39.512 26.2767C39.6361 26.1526 39.7059 25.9842 39.7059 25.8087C39.7059 25.6332 39.6361 25.4649 39.512 25.3408C39.3879 25.2167 39.2196 25.147 39.0441 25.147H31.1029C30.9274 25.147 30.7591 25.2167 30.635 25.3408C30.5109 25.4649 30.4412 25.6332 30.4412 25.8087C30.4412 25.9842 30.5109 26.1526 30.635 26.2767C30.7591 26.4008 30.9274 26.4705 31.1029 26.4705Z" fill="#2DA37D"/>
<path d="M31.1029 31.7647H39.0441C39.2196 31.7647 39.3879 31.695 39.512 31.5709C39.6361 31.4468 39.7059 31.2784 39.7059 31.1029C39.7059 30.9274 39.6361 30.7591 39.512 30.635C39.3879 30.5109 39.2196 30.4412 39.0441 30.4412H31.1029C30.9274 30.4412 30.7591 30.5109 30.635 30.635C30.5109 30.7591 30.4412 30.9274 30.4412 31.1029C30.4412 31.2784 30.5109 31.4468 30.635 31.5709C30.7591 31.695 30.9274 31.7647 31.1029 31.7647Z" fill="#2DA37D"/>
<path d="M31.1029 37.0589H39.0441C39.2196 37.0589 39.3879 36.9892 39.512 36.8651C39.6361 36.741 39.7059 36.5726 39.7059 36.3971C39.7059 36.2216 39.6361 36.0533 39.512 35.9292C39.3879 35.8051 39.2196 35.7354 39.0441 35.7354H31.1029C30.9274 35.7354 30.7591 35.8051 30.635 35.9292C30.5109 36.0533 30.4412 36.2216 30.4412 36.3971C30.4412 36.5726 30.5109 36.741 30.635 36.8651C30.7591 36.9892 30.9274 37.0589 31.1029 37.0589Z" fill="#2DA37D"/>
</svg>
