<svg width="45" height="46" viewBox="0 0 45 46" fill="none" xmlns="http://www.w3.org/2000/svg">
<path d="M4.1258 8.2516V40.9701H36.8444V45.0959H4.1258C2.97441 45.0959 1.99893 44.6962 1.19936 43.8966C0.399787 43.097 0 42.1215 0 40.9701V8.2516H4.1258ZM40.9701 0C42.0576 0 43.0011 0.399787 43.8006 1.19936C44.6002 1.99893 45 2.97441 45 4.1258V32.8145C45 33.9019 44.6002 34.8454 43.8006 35.645C43.0011 36.4446 42.0576 36.8443 40.9701 36.8443H12.2815C11.1301 36.8443 10.1546 36.4446 9.35501 35.645C8.55544 34.8454 8.15565 33.9019 8.15565 32.8145V4.1258C8.15565 2.97441 8.55544 1.99893 9.35501 1.19936C10.1546 0.399787 11.1301 0 12.2815 0H40.9701ZM40.9701 32.8145V4.1258H12.2815V32.8145H40.9701Z" fill="#2DA37D"/>
</svg>
