<svg width="45" height="47" viewBox="0 0 45 47" fill="none" xmlns="http://www.w3.org/2000/svg">
<path d="M9.64286 12.8571C8.37141 12.8571 7.12851 12.4801 6.07134 11.7737C5.01416 11.0674 4.1902 10.0633 3.70364 8.88868C3.21707 7.71401 3.08977 6.42144 3.33781 5.17442C3.58586 3.9274 4.19812 2.78194 5.09717 1.88289C5.99623 0.983836 7.14169 0.371574 8.38871 0.123526C9.63573 -0.124522 10.9283 0.00278538 12.103 0.489349C13.2776 0.975912 14.2816 1.79988 14.988 2.85705C15.6944 3.91422 16.0714 5.15712 16.0714 6.42857C16.0714 8.13354 15.3941 9.76867 14.1885 10.9743C12.983 12.1799 11.3478 12.8571 9.64286 12.8571ZM9.64286 3.21429C9.00714 3.21429 8.38569 3.4028 7.8571 3.75599C7.32851 4.10918 6.91653 4.61119 6.67325 5.19852C6.42997 5.78585 6.36631 6.43214 6.49034 7.05565C6.61436 7.67916 6.92049 8.25189 7.37002 8.70142C7.81954 9.15094 8.39227 9.45708 9.01578 9.5811C9.6393 9.70512 10.2856 9.64147 10.8729 9.39819C11.4602 9.15491 11.9623 8.74292 12.3154 8.21434C12.6686 7.68575 12.8571 7.0643 12.8571 6.42857C12.8571 5.57609 12.5185 4.75853 11.9157 4.15573C11.3129 3.55294 10.4953 3.21429 9.64286 3.21429Z" fill="#2DA37D"/>
<path d="M35.3571 12.8571C34.0857 12.8571 32.8428 12.4801 31.7856 11.7737C30.7285 11.0674 29.9045 10.0633 29.4179 8.88868C28.9314 7.71401 28.8041 6.42144 29.0521 5.17442C29.3001 3.9274 29.9124 2.78194 30.8115 1.88289C31.7105 0.983836 32.856 0.371574 34.103 0.123526C35.35 -0.124522 36.6426 0.00278538 37.8173 0.489349C38.9919 0.975912 39.9959 1.79988 40.7023 2.85705C41.4087 3.91422 41.7857 5.15712 41.7857 6.42857C41.7857 8.13354 41.1084 9.76867 39.9028 10.9743C38.6972 12.1799 37.0621 12.8571 35.3571 12.8571ZM35.3571 3.21429C34.7214 3.21429 34.1 3.4028 33.5714 3.75599C33.0428 4.10918 32.6308 4.61119 32.3875 5.19852C32.1443 5.78585 32.0806 6.43214 32.2046 7.05565C32.3286 7.67916 32.6348 8.25189 33.0843 8.70142C33.5338 9.15094 34.1066 9.45708 34.7301 9.5811C35.3536 9.70512 35.9999 9.64147 36.5872 9.39819C37.1745 9.15491 37.6765 8.74292 38.0297 8.21434C38.3829 7.68575 38.5714 7.0643 38.5714 6.42857C38.5714 5.57609 38.2328 4.75853 37.63 4.15573C37.0272 3.55294 36.2096 3.21429 35.3571 3.21429Z" fill="#2DA37D"/>
<path d="M38.5714 46.6072H32.1429C31.2904 46.6072 30.4728 46.2686 29.87 45.6658C29.2672 45.063 28.9286 44.2454 28.9286 43.3929V32.1429H32.1429V43.3929H38.5714V28.9286H41.7857V19.2858C41.7857 18.8595 41.6164 18.4508 41.315 18.1494C41.0136 17.848 40.6048 17.6786 40.1786 17.6786H29.8607L22.5 30.5358L15.1393 17.6786H4.82143C4.39519 17.6786 3.9864 17.848 3.68501 18.1494C3.38361 18.4508 3.21429 18.8595 3.21429 19.2858V28.9286H6.42857V43.3929H12.8571V32.1429H16.0714V43.3929C16.0714 44.2454 15.7328 45.063 15.13 45.6658C14.5272 46.2686 13.7096 46.6072 12.8571 46.6072H6.42857C5.57609 46.6072 4.75852 46.2686 4.15573 45.6658C3.55293 45.063 3.21429 44.2454 3.21429 43.3929V32.1429C2.3618 32.1429 1.54424 31.8043 0.941442 31.2015C0.338647 30.5987 0 29.7811 0 28.9286V19.2858C0 18.0071 0.507971 16.7807 1.41216 15.8765C2.31636 14.9723 3.54271 14.4644 4.82143 14.4644H17.0036L22.5 24.1072L27.9964 14.4644H40.1786C41.4573 14.4644 42.6836 14.9723 43.5878 15.8765C44.492 16.7807 45 18.0071 45 19.2858V28.9286C45 29.7811 44.6614 30.5987 44.0586 31.2015C43.4558 31.8043 42.6382 32.1429 41.7857 32.1429V43.3929C41.7857 44.2454 41.4471 45.063 40.8443 45.6658C40.2415 46.2686 39.4239 46.6072 38.5714 46.6072Z" fill="#2DA37D"/>
</svg>
