<svg width="27" height="27" viewBox="0 0 27 27" fill="none" xmlns="http://www.w3.org/2000/svg">
<path d="M6.68359 1H18.4002C21.3478 3.08756 23.9178 5.66239 25.9999 8.6138V26.6352H6.68359V1Z" fill="url(#paint0_linear)"/>
<path d="M6.68359 1H18.4002C21.3478 3.08756 23.9178 5.66239 25.9999 8.6138V26.6352H6.68359V1Z" stroke="#C8C8C8" stroke-width="0.5"/>
<path d="M18.3984 1C21.3423 3.09259 23.9122 5.66661 26.0001 8.6138C25.306 7.90039 24.4643 7.34724 23.534 6.99307C22.6038 6.6389 21.6074 6.49226 20.6145 6.56339C20.7561 5.52369 20.6264 4.46505 20.2381 3.49025C19.8499 2.51544 19.2161 1.6576 18.3984 1Z" fill="url(#paint1_linear)"/>
<path d="M18.3984 1C21.3423 3.09259 23.9122 5.66661 26.0001 8.6138C25.306 7.90039 24.4643 7.34724 23.534 6.99307C22.6038 6.6389 21.6074 6.49226 20.6145 6.56339C20.7561 5.52369 20.6264 4.46505 20.2381 3.49025C19.8499 2.51544 19.2161 1.6576 18.3984 1V1Z" stroke="#C8C8C8" stroke-width="0.5"/>
<path d="M2.9209 4.36752H17.1627V7.09468H2.9209V4.36752Z" stroke="#C8C8C8" stroke-width="4"/>
<path d="M13.5064 17.8609C13.9771 16.9377 14.5165 15.8984 14.9407 14.854L15.1104 14.4419C14.5508 12.3127 14.2155 10.6037 14.5155 9.49866C14.5784 9.34986 14.6869 9.22488 14.8254 9.14174C14.9639 9.0586 15.1253 9.02159 15.2862 9.03605H15.5427C16.0316 9.02898 16.2609 9.65017 16.2871 9.89157C16.2909 10.2574 16.2429 10.6219 16.1447 10.9743C16.1687 10.5997 16.1133 10.2242 15.9821 9.87238C15.7801 9.42896 15.5872 9.16534 15.4144 9.12191C15.353 9.17168 15.3031 9.23423 15.2682 9.30522C15.2333 9.3762 15.2143 9.45393 15.2124 9.533C15.1611 9.84655 15.1351 10.1637 15.1347 10.4814C15.1585 11.4155 15.3056 12.3423 15.572 13.2379C15.6266 13.0803 15.673 12.9288 15.7134 12.7864C15.773 12.5622 16.1508 11.0784 16.1508 11.0784C16.1508 11.0784 16.0558 13.0541 15.9225 13.651C15.8942 13.7773 15.8629 13.9025 15.8296 14.0298C16.2768 15.3121 17.0189 16.4714 17.9961 17.4145C18.38 17.7474 18.8001 18.0361 19.2486 18.275C20.0901 18.1481 20.9399 18.0843 21.7909 18.0841C22.4735 18.0153 23.1601 18.1687 23.7484 18.5215C23.8781 18.6523 23.9547 18.8264 23.9636 19.0104C23.9592 19.1064 23.9453 19.2018 23.9221 19.2952C23.9322 19.2437 23.9322 18.9922 23.1596 18.7437C22.131 18.548 21.0761 18.5333 20.0425 18.7003C21.6243 19.474 23.1666 19.8588 23.6545 19.6285C23.7575 19.5597 23.8471 19.4728 23.9191 19.372C23.8852 19.5391 23.8358 19.7028 23.7716 19.8608C23.6743 19.9845 23.5414 20.0754 23.3909 20.1214C22.6192 20.3234 20.6112 19.8507 18.8608 18.8508C16.8845 19.1541 14.9361 19.6173 13.0347 20.2356C11.3429 23.2011 10.0702 24.5626 9.03593 24.0445L8.65514 23.8536C8.58571 23.7976 8.53492 23.7218 8.50949 23.6363C8.48406 23.5508 8.48519 23.4596 8.51273 23.3748C8.63292 22.7849 9.37329 21.8951 10.8601 21.0072C11.0197 20.9062 11.7328 20.5335 11.7328 20.5335C11.7328 20.5335 11.2045 21.0446 11.0813 21.1446C9.89448 22.1173 9.01876 23.3405 9.03998 23.8152V23.8566C10.05 23.7132 11.5601 21.6607 13.5034 17.8579L13.5064 17.8609ZM14.1195 18.173C13.8148 18.7431 13.503 19.3095 13.1842 19.8719C14.8046 19.2226 16.4889 18.7459 18.2093 18.4498C17.987 18.297 17.7723 18.1335 17.5659 17.9599C16.6788 17.1948 15.9571 16.2569 15.4447 15.2035C15.0701 16.2227 14.6256 17.2149 14.1145 18.173" fill="#F91D0A"/>
<path d="M1.31592 2.82419H18.7535V8.68554H1.31592V2.82419Z" fill="url(#paint2_linear)"/>
<path d="M19.0861 9.03701H1V2.47266H19.0861V9.03701ZM18.4366 3.12313H1.65048V8.38452H18.4366V3.12313Z" fill="url(#paint3_linear)"/>
<path d="M5.87354 3.68376H7.14217C7.30235 3.6735 7.46286 3.69808 7.61264 3.75579C7.76242 3.81351 7.89792 3.90299 8.0098 4.01809C8.22734 4.28363 8.33568 4.622 8.31282 4.96451C8.33565 5.30856 8.22739 5.6485 8.0098 5.91598C7.89765 6.03053 7.76203 6.11945 7.61226 6.17664C7.46249 6.23382 7.30213 6.25792 7.14217 6.24728H6.63714V7.60985H5.87354V3.68376ZM6.63815 4.41706V5.51398H7.06136C7.12563 5.51765 7.18991 5.50674 7.24937 5.48208C7.30884 5.45742 7.36197 5.41964 7.40478 5.37156C7.49138 5.2553 7.53429 5.11227 7.52599 4.96754C7.53527 4.8227 7.49226 4.67933 7.40478 4.56352C7.36201 4.51538 7.3089 4.47756 7.24942 4.45289C7.18994 4.42823 7.12564 4.41736 7.06136 4.4211H6.63815V4.41706ZM9.6168 4.45241V6.84523H9.89053C10.0251 6.85424 10.16 6.83151 10.2842 6.77888C10.4084 6.72624 10.5185 6.64518 10.6056 6.54222C10.788 6.2813 10.8756 5.9659 10.8541 5.64832C10.8756 5.33261 10.7887 5.01902 10.6077 4.75947C10.52 4.65653 10.4096 4.57551 10.285 4.5229C10.1605 4.47028 10.0254 4.44753 9.89053 4.45645H9.6168V4.45241ZM8.85219 3.69083H9.66024C9.99777 3.67363 10.3357 3.71498 10.6592 3.81305C10.885 3.90091 11.0817 4.05033 11.2268 4.24434C11.3687 4.42686 11.474 4.63503 11.5369 4.85744C11.6076 5.11363 11.6416 5.37854 11.6379 5.64428C11.6416 5.91234 11.6076 6.17959 11.5369 6.43818C11.474 6.66059 11.3687 6.86876 11.2268 7.05129C11.0798 7.24587 10.882 7.39615 10.6551 7.48561C10.331 7.584 9.99257 7.62669 9.65418 7.61187H8.84613V3.68376L8.85219 3.69083ZM12.2217 3.68376H14.2954V4.44938H12.9924V5.17965H14.2136V5.94527H12.9924V7.60985H12.2278V3.68376" fill="#FFF9F9"/>
<defs>
<linearGradient id="paint0_linear" x1="12.3225" y1="21.0815" x2="19.4677" y2="8.16772" gradientUnits="userSpaceOnUse">
<stop stop-color="white"/>
<stop offset="1" stop-color="#E1E1E1"/>
</linearGradient>
<linearGradient id="paint1_linear" x1="21.3225" y1="5.61495" x2="22.4215" y2="4.60186" gradientUnits="userSpaceOnUse">
<stop stop-color="white"/>
<stop offset="1" stop-color="#C8C8C8"/>
</linearGradient>
<linearGradient id="paint2_linear" x1="11.7286" y1="10.9683" x2="8.34086" y2="0.541462" gradientUnits="userSpaceOnUse">
<stop offset="0.127" stop-color="#8A0000"/>
<stop offset="0.244" stop-color="#900000" stop-opacity="0.999"/>
<stop offset="0.398" stop-color="#A00000" stop-opacity="0.999"/>
<stop offset="0.573" stop-color="#BC0000" stop-opacity="0.998"/>
<stop offset="0.761" stop-color="#E20000" stop-opacity="0.997"/>
<stop offset="0.867" stop-color="#FA0000" stop-opacity="0.996"/>
</linearGradient>
<linearGradient id="paint3_linear" x1="11.8712" y1="11.3814" x2="8.21584" y2="0.128316" gradientUnits="userSpaceOnUse">
<stop offset="0.315" stop-color="#5E0000"/>
<stop offset="0.444" stop-color="#830000" stop-opacity="0.999"/>
<stop offset="0.618" stop-color="#AE0000" stop-opacity="0.998"/>
<stop offset="0.775" stop-color="#CD0000" stop-opacity="0.997"/>
<stop offset="0.908" stop-color="#E00000" stop-opacity="0.996"/>
<stop offset="1" stop-color="#E70000" stop-opacity="0.996"/>
</linearGradient>
</defs>
</svg>
