<svg width="25" height="24" viewBox="0 0 25 24" fill="none" xmlns="http://www.w3.org/2000/svg">
<path d="M23.9336 1.49885e-06H6.87914C6.73938 -0.000115802 6.60096 0.0272966 6.47179 0.0806737C6.34262 0.134051 6.22523 0.212347 6.12632 0.311093C6.02741 0.409838 5.94891 0.527098 5.89532 0.656179C5.84173 0.785259 5.81408 0.923632 5.81396 1.0634V5.80358L15.697 8.70537L24.9997 5.80358V1.0634C24.9996 0.923556 24.9719 0.785111 24.9183 0.655972C24.8646 0.526833 24.786 0.409533 24.687 0.310777C24.588 0.21202 24.4705 0.133742 24.3413 0.0804172C24.212 0.0270927 24.0735 -0.00023318 23.9336 1.49885e-06Z" fill="#41A5EE"/>
<path d="M24.9997 5.80357H5.81396V11.6072L15.697 13.3482L24.9997 11.6072V5.80357Z" fill="#2B7CD3"/>
<path d="M5.81396 11.6072V17.4107L15.1158 18.5715L24.9997 17.4107V11.6072H5.81396Z" fill="#185ABD"/>
<path d="M6.87914 23.2143H23.9327C24.0727 23.2147 24.2113 23.1874 24.3406 23.1342C24.47 23.0809 24.5876 23.0026 24.6867 22.9039C24.7858 22.8051 24.8645 22.6877 24.9182 22.5586C24.9719 22.4294 24.9996 22.2908 24.9997 22.1509V17.4107H5.81396V22.1509C5.81408 22.2907 5.84173 22.4291 5.89532 22.5581C5.94891 22.6872 6.02741 22.8045 6.12632 22.9032C6.22523 23.002 6.34262 23.0803 6.47179 23.1336C6.60096 23.187 6.73938 23.2144 6.87914 23.2143Z" fill="#103F91"/>
<path opacity="0.1" d="M12.8872 4.64288H5.81396V19.1518H12.8872C13.169 19.1504 13.439 19.038 13.6385 18.839C13.8381 18.6399 13.9512 18.3703 13.9533 18.0884V5.70628C13.9512 5.42444 13.8381 5.15478 13.6385 4.95573C13.439 4.75669 13.169 4.64428 12.8872 4.64288Z" fill="black"/>
<path opacity="0.2" d="M12.3059 5.22321H5.81396V19.7322H12.3059C12.5878 19.7308 12.8577 19.6184 13.0573 19.4193C13.2568 19.2203 13.3699 18.9506 13.372 18.6688V6.2866C13.3699 6.00476 13.2568 5.7351 13.0573 5.53605C12.8577 5.33701 12.5878 5.22461 12.3059 5.22321Z" fill="black"/>
<path opacity="0.2" d="M12.3059 5.22321H5.81396V18.5714H12.3059C12.5878 18.57 12.8577 18.4576 13.0573 18.2586C13.2568 18.0595 13.3699 17.7899 13.372 17.508V6.2866C13.3699 6.00476 13.2568 5.7351 13.0573 5.53605C12.8577 5.33701 12.5878 5.22461 12.3059 5.22321Z" fill="black"/>
<path opacity="0.2" d="M11.7247 5.22321H5.81396V18.5714H11.7247C12.0065 18.57 12.2765 18.4576 12.476 18.2586C12.6756 18.0595 12.7887 17.7899 12.7908 17.508V6.2866C12.7887 6.00476 12.6756 5.7351 12.476 5.53605C12.2765 5.33701 12.0065 5.22461 11.7247 5.22321Z" fill="black"/>
<path d="M1.06607 5.22321H11.725C12.0074 5.22297 12.2783 5.33484 12.4782 5.53424C12.6781 5.73364 12.7906 6.00425 12.7911 6.2866V16.9277C12.7906 17.21 12.6781 17.4806 12.4782 17.68C12.2783 17.8794 12.0074 17.9913 11.725 17.9911H1.06607C0.926234 17.9913 0.787719 17.964 0.658446 17.9107C0.529173 17.8573 0.411675 17.7791 0.312669 17.6803C0.213664 17.5816 0.135091 17.4642 0.0814409 17.3351C0.0277913 17.206 0.000117118 17.0675 0 16.9277V6.2866C0.000117118 6.14676 0.0277913 6.00832 0.0814409 5.87918C0.135091 5.75004 0.213664 5.63274 0.312669 5.53398C0.411675 5.43522 0.529173 5.35695 0.658446 5.30362C0.787719 5.2503 0.926234 5.22297 1.06607 5.22321Z" fill="url(#paint0_linear)"/>
<path d="M4.37424 13.3821C4.39477 13.5464 4.40906 13.6893 4.41531 13.8116H4.44031C4.44924 13.6955 4.46888 13.5554 4.49834 13.392C4.52781 13.2286 4.5537 13.0902 4.57781 12.9768L5.69835 8.1491H7.14835L8.30906 12.9045C8.37667 13.1986 8.42499 13.4969 8.45371 13.7973H8.47335C8.49468 13.5048 8.53494 13.2141 8.59389 12.9268L9.52157 8.14285H10.8403L9.21174 15.0607H7.66978L6.56531 10.4839C6.53317 10.3518 6.49686 10.1798 6.45638 9.96785C6.41591 9.75595 6.39091 9.60119 6.38138 9.50357H6.36263C6.35013 9.61607 6.32513 9.78303 6.28763 10.0045C6.25013 10.2268 6.22067 10.3902 6.19835 10.4973L5.15995 15.0634H3.59209L1.95459 8.1491H3.29388L4.3037 12.9866C4.33384 13.1172 4.35738 13.2492 4.37424 13.3821Z" fill="white"/>
<defs>
<linearGradient id="paint0_linear" x1="2.22679" y1="4.38749" x2="10.5643" y2="18.8268" gradientUnits="userSpaceOnUse">
<stop stop-color="#2368C4"/>
<stop offset="0.5" stop-color="#1A5DBE"/>
<stop offset="1" stop-color="#1146AC"/>
</linearGradient>
</defs>
</svg>
