<svg height="494pt" viewBox="-56 0 494 494.60724" width="494pt" xmlns="http://www.w3.org/2000/svg"><path d="m323.855469 273.429688v-211.929688c0-33.964844-27.535157-61.5-61.5-61.5-33.964844 0-61.5 27.535156-61.5 61.5v211.898438c-44.632813 27.109374-66.445313 80.09375-53.832031 130.769531 12.609374 50.671875 56.710937 87.253906 108.84375 90.28125 2.097656.105469 4.195312.15625 6.28125.15625 53.554687.109375 100.597656-35.53125 114.988281-87.117188 14.390625-51.582031-7.410157-106.429687-53.28125-134.058593zm9.492187 176.789062c-29 27.675781-71.398437 36.046875-108.738281 21.46875-37.335937-14.578125-62.851563-49.464844-65.425781-89.464844-2.578125-40 18.25-77.871094 53.410156-97.117187l4.261719-2.265625v-19.511719h9c4.417969 0 8-3.582031 8-8s-3.582031-8-8-8h-9v-14h19c4.417969 0 8-3.582031 8-8s-3.582031-8-8-8h-19v-14h9c4.417969 0 8-3.582031 8-8s-3.582031-8-8-8h-9v-14h19c4.417969 0 8-3.582031 8-8s-3.582031-8-8-8h-19v-14h9c4.417969 0 8-3.582031 8-8s-3.582031-8-8-8h-9v-14h19c4.417969 0 8-3.582031 8-8s-3.582031-8-8-8h-19v-14h9c4.417969 0 8-3.582031 8-8s-3.582031-8-8-8h-9v-5.828125c0-25.128906 20.371093-45.5 45.5-45.5 25.128906 0 45.5 20.371094 45.5 45.5v221.300781l4.054687 2.273438c28.875 15.8125 48.457032 44.472656 52.695313 77.121093 4.238281 32.648438-7.378907 65.355469-31.257813 88.019532zm0 0"/><path d="m269.855469 333.445312v-284.152343c0-4.417969-3.582031-8-8-8s-8 3.582031-8 8v284.152343c-21.929688 4.128907-37.109375 24.273438-35.035157 46.488282 2.074219 22.21875 20.722657 39.203125 43.035157 39.203125s40.957031-16.984375 43.03125-39.203125c2.074219-22.214844-13.105469-42.359375-35.03125-46.488282zm-7.664063 69.429688c-14.960937 0-27.089844-12.132812-27.089844-27.09375 0-14.964844 12.128907-27.09375 27.089844-27.09375 14.964844 0 27.09375 12.128906 27.09375 27.09375-.015625 14.957031-12.136718 27.078125-27.09375 27.09375zm0 0"/><path d="m31.503906 112.828125c.058594 41.738281 33.929688 75.535156 75.671875 75.5h18.679688v-16h-18.679688c-32.863281 0-59.5-26.640625-59.5-59.5s26.636719-59.5 59.5-59.5h18.679688v-16h-18.679688c-41.742187-.035156-75.613281 33.761719-75.671875 75.5zm0 0"/><path d="m51.703125 25.753906c0-14.195312-11.503906-25.6992185-25.699219-25.6992185-14.195312 0-25.699218 11.5039065-25.699218 25.6992185 0 14.191406 11.503906 25.699219 25.699218 25.699219 14.1875-.015625 25.683594-11.511719 25.699219-25.699219zm-25.699219 9.699219c-5.359375 0-9.699218-4.34375-9.699218-9.699219 0-5.359375 4.339843-9.699218 9.699218-9.699218 5.355469 0 9.699219 4.339843 9.699219 9.699218-.003906 5.355469-4.347656 9.695313-9.703125 9.699219zm0 0"/></svg>