<svg height="494pt" viewBox="0 -17 494.0686 494" width="494pt" xmlns="http://www.w3.org/2000/svg"><path d="m459.269531 303.292969c-4.417969 0-8 3.582031-8 8s3.582031 8 8 8c5.007813-.011719 9.816407 1.972656 13.355469 5.519531 3.539062 3.542969 5.519531 8.351562 5.503906 13.363281-.050781 10.460938-8.5625 18.90625-19.023437 18.878907h-376.050781c-4.417969 0-8 3.582031-8 8 0 4.417968 3.582031 8 8 8h376.050781c19.265625.046874 34.917969-15.535157 34.964843-34.800782.042969-19.261718-15.539062-34.917968-34.800781-34.960937zm0 0"/><path d="m329.65625 325.054688h-246.601562c-4.417969 0-8 3.582031-8 8 0 4.417968 3.582031 8 8 8h246.601562c9.496094.058593 18.296875-4.980469 23.050781-13.203126 4.753907-8.222656 4.734375-18.363281-.058593-26.566406-4.789063-8.203125-13.609376-13.203125-23.109376-13.101562-4.417968 0-8 3.582031-8 8 0 4.417968 3.582032 8 8 8 5.832032-.066406 10.617188 4.601562 10.695313 10.433594.011719 2.796874-1.105469 5.480468-3.09375 7.445312-1.992187 1.960938-4.6875 3.042969-7.484375 2.992188zm0 0"/><path d="m389.207031 444.054688c-4.417969 0-8 3.582031-8 8 0 4.417968 3.582031 8 8 8 19.328125-.058594 34.949219-15.78125 34.886719-35.109376-.0625-19.332031-15.78125-34.949218-35.109375-34.890624h-305.929687c-4.417969 0-8 3.582031-8 8 0 4.417968 3.582031 8 8 8h305.929687c10.492187-.058594 19.046875 8.394531 19.109375 18.890624.0625 10.492188-8.394531 19.050782-18.886719 19.109376zm0 0"/><path d="m77.394531 279.054688h205.683594c42.710937-.019532 77.339844-34.621094 77.390625-77.335938 0-.558594-.066406-1.117188-.199219-1.664062-.144531-6.8125-1.359375-13.5625-3.605469-20h21.449219c31.804688-.058594 57.597657-25.792969 57.730469-57.601563 0-.082031.210938-.257813.210938-.339844v-.03125c0-.078125-.210938-.160156-.210938-.242187-.015625-33.648438-23.863281-62.574219-56.894531-69-10.851563-30.414063-39.019531-51.25-71.277344-52.722656-32.261719-1.472657-62.210937 16.707031-75.789063 46.003906-28.039062-14.855469-61.1875-16.644532-90.660156-4.894532-29.472656 11.753907-52.296875 35.859376-62.421875 65.929688-45.597656 7.976562-78.847656 47.59375-78.7929685 93.882812v.261719.160157c0 .101562-.0078125.152343-.0078125.257812.0507812 42.714844 34.683594 77.316406 77.394531 77.335938zm226.601563-263.019532c28.34375.082032 53.222656 18.886719 61.039062 46.132813.875 3.136719 3.539063 5.445312 6.769532 5.863281 27.398437 3.148438 48.019531 26.445312 47.820312 54.023438-.007812.113281-.015625.222656-.011719.332031 0 .132812 0 .300781.003907.433593-.195313 22.800782-18.707032 41.191407-41.503907 41.234376h-29.414062c-12.488281-18.65625-33.4375-29.875-55.886719-29.921876-1.203125 0-2.429688-.035156-3.675781 0-2.222657-31.558593-18.15625-60.558593-43.601563-79.355468 9.871094-23.539063 32.933594-38.824219 58.457032-38.742188zm-287.992188 185.019532c0-40 30.03125-74.097657 69.863282-78.753907 3.214843-.375 5.882812-2.652343 6.765624-5.765625 12.542969-44.226562 55.769532-72.4375 101.304688-66.117187 45.535156 6.324219 79.441406 45.246093 79.460938 91.21875 0 .359375 0 .714843-.007813 1.074219-.0625 2.429687.988281 4.753906 2.847656 6.316406 1.859375 1.566406 4.332031 2.199218 6.714844 1.722656 15.113281-2.519531 30.578125 1.664062 42.359375 11.464844 11.777344 9.800781 18.707031 24.242187 18.980469 39.566406 0 .511719.050781 1.023438.15625 1.523438-.902344 33.25-28.109375 59.738281-61.371094 59.75h-205.683594c-33.730469-.011719-61.136719-27.222657-61.390625-60.949219.007813-.15625.011719-.273438.007813-.429688.003906-.207031-.003907-.414062-.023438-.621093zm0 0"/></svg>