<svg height="492pt" viewBox="-34 0 492 492.64564" width="492pt" xmlns="http://www.w3.org/2000/svg"><path d="m104.605469 406.171875c51.023437 51.546875 101.230469 83.863281 103.34375 85.214844 2.625 1.679687 5.992187 1.679687 8.617187 0 2.113282-1.351563 52.320313-33.667969 103.34375-85.214844 30.09375-30.398437 54.101563-61.152344 71.367188-91.398437 21.839844-38.273438 32.914062-75.890626 32.914062-111.8125 0-111.910157-95.074218-202.960938-211.933594-202.960938-116.859374 0-211.933593 91.050781-211.933593 202.964844 0 35.921875 11.074219 73.539062 32.914062 111.808594 17.261719 30.25 41.273438 60.996093 71.367188 91.398437zm107.652343-390.171875c108.039063 0 195.933594 83.871094 195.933594 186.964844 0 33.058594-10.335937 67.960937-30.730468 103.738281-16.53125 29-39.644532 58.609375-68.699219 87.992187-29.613281 29.710938-61.917969 56.609376-96.503907 80.347657-34.582031-23.738281-66.890624-50.636719-96.5-80.347657-29.054687-29.382812-52.171874-58.992187-68.699218-87.992187-20.402344-35.78125-30.734375-70.679687-30.734375-103.738281 0-103.09375 87.894531-186.964844 195.933593-186.964844zm0 0"/><path d="m212.257812 365.230469c86.511719 0 156.894532-70.382813 156.894532-156.894531 0-86.511719-70.382813-156.890626-156.894532-156.890626-86.511718 0-156.894531 70.378907-156.894531 156.890626 0 86.515624 70.382813 156.894531 156.894531 156.894531zm0-297.785157c77.6875 0 140.894532 63.203126 140.894532 140.890626s-63.207032 140.894531-140.894532 140.894531-140.894531-63.207031-140.894531-140.894531c0-77.683594 63.207031-140.890626 140.894531-140.890626zm0 0"/><path d="m151.390625 274.324219h121.734375c27.113281-.09375 49.050781-22.085938 49.070312-49.203125 0-.5-.042968-1.003906-.128906-1.5-.742187-23.015625-19.355468-41.4375-42.378906-41.945313-3.59375-30.917969-27.925781-55.332031-58.832031-59.027343-30.902344-3.699219-60.308594 14.292968-71.089844 43.492187-27.660156 5.769531-47.472656 30.160156-47.445313 58.417969v.214844.347656c.015626 27.113281 21.957032 49.109375 49.070313 49.203125zm-33.070313-50c.023438-22.074219 16.542969-40.648438 38.460938-43.246094 3.207031-.351563 5.878906-2.601563 6.769531-5.699219 6.996094-24.605468 31.050781-40.289062 56.386719-36.757812 25.332031 3.527344 44.1875 25.1875 44.191406 50.765625v.558593c-.0625 2.429688.984375 4.757813 2.847656 6.324219 1.859376 1.570313 4.332032 2.203125 6.71875 1.726563 1.71875-.28125 3.457032-.398438 5.199219-.351563 15.058594.058594 27.226563 12.292969 27.203125 27.351563 0 .433594.03125.867187.085938 1.296875-.640625 17.816406-15.230469 31.953125-33.058594 32.03125h-121.734375c-18.167969-.082031-32.902344-14.746094-33.070313-32.914063 0-.121094.007813-.429687 0-.550781-.003906-.125 0-.535156-.007812-.535156zm0 0"/></svg>