<svg height="495pt" viewBox="0 -4 495.925 495" width="495pt" xmlns="http://www.w3.org/2000/svg"><path d="m463.425781 172.460938h-273.933593c-4.417969 0-8 3.582031-8 8 0 4.417968 3.582031 8 8 8h273.933593c9.113281 0 16.5 7.390624 16.5 16.5 0 9.113281-7.386719 16.5-16.5 16.5h-251.769531c-17.675781 0-32 14.328124-32 32 0 17.675781 14.324219 32 32 32h210.039062c9.113282 0 16.5 7.390624 16.5 16.5 0 9.113281-7.386718 16.5-16.5 16.5h-175.265624c-17.949219 0-32.5 14.550781-32.5 32.5 0 17.949218 14.550781 32.5 32.5 32.5h147.445312c8.835938 0 16 7.164062 16 16 0 8.839843-7.164062 16-16 16h-77.199219c-17.96875.109374-32.519531 14.621093-32.675781 32.585937v32.28125c0 4.417969 3.582031 8 8 8s8-3.582031 8-8v-32.28125c.148438-9.132813 7.542969-16.488281 16.675781-16.585937h77.199219c17.671875 0 32-14.324219 32-32 0-17.671876-14.328125-32-32-32h-147.445312c-9.113282 0-16.5-7.386719-16.5-16.5 0-9.109376 7.386718-16.5 16.5-16.5h175.265624c17.949219 0 32.5-14.550782 32.5-32.5 0-17.949219-14.550781-32.5-32.5-32.5h-210.039062c-8.835938 0-16-7.160157-16-16 0-8.835938 7.164062-16 16-16h251.769531c17.949219 0 32.5-14.550782 32.5-32.5 0-17.949219-14.550781-32.5-32.5-32.5zm0 0"/><path d="m427 211.460938c4.417969 0 8-3.582032 8-8 0-4.417969-3.582031-8-8-8h-203c-4.417969 0-8 3.582031-8 8 0 4.417968 3.582031 8 8 8zm0 0"/><path d="m245 243.460938c-4.417969 0-8 3.582031-8 8 0 4.417968 3.582031 8 8 8h163c4.417969 0 8-3.582032 8-8 0-4.417969-3.582031-8-8-8zm0 0"/><path d="m386 309.460938c4.417969 0 8-3.582032 8-8 0-4.417969-3.582031-8-8-8h-135c-4.417969 0-8 3.582031-8 8 0 4.417968 3.582031 8 8 8zm0 0"/><path d="m282 343.460938c-4.417969 0-8 3.582031-8 8 0 4.417968 3.582031 8 8 8h104c4.417969 0 8-3.582032 8-8 0-4.417969-3.582031-8-8-8zm0 0"/><path d="m356 407.460938c4.417969 0 8-3.582032 8-8 0-4.417969-3.582031-8-8-8h-52c-4.417969 0-8 3.582031-8 8 0 4.417968 3.582031 8 8 8zm0 0"/><path d="m127.46875 62.390625c-36.085938 0-65.339844 29.253906-65.339844 65.339844 0 36.085937 29.253906 65.339843 65.339844 65.339843 36.082031 0 65.335938-29.253906 65.335938-65.339843-.039063-36.070313-29.269532-65.296875-65.335938-65.339844zm0 114.679687c-27.25 0-49.339844-22.089843-49.339844-49.339843s22.089844-49.339844 49.339844-49.339844c27.246094 0 49.335938 22.089844 49.335938 49.339844-.03125 27.234375-22.101563 49.304687-49.335938 49.339843zm0 0"/><path d="m127 49.460938c4.417969 0 8-3.582032 8-8v-33c0-4.417969-3.582031-8-8-8s-8 3.582031-8 8v33c0 4.417968 3.582031 8 8 8zm0 0"/><path d="m127 205.460938c-4.417969 0-8 3.582031-8 8v33c0 4.417968 3.582031 8 8 8s8-3.582032 8-8v-33c0-4.417969-3.582031-8-8-8zm0 0"/><path d="m213 135.460938h33c4.417969 0 8-3.582032 8-8 0-4.417969-3.582031-8-8-8h-33c-4.417969 0-8 3.582031-8 8 0 4.417968 3.582031 8 8 8zm0 0"/><path d="m49 127.460938c0-4.417969-3.582031-8-8-8h-33c-4.417969 0-8 3.582031-8 8 0 4.417968 3.582031 8 8 8h33c4.417969 0 8-3.582032 8-8zm0 0"/><path d="m188.410156 74.789062c2.121094 0 4.15625-.84375 5.65625-2.34375l23.167969-23.167968c3.09375-3.132813 3.078125-8.171875-.035156-11.28125-3.109375-3.109375-8.148438-3.125-11.277344-.035156l-23.167969 23.167968c-2.289062 2.289063-2.972656 5.730469-1.734375 8.71875 1.238281 2.992188 4.152344 4.941406 7.390625 4.941406zm0 0"/><path d="m60.867188 183.015625-23.167969 23.167969c-3.125 3.125-3.121094 8.191406 0 11.316406 3.125 3.125 8.191406 3.125 11.316406 0l23.167969-23.167969c3.125-3.125 3.125-8.191406 0-11.316406s-8.191406-3.125-11.316406 0zm0 0"/><path d="m60.867188 72.445312c3.125 3.125 8.1875 3.125 11.3125 0s3.125-8.191406 0-11.316406l-23.167969-23.167968c-3.132813-3.0625-8.148438-3.035157-11.25.066406-3.097657 3.097656-3.125 8.113281-.0625 11.25zm0 0"/></svg>