<svg height="478pt" viewBox="-8 0 478 478.43457" width="478pt" xmlns="http://www.w3.org/2000/svg"><path d="m113.796875 254.054688-1.019531 61.34375c-.058594 3.667968 2.382812 6.910156 5.929687 7.859374 3.542969.949219 7.28125-.632812 9.0625-3.84375l29.804688-53.648437c1.46875.0625 2.9375.101563 4.410156.101563 1.46875 0 2.9375-.039063 4.402344-.101563l29.808593 53.648437c1.78125 3.210938 5.519532 4.792969 9.0625 3.84375 3.546876-.949218 5.988282-4.191406 5.929688-7.859374l-1.019531-61.34375c2.605469-1.363282 5.152343-2.839844 7.640625-4.421876l52.628906 31.5625c3.144531 1.886719 7.175781 1.390626 9.769531-1.207031 2.59375-2.59375 3.089844-6.621093 1.203125-9.769531l-31.558594-52.625c1.539063-2.425781 2.980469-4.90625 4.316407-7.453125l61.445312 1.1875h.136719c3.679688-.101563 6.847656-2.636719 7.75-6.203125.902344-3.570312-.675781-7.308594-3.867188-9.144531l-53.648437-29.800781c.0625-1.46875.097656-2.941407.097656-4.414063 0-1.46875-.039062-2.9375-.097656-4.402344l53.648437-29.808593c3.207032-1.78125 4.789063-5.515626 3.839844-9.0625-.949218-3.542969-4.1875-5.988282-7.859375-5.925782l-61.34375 1.015625c-1.363281-2.605469-2.835937-5.152343-4.417969-7.640625l31.558594-52.625c1.890625-3.148437 1.394532-7.179687-1.203125-9.773437-2.59375-2.597657-6.621093-3.09375-9.769531-1.207031l-52.628906 31.558593c-2.484375-1.578125-5.03125-3.050781-7.640625-4.417969l1.019531-61.34375c.058594-3.667968-2.382812-6.910156-5.929688-7.859374-3.542968-.949219-7.28125.632812-9.0625 3.839843l-29.808593 53.648438c-2.929688-.121094-5.882813-.121094-8.808594 0l-29.808594-53.648438c-1.78125-3.207031-5.519531-4.789062-9.0625-3.839843-3.546875.949218-5.988281 4.191406-5.929687 7.859374l1.019531 61.34375c-2.605469 1.363282-5.152344 2.835938-7.640625 4.417969l-52.628906-31.558593c-3.144532-1.886719-7.175782-1.390626-9.769532 1.207031-2.59375 2.59375-3.089843 6.621093-1.203124 9.769531l31.558593 52.625c-1.582031 2.484375-3.054687 5.03125-4.417969 7.640625l-61.34375-1.015625c-3.671874-.0625-6.910156 2.382812-7.863281 5.925781-.949219 3.546875.636719 7.28125 3.84375 9.066407l53.648438 29.804687c-.0625 1.464844-.101563 2.9375-.101563 4.40625 0 1.484375.039063 2.972656.101563 4.453125l-53.648438 29.847656c-3.183593 1.824219-4.761719 5.546875-3.855469 9.105469.90625 3.554687 4.070313 6.074219 7.738282 6.15625h.136718l61.449219-1.1875c1.332031 2.539063 2.769531 5.023437 4.3125 7.453125l-31.558593 52.625c-1.886719 3.148438-1.390626 7.175781 1.203124 9.769531 2.59375 2.597657 6.625 3.09375 9.769532 1.207031l52.628906-31.5625c2.484375 1.582032 5.03125 3.054688 7.640625 4.421876zm15.511719 29.652343.378906-22.945312c.246094.082031.5.152343.746094.234375.28125.089844.566406.175781.851562.261718 1.21875.378907 2.445313.738282 3.679688 1.070313l.066406.019531c1.246094.332032 2.5.632813 3.765625.921875.292969.066407.585937.132813.882813.199219.257812.058594.515624.121094.773437.171875zm54.199218-20.066406c.265626-.054687.527344-.121094.792969-.179687l.84375-.1875c1.269531-.289063 2.535157-.59375 3.796875-.929688l.023438-.003906c1.253906-.335938 2.5-.703125 3.734375-1.085938.273437-.085937.546875-.167968.816406-.253906.253906-.082031.511719-.15625.765625-.238281l.378906 22.945312zm48.042969-24.421875c.121094-.109375.234375-.230469.355469-.339844 1.253906-1.132812 2.484375-2.289062 3.675781-3.480468l.023438-.023438c1.1875-1.1875 2.339843-2.417969 3.472656-3.664062.117187-.128907.242187-.246094.355469-.375l11.808594 19.691406zm29.425781-45.160156c.082032-.246094.152344-.5.234376-.746094.089843-.28125.175781-.558594.261718-.839844.378906-1.234375.746094-2.476562 1.078125-3.722656l.007813-.023438c.335937-1.253906.636718-2.519531.925781-3.785156.066406-.289062.132813-.574218.195313-.863281.054687-.261719.121093-.523437.175781-.785156l20.066406 11.148437zm22.945313-64.96875-20.066406 11.148437c-.054688-.269531-.121094-.53125-.179688-.800781-.058593-.265625-.125-.550781-.1875-.828125-.578125-2.546875-1.25-5.066406-2.019531-7.5625-.085938-.273437-.167969-.546875-.257812-.820313-.078126-.253906-.152344-.5-.234376-.757812zm-32.679687-56.589844-11.808594 19.695312c-.113282-.125-.238282-.246093-.351563-.371093-1.128906-1.246094-2.28125-2.472657-3.46875-3.660157l-.03125-.03125c-1.191406-1.191406-2.421875-2.34375-3.671875-3.476562-.121094-.113281-.238281-.234375-.359375-.34375zm-56.585938-32.671875-.378906 22.941406c-.25-.078125-.5-.152343-.75-.230469-.277344-.089843-.558594-.175781-.839844-.261718-1.226562-.378906-2.457031-.742188-3.699219-1.074219l-.050781-.015625c-1.25-.332031-2.5-.636719-3.765625-.921875-.300781-.066406-.597656-.132813-.894531-.199219-.257813-.054687-.511719-.117187-.769532-.171875zm-32.671875 33.832031c2.75 0 5.507813.128906 8.199219.378906 2.484375.230469 4.945312.5625 7.382812 1 7.3125 1.296876 14.429688 3.527344 21.175782 6.632813h.007812c4.976562 2.292969 9.730469 5.042969 14.199219 8.210937 1.015625.722657 2.011719 1.460938 2.992187 2.222657 4.894532 3.789062 9.375 8.085937 13.367188 12.8125.179687.210937.347656.4375.523437.652343.613281.738282 1.222657 1.476563 1.8125 2.234376.757813.980468 1.5 1.976562 2.21875 2.992187 3.171875 4.472656 5.921875 9.226563 8.214844 14.207031.519531 1.128906 1.015625 2.261719 1.484375 3.410156 3.289062 8.03125 5.359375 16.511719 6.148438 25.15625.25 2.683594.378906 5.4375.378906 8.191407 0 2.753906-.128906 5.511719-.378906 8.207031-.902344 9.882812-3.484376 19.535156-7.628907 28.550781-2.296875 4.980469-5.046875 9.734375-8.21875 14.207031-.71875 1.015626-1.460937 2.011719-2.21875 2.992188-5.316406 6.863281-11.617187 12.902344-18.699219 17.921875-4.472656 3.171875-9.226562 5.921875-14.207031 8.214844-1.125.519531-2.261719 1.015625-3.40625 1.484375-8.035156 3.285156-16.511719 5.359375-25.15625 6.148437-5.453125.503907-10.945312.503907-16.398437 0-2.484375-.226562-4.945313-.5625-7.382813-1-7.3125-1.300781-14.425781-3.53125-21.171875-6.636719-9.453125-4.351562-18.066406-10.335937-25.4375-17.6875-.035156-.035156-.074218-.066406-.109375-.097656-.082031-.082031-.160156-.167968-.242187-.253906-3.40625-3.433594-6.527344-7.140625-9.328125-11.085938-3.175781-4.472656-5.925781-9.226562-8.21875-14.207031-4.148438-9.015625-6.730469-18.675781-7.632813-28.5625-.25-2.683593-.378906-5.441406-.378906-8.199219 0-2.757812.128906-5.511718.378906-8.207031.902344-9.882812 3.484375-19.535156 7.632813-28.550781 2.292969-4.980469 5.046875-9.734375 8.21875-14.207031.71875-1.015625 1.457031-2.011719 2.21875-2.992188 3.789062-4.890625 8.082031-9.371093 12.8125-13.363281 1.890625-1.597656 3.851562-3.113281 5.878906-4.554688 4.472656-3.171874 9.226563-5.925781 14.207031-8.21875 9.019532-4.148437 18.679688-6.730468 28.5625-7.632812 2.6875-.242188 5.445313-.371094 8.199219-.371094zm-21.53125-13.769531c-.257813.054687-.515625.117187-.777344.175781-.292969.0625-.582031.128906-.875.199219-1.261719.285156-2.519531.589844-3.769531.921875-.023438 0-.042969.011719-.0625.019531-1.238281.332031-2.464844.691407-3.6875 1.070313-.285156.085937-.566406.171875-.847656.261718-.25.078126-.5.152344-.746094.234376l-.378906-22.945313zm-48.042969 24.421875c-.125.113281-.242187.234375-.367187.351562-2.503907 2.269532-4.894531 4.65625-7.164063 7.164063-.113281.125-.238281.242187-.351562.367187l-11.808594-19.695312zm-29.425781 45.15625c-.082031.25-.152344.5-.230469.746094-.089844.28125-.179687.5625-.265625.847656-.378906 1.230469-.742187 2.464844-1.074219 3.707031l-.011718.035157c-.335938 1.253906-.636719 2.515624-.925782 3.78125-.066406.289062-.128906.578124-.195312.867187-.054688.261719-.117188.523437-.171875.785156l-20.066406-11.148437zm-22.941406 64.972656 20.066406-11.148437c.058594.265625.121094.53125.179687.800781.058594.269531.125.554688.1875.832031.578126 2.542969 1.25 5.0625 2.015626 7.554688.085937.277343.171874.554687.261718.832031.078125.25.152344.5.234375.75zm32.675781 56.585938 11.808594-19.695313c.113281.125.238281.246094.351562.371094 1.125 1.242187 2.273438 2.460937 3.457032 3.648437l.066406.0625c1.179687 1.179688 2.398437 2.324219 3.636718 3.449219.128907.117188.246094.238281.371094.351563zm0 0"/><path d="m428.957031 327.984375c-4.417969 0-8 3.582031-8 8s3.582031 8 8 8c6.339844-.007813 12.199219 3.375 15.351563 8.875 3.15625 5.496094 3.128906 12.261719-.078125 17.730469-3.203125 5.46875-9.09375 8.804687-15.429688 8.738281h-358.457031c-4.417969 0-8 3.582031-8 8s3.582031 8 8 8h358.457031c12.066407.085937 23.261719-6.292969 29.335938-16.71875 6.078125-10.429687 6.105469-23.3125.078125-33.769531-6.027344-10.453125-17.1875-16.886719-29.257813-16.855469zm0 0"/><path d="m305.410156 349.328125h-235.066406c-4.417969 0-8 3.582031-8 8s3.582031 8 8 8h235.066406c14.21875-.03125 25.71875-11.582031 25.691406-25.800781-.03125-14.21875-11.582031-25.722656-25.800781-25.691406-4.417969 0-8 3.582031-8 8 0 4.417968 3.582031 8 8 8 5.382813-.03125 9.769531 4.308593 9.800781 9.691406.027344 5.382812-4.308593 9.769531-9.691406 9.800781zm0 0"/><path d="m361.957031 411.328125h-291.613281c-4.417969 0-8 3.582031-8 8s3.582031 8 8 8h291.613281c6.308594-.09375 12.179688 3.203125 15.386719 8.636719 3.203125 5.433594 3.242188 12.171875.105469 17.644531s-8.96875 8.839844-15.277344 8.824219c-4.417969 0-8 3.582031-8 8 0 4.417968 3.582031 8 8 8 18.53125-.058594 33.507813-15.128906 33.449219-33.660156-.0625-18.53125-15.132813-33.507813-33.664063-33.445313zm0 0"/></svg>