<svg height="486pt" viewBox="0 -54 486.19654 486" width="486pt" xmlns="http://www.w3.org/2000/svg"><path d="m473.160156 195.554688-84.746094-118.707032c-1.5-2.101562-3.921874-3.347656-6.503906-3.351562-2.582031 0-5.007812 1.246094-6.511718 3.34375l-36.679688 51.246094-89.109375-124.726563c-1.511719-2.078125-3.9375-3.296875-6.503906-3.2617188-2.566407-.03125-4.988281 1.1796878-6.5 3.2499998l-89.296875 124.683594-36.503906-51.359375c-1.476563-2.15625-3.890626-3.484375-6.507813-3.574219-2.605469.078125-5.023437 1.394532-6.503906 3.542969l-84.75 118.484375c-.148438.207031-.289063.472656-.414063.691406-17.101562 29.492188-16.816406 65.328125.75 95.820313 18.847656 32.714843 53.683594 53.050781 90.914063 53.050781 13.097656.027344 26.078125-2.457031 38.242187-7.308594 55.960938 54.53125 145.183594 54.535156 201.152344.011719 12.15625 4.851563 25.128906 7.332031 38.21875 7.308594 37.296875 0 72.167969-20.367188 91.007812-53.15625 17.480469-30.421875 17.722657-66.074219.644532-95.367188-.121094-.210937-.261719-.417969-.398438-.621093zm-445.917968 88.121093c-14.832032-25.746093-15.175782-54.683593-.960938-79.457031l78-108.964844 33.183594 46.480469-21.199219 29.617187c-.148437.210938-.289063.425782-.417969.644532-12.148437 20.625-18.222656 44.261718-17.519531 68.183594.777344 22.699218 7.167969 44.851562 18.589844 64.476562 4.046875 7.023438 8.664062 13.699219 13.800781 19.964844-8.542969 2.714844-17.457031 4.089844-26.425781 4.078125-31.523438 0-61.050781-17.25-77.050781-45.023438zm215.855468 78.609375c-45.960937 0-89-25.144531-112.316406-65.613281-10.101562-17.332031-15.757812-36.894531-16.460938-56.941406-.605468-20.824219 4.65625-41.402344 15.179688-59.382813l113.589844-158.675781 113.609375 159.140625c10.503906 17.847656 15.761719 38.296875 15.179687 59-.683594 19.960938-6.300781 39.441406-16.34375 56.707031-23.304687 40.566407-66.386718 65.765625-112.4375 65.765625zm215.941406-78.710937c-15.992187 27.835937-45.550781 45.125-77.132812 45.125-8.957031.011719-17.863281-1.359375-26.402344-4.070313 5.183594-6.316406 9.835938-13.050781 13.90625-20.136718 11.363282-19.5625 17.707032-41.636719 18.464844-64.246094.679688-23.804688-5.398438-47.316406-17.535156-67.808594-.121094-.210938-.257813-.417969-.398438-.617188l-21.398437-29.972656 33.355469-46.59375 78.023437 109.292969c14.175781 24.578125 13.863281 53.359375-.882813 79.027344zm0 0"/></svg>