<svg height="494pt" viewBox="-56 0 494 494.60724" width="494pt" xmlns="http://www.w3.org/2000/svg"><path d="m323.859375 273.429688v-211.929688c0-33.964844-27.535156-61.5-61.5-61.5s-61.5 27.535156-61.5 61.5v211.898438c-44.628906 27.109374-66.445313 80.09375-53.832031 130.769531 12.609375 50.671875 56.710937 87.253906 108.84375 90.28125 2.097656.105469 4.195312.15625 6.285156.15625 53.550781.109375 100.59375-35.53125 114.984375-87.117188 14.390625-51.582031-7.40625-106.429687-53.28125-134.058593zm9.492187 176.789062c-28.996093 27.675781-71.398437 36.046875-108.738281 21.46875-37.335937-14.578125-62.851562-49.464844-65.425781-89.464844-2.578125-40 18.25-77.871094 53.410156-97.117187l4.261719-2.265625v-19.511719h9c4.417969 0 8-3.582031 8-8s-3.582031-8-8-8h-9v-14h19c4.417969 0 8-3.582031 8-8s-3.582031-8-8-8h-19v-14h9c4.417969 0 8-3.582031 8-8s-3.582031-8-8-8h-9v-14h19c4.417969 0 8-3.582031 8-8s-3.582031-8-8-8h-19v-14h9c4.417969 0 8-3.582031 8-8s-3.582031-8-8-8h-9v-14h19c4.417969 0 8-3.582031 8-8s-3.582031-8-8-8h-19v-14h9c4.417969 0 8-3.582031 8-8s-3.582031-8-8-8h-9v-5.828125c0-25.128906 20.371094-45.5 45.5-45.5s45.5 20.371094 45.5 45.5v221.300781l4.054687 2.273438c28.875 15.8125 48.460938 44.472656 52.699219 77.121093 4.234375 32.648438-7.378906 65.355469-31.261719 88.019532zm0 0"/><path d="m269.859375 333.445312v-284.152343c0-4.417969-3.582031-8-8-8s-8 3.582031-8 8v284.152343c-21.925781 4.128907-37.105469 24.273438-35.03125 46.488282 2.074219 22.21875 20.71875 39.203125 43.03125 39.203125s40.960937-16.984375 43.03125-39.203125c2.074219-22.214844-13.101563-42.359375-35.03125-46.488282zm-7.660156 69.429688c-14.964844 0-27.09375-12.132812-27.09375-27.09375 0-14.964844 12.128906-27.09375 27.09375-27.09375 14.960937 0 27.089843 12.128906 27.089843 27.09375-.015624 14.957031-12.136718 27.078125-27.089843 27.09375zm0 0"/><path d="m45.859375 68.789062v142.539063h16v-71h78v-16h-78v-48h78v-16h-86.339844c-4.417969 0-7.660156 4.042969-7.660156 8.460937zm0 0"/><path d="m58.179688 28.988281c.003906-15.980469-12.953126-28.9374998-28.9375-28.9374998-15.980469 0-28.9375 12.9570308-28.9375 28.9374998 0 15.984375 12.957031 28.941407 28.9375 28.941407 15.976562-.019532 28.921874-12.964844 28.9375-28.941407zm-28.9375 12.941407c-7.144532 0-12.9375-5.792969-12.9375-12.941407 0-7.144531 5.792968-12.9375 12.9375-12.9375 7.148437 0 12.941406 5.792969 12.9375 12.9375-.007813 7.144531-5.792969 12.933594-12.9375 12.941407zm0 0"/></svg>