<svg height="469pt" viewBox="-15 0 469 469.9452" width="469pt" xmlns="http://www.w3.org/2000/svg"><path d="m93.550781 297.96875h69.316407l-9.074219 79.214844c-.253907 2.25.46875 4.503906 1.988281 6.183594 1.519531 1.679687 3.6875 2.628906 5.957031 2.601562h29.253907l-4.417969 75.558594c-.191407 3.65625 2.121093 6.976562 5.617187 8.058594 3.496094 1.085937 7.285156-.34375 9.195313-3.464844l82.972656-135.800782c1.507813-2.5 1.5625-5.617187.148437-8.171874-1.402343-2.546876-4.066406-4.140626-6.972656-4.179688h-31.425781l13.109375-20h86.5c51.324219 0 93.078125-41.976562 93.078125-93.300781 0-.691407-.082031-1.382813-.242187-2.058594-.859376-44.070313-36.820313-79.351563-80.898438-79.371094-2.011719 0-4.085938.011719-6.199219.113281-4-69.195312-61.242187-123.2773432-130.546875-123.351562-28.765625-.0898438-56.742187 9.402344-79.511718 26.976562-20.882813 16.082032-36.46875 38.046876-44.753907 63.066407-55.527343 9.179687-96.230469 57.222656-96.167969 113.5 0 .09375 0 .183593.003907.277343v.265626c-.003907.121093-.007813.460937-.007813.582031.003906 51.324219 41.757813 93.300781 93.078125 93.300781zm130.984375 31.9375c1.417969 2.539062 4.105469 4.097656 7.007813 4.0625h31.726562l-58.855469 96.417969 3.046876-52.09375c.128906-2.179688-.65625-4.3125-2.164063-5.886719-1.519531-1.582031-3.628906-2.464844-5.820313-2.4375h-28.769531l8.265625-72h61.285156l-15.464843 24.0625c-1.5625 2.367188-1.664063 5.414062-.257813 7.875zm-208.058594-125.9375c0-51 37.507813-92.738281 87.25-98.554688 3.230469-.421874 5.894532-2.730468 6.769532-5.867187 15.597656-55.101563 69.429687-90.269531 126.15625-82.414063 56.726562 7.859376 98.972656 56.332032 99.007812 113.601563 0 .453125 0 .890625-.007812 1.34375-.058594 2.429687.988281 4.753906 2.847656 6.316406s4.332031 2.195313 6.714844 1.71875c4.105468-.699219 8.273437-1 12.441406-.902343 35.796875 0 64.925781 29.265624 64.925781 65.234374 0 .671876.066407 1.335938.199219 1.992188-.945312 41.6875-35.152344 75.53125-77.0625 75.53125h-252.167969c-42.355469 0-76.84375-34.566406-77.074219-76.871094.011719-.167968.011719-.238281.011719-.40625.003907-.242187-.007812-.484375-.03125-.722656zm0 0"/></svg>