<svg height="434pt" viewBox="-17 0 434 434.34542" width="434pt" xmlns="http://www.w3.org/2000/svg"><path d="m207.859375 434.34375c83.289063 0 158.269531-47.761719 191.023437-121.675781 1.324219-2.988281.699219-6.480469-1.582031-8.824219-2.277343-2.339844-5.753906-3.058594-8.773437-1.816406-23.871094 9.847656-49.457032 14.875-75.277344 14.792968-105.699219 0-191.683594-82.710937-191.683594-184.390624-.074218-24.875 5.132813-49.480469 15.28125-72.1875 1.328125-2.988282.707032-6.484376-1.570312-8.828126s-5.753906-3.066406-8.78125-1.824218c-76.738282 31.546875-126.324219 103.921875-126.324219 184.378906 0 110.488281 93.167969 200.375 207.6875 200.375zm-92.910156-361.667969c-6.273438 19.296875-9.441407 39.46875-9.382813 59.761719 0 110.488281 93.164063 200.378906 207.664063 200.378906 21.042969.054688 41.972656-3.019531 62.109375-9.117187-33.601563 58.066406-97.332032 94.644531-167.480469 94.644531-105.699219 0-191.683594-82.714844-191.683594-184.378906-.003906-67.597656 38.1875-129.03125 98.773438-161.289063zm0 0"/><path d="m175.691406 118.652344c2.695313 2.699218 6.925782 3.117187 10.097656 1l47.859376-31.925782 43.597656 31.738282c3.0625 2.226562 7.265625 2.003906 10.074218-.535156 2.808594-2.535157 3.453126-6.695313 1.542969-9.964844l-28.117187-48.183594 32.246094-48.335938c2.117187-3.175781 1.699218-7.402343-1-10.097656-2.695313-2.699218-6.921876-3.117187-10.09375-1l-48.058594 32.054688-48.054688-32.054688c-3.171875-2.121094-7.402344-1.703125-10.101562.996094-2.699219 2.699219-3.113282 6.933594-.992188 10.105469l32.054688 48.054687-32.054688 48.050782c-2.117187 3.171874-1.699218 7.398437 1 10.097656zm47.328125-62.59375-12.792969-19.175782 19.175782 12.792969c2.6875 1.792969 6.191406 1.792969 8.878906 0l19.175781-12.792969-12.792969 19.175782c-1.695312 2.542968-1.792968 5.832031-.253906 8.472656l11.40625 19.542969-17.265625-12.566407c-2.710937-1.972656-6.359375-2.046874-9.148437-.1875l-19.175782 12.789063 12.792969-19.171875c1.789063-2.6875 1.789063-6.191406 0-8.878906zm0 0"/></svg>