<svg height="482pt" viewBox="0 -4 482.37914 482" width="482pt" xmlns="http://www.w3.org/2000/svg"><path d="m437.988281 323.496094c-4.417969 0-8 3.582031-8 8 0 4.417968 3.582031 8 8 8 9.816407-.007813 17.785157 7.949218 17.789063 17.769531.007812 9.820313-7.949219 17.785156-17.765625 17.789063h-358.820313c-4.417968 0-8 3.582031-8 8 0 4.417968 3.582032 8 8 8h358.820313c18.65625-.003907 33.773437-15.132813 33.765625-33.789063-.003906-18.65625-15.132813-33.777344-33.789063-33.769531zm0 0"/><path d="m314.621094 345.054688h-235.429688c-4.417968 0-8 3.582031-8 8 0 4.417968 3.582032 8 8 8h235.429688c14.25-.117188 25.71875-11.746094 25.640625-26-.082031-14.25-11.679688-25.75-25.933594-25.710938-4.417969 0-8 3.582031-8 8s3.582031 8 8 8c5.429687.058594 9.824219 4.429688 9.910156 9.859375.058594 5.375-4.242187 9.78125-9.617187 9.851563zm0 0"/><path d="m371.167969 407.054688h-291.976563c-4.417968 0-8 3.582031-8 8 0 4.417968 3.582032 8 8 8h291.976563c9.699219-.058594 17.617187 7.746093 17.699219 17.445312.023437 4.671875-1.839844 9.15625-5.164063 12.4375s-7.828125 5.085938-12.5 5.007812c-4.417969 0-8 3.582032-8 8 0 4.417969 3.582031 8 8 8 11.992187.058594 23.097656-6.304687 29.105469-16.683593 6.011718-10.378907 6.003906-23.179688-.015625-33.550781-6.019531-10.371094-17.132813-16.726563-29.125-16.65625zm0 0"/><path d="m471.332031 105.984375c-9.378906 3.886719-19.441406 5.863281-29.59375 5.8125-41.46875 0-75.210937-32.371094-75.210937-72.175781-.027344-9.710938 2.003906-19.3125 5.964844-28.179688 1.332031-2.984375.707031-6.480468-1.570313-8.828125-2.277344-2.34375-5.753906-3.066406-8.777344-1.824219-18.609375 7.558594-34.160156 21.117188-44.183593 38.523438-37.359376-14.667969-79.691407 2.191406-96.738282 38.527344-14.8125-7.804688-31.304687-11.875-48.046875-11.855469-44.285156.136719-83.613281 28.328125-97.96875 70.21875-43.539062 7.726563-75.2460935 45.601563-75.1992185 89.820313v.265624.128907c0 .097656-.0078125.296875-.0078125.398437.0390625 40.953125 33.203125 74.15625 74.15625 74.238282h196.058594c40.949218-.085938 74.109375-33.289063 74.148437-74.238282 0-.628906-.0625-1.257812-.191406-1.875-.171875-6.421875-1.273437-12.78125-3.277344-18.886718h19.914063c23.628906.132812 44.6875-14.890626 52.25-37.28125 30.246094-4.929688 56.273437-24.300782 68.632812-52.191407 1.328125-2.984375.699219-6.476562-1.585937-8.8125-2.28125-2.335937-5.757813-3.042969-8.769531-1.789062zm-201.117187 179.070313h-196.058594c-31.96875-.078126-57.90625-25.886719-58.144531-57.855469.007812-.15625.007812-.339844.007812-.492188 0-.210937-.011719-.652343-.023437-.652343h.011718c0-38.082032 28.453126-70.164063 66.265626-74.707032 3.214843-.378906 5.886718-2.65625 6.765624-5.769531 11.90625-41.980469 52.933594-68.757813 96.15625-62.757813 43.21875 6 75.402344 42.941407 75.421876 86.574219 0 .339844 0 .671875-.007813 1.011719-.0625 2.429688.984375 4.753906 2.84375 6.320312 1.863281 1.566407 4.332031 2.199219 6.71875 1.726563 14.296875-2.382813 28.921875 1.578125 40.0625 10.851563 11.144531 9.269531 17.699219 22.929687 17.957031 37.421874 0 .546876.050782 1.09375.148438 1.628907-.863282 31.503906-26.609375 56.617187-58.125 56.699219zm90.589844-95h-27.835938c-12.058594-17.691407-32.066406-28.300782-53.476562-28.351563-1.03125 0-2.085938.050781-3.152344.078125-2.214844-29.941406-17.34375-57.441406-41.445313-75.339844 12.695313-29.527344 46.355469-43.863281 76.445313-32.5625-3.132813 9.023438-4.730469 18.507813-4.730469 28.058594 0 47.734375 39.453125 86.644531 88.5 88.039062-6.898437 12.464844-20.054687 20.167969-34.304687 20.078126zm37.019531-35.949219c-41.472657 0-75.214844-32.375-75.214844-72.167969.113281-22.582031 10.945313-43.765625 29.183594-57.082031-.847657 4.878906-1.269531 9.824219-1.261719 14.777343 0 48.613282 40.917969 88.167969 91.195312 88.167969 5.089844-.007812 10.171876-.410156 15.199219-1.203125-14.597656 17.546875-36.28125 27.640625-59.101562 27.507813zm0 0"/></svg>