<svg height="485pt" viewBox="0 -32 485.581 485" width="485pt" xmlns="http://www.w3.org/2000/svg"><path d="m485.371094 246.574219c-.007813-37.371094-26.628906-69.4375-63.359375-76.320313-.113281-.316406-.285157-.632812-.402344-.949218 21.183594-9.355469 38.140625-26.234376 47.59375-47.375 1.316406-2.992188.683594-6.484376-1.601563-8.820313-2.238281-2.40625-5.707031-3.21875-8.78125-2.0625-9.851562 3.980469-20.386718 5.980469-31.011718 5.882813h-.1875c-43.722656 0-79.292969-33.894532-79.292969-75.867188-.03125-10.203125 2.113281-20.292969 6.292969-29.601562 1.328125-2.964844.707031-6.445313-1.570313-8.765626-2.285156-2.335937-5.765625-3.046874-8.78125-1.792968-35.242187 14.488281-58.011719 47.777344-58.011719 84.78125-.011718 13.003906 2.832032 25.851562 8.324219 37.640625-15.804687 9.253906-28.332031 23.203125-35.84375 39.90625-17.5-9.496094-37.101562-14.457031-57.011719-14.433594-51.648437.15625-97.453124 33.222656-113.855468 82.199219-50.78125 8.605468-87.9218752 52.621094-87.8632815 104.125v.273437.210938c0 .113281-.0078125.425781-.0078125.542969 0 47.1875 38.390625 85.78125 85.582031 85.78125h229.964844c47.191406 0 85.582031-38.59375 85.582031-85.78125 0-.597657-.074218-1.191407-.21875-1.769532-.164062-8.007812-1.660156-15.933594-4.433594-23.449218h25.324219c35.054688-.117188 63.445313-28.503907 63.570313-63.5625 0-.09375.210937-.390626.210937-.480469v-.054688c0-.085937-.210937-.171875-.210937-.257812zm-151.550782-221.65625c-1.007812 5.410156-1.503906 10.902343-1.492187 16.402343 0 50.785157 42.75 92.097657 95.277344 92.097657 5.664062.007812 11.320312-.46875 16.90625-1.429688-15.367188 18.988281-38.535157 29.957031-62.960938 29.816407-43.722656 0-79.300781-34.140626-79.300781-76.101563.007812-24.265625 11.960938-46.613281 31.570312-60.785156zm-18.273437 381.011719h-229.957031c-38.234375 0-69.363282-31.191407-69.582032-69.375.007813-.160157.011719-.519532.011719-.683594 0-.257813-.011719-.941406-.03125-.941406h.019531c0-45 33.9375-83.621094 78.941407-88.882813 3.207031-.355469 5.882812-2.613281 6.769531-5.714844 14.167969-49.890625 62.941406-81.710937 114.3125-74.566406 51.371094 7.140625 89.621094 51.058594 89.636719 102.925781 0 .40625 0 .816406-.007813 1.226563-.0625 2.429687.984375 4.757812 2.84375 6.324219 1.859375 1.5625 4.332032 2.199218 6.71875 1.722656 17.175782-2.871094 34.75 1.878906 48.140625 13.015625s21.265625 27.550781 21.570313 44.964843c0 .632813.058594 1.261719.175781 1.882813-.894531 37.59375-31.757813 68.101563-69.5625 68.101563zm153.605469-158.214844c-.199219 26.046875-21.304688 47.089844-47.351563 47.214844h-33.402343c-13.371094-21-36.152344-33.5625-61.972657-33.5625-1.625 0-3.292969-.085938-4.992187-.019532-2.230469-35.597656-20.1875-68.355468-49-89.386718 5.988281-14.558594 16.574218-26.761719 30.148437-34.742188 18.128907 25.601562 47.601563 40.75 78.972657 40.59375 8.402343 0 16.769531-1.074219 24.898437-3.199219.601563 1.648438 1.15625 3.308594 1.632813 4.992188.882812 3.109375 3.554687 5.382812 6.765624 5.757812 30.96875 3.671875 54.296876 29.929688 54.300782 61.117188v.082031l-.007813.617188c0 .144531.003907.390624.007813.535156zm0 0"/></svg>