<svg height="482pt" viewBox="-15 0 482 482.07792" width="482pt" xmlns="http://www.w3.org/2000/svg"><path d="m440.445312 110.9375c-9.835937 4.046875-20.367187 6.121094-31 6.101562h-.191406c-43.722656 0-79.292968-34.117187-79.292968-76.089843-.03125-10.234375 2.113281-20.363281 6.289062-29.707031 1.324219-2.984376.699219-6.476563-1.578125-8.820313-2.277344-2.3398438-5.75-3.0625-8.769531-1.824219-15.390625 6.277344-28.855469 16.488282-39.054688 29.609375-45.898437-27.03125-103.605468-23.507812-145.878906 8.898438-20.878906 16.085937-36.46875 38.050781-44.753906 63.070312-55.527344 9.179688-96.230469 57.222657-96.167969 113.5v.277344.269531c0 .117188-.0078125.429688-.0078125.546875 0 51.324219 41.7539065 93.269531 93.0781255 93.269531h69.316406l-9.066406 79.246094c-.257813 2.238282.464843 4.484375 1.980468 6.15625 1.523438 1.679688 3.699219 2.628906 5.96875 2.597656h29.25l-4.417968 75.589844c-.203126 3.664063 2.105468 6.996094 5.605468 8.085938 3.5 1.09375 7.296875-.335938 9.207032-3.464844l82.972656-135.800781c1.507812-2.511719 1.566406-5.632813.152344-8.199219-1.40625-2.550781-4.066407-4.152344-6.980469-4.199219h-31.421875l13.105468-20h86.5c51.324219 0 93.078126-41.945312 93.078126-93.269531 0-.6875-.082032-1.375-.238282-2.042969-.414062-19.726562-7.992187-38.625-21.320312-53.171875 14.929687-9.769531 26.730468-23.632812 33.992187-39.933594 1.332031-2.992187.710938-6.492187-1.566406-8.84375-2.277344-2.355468-5.757813-3.085937-8.789063-1.851562zm-216.339843 231.070312c1.417969 2.53125 4.109375 4.078126 7.011719 4.03125h31.726562l-58.859375 96.445313 3.050781-52.078125c.125-2.1875-.664062-4.332031-2.179687-5.917969-1.511719-1.585937-3.617188-2.472656-5.808594-2.449219h-28.769531l8.265625-72h61.289062l-15.464843 24.078126c-1.566407 2.371093-1.667969 5.421874-.261719 7.890624zm198.046875-125.429687c0 .65625.066406 1.3125.199218 1.960937-.945312 41.6875-35.148437 75.5-77.054687 75.5h-252.171875c-42.355469 0-76.84375-34.535156-77.078125-76.839843.011719-.167969.015625-.253907.011719-.421875.007812-.25-.003906-.496094-.03125-.738282h.019531c0-51 37.511719-92.710937 87.253906-98.523437 3.226563-.414063 5.890625-2.71875 6.765625-5.855469 9.671875-34.105468 34.5625-61.832031 67.429688-75.121094 32.867187-13.289062 70.03125-10.644531 100.691406 7.15625-6.765625 12.851563-10.304688 27.160157-10.304688 41.683594 0 50.785156 42.75 92.09375 95.300782 92.09375 13.402344.007813 26.667968-2.730468 38.972656-8.050781 12.824219 12.328125 20.050781 29.367187 19.996094 47.15625zm-58.972656-55.109375c-43.726563 0-79.300782-34.140625-79.300782-76.101562 0-24.261719 11.953125-46.609376 31.5625-60.78125-1.003906 5.410156-1.503906 10.898437-1.492187 16.402343 0 50.78125 42.75 92.097657 95.277343 92.097657 5.664063.015624 11.324219-.464844 16.90625-1.429688-15.367187 18.988281-38.53125 29.957031-62.953124 29.8125zm0 0"/></svg>