<svg height="488pt" viewBox="-20 0 488 488.60001" width="488pt" xmlns="http://www.w3.org/2000/svg"><path d="m22.457031 375.621094c-4.140625-1.535156-8.746093.578125-10.277343 4.722656l-11.316407 30.546875c-1.070312 2.699219-.59375 5.761719 1.242188 8.011719 1.835937 2.246094 4.742187 3.324218 7.597656 2.8125 2.855469-.507813 5.214844-2.523438 6.160156-5.265625l11.324219-30.550781c1.53125-4.144532-.585938-8.746094-4.730469-10.277344zm0 0"/><path d="m92.609375 375.621094c-4.144531-1.535156-8.746094.578125-10.28125 4.722656l-11.3125 30.546875c-1.070313 2.699219-.597656 5.761719 1.238281 8.011719 1.835938 2.246094 4.746094 3.324218 7.601563 2.8125 2.855469-.507813 5.210937-2.523438 6.160156-5.265625l11.3125-30.550781c1.535156-4.140626-.578125-8.742188-4.71875-10.277344zm0 0"/><path d="m163.886719 375.621094c-4.144531-1.535156-8.746094.578125-10.28125 4.722656l-11.316407 30.546875c-1.066406 2.699219-.59375 5.761719 1.242188 8.011719 1.835938 2.246094 4.746094 3.324218 7.601562 2.8125 2.855469-.507813 5.210938-2.523438 6.15625-5.265625l11.316407-30.550781c1.535156-4.140626-.578125-8.742188-4.71875-10.277344zm0 0"/><path d="m234.039062 375.621094c-4.140624-1.535156-8.746093.578125-10.277343 4.722656l-11.316407 30.546875c-1.070312 2.699219-.59375 5.761719 1.242188 8.011719 1.835938 2.246094 4.742188 3.324218 7.597656 2.8125 2.859375-.507813 5.214844-2.523438 6.160156-5.265625l11.316407-30.550781c1.53125-4.140626-.582031-8.742188-4.722657-10.277344zm0 0"/><path d="m305.320312 375.621094c-4.140624-1.535156-8.746093.578125-10.277343 4.722656l-11.316407 30.546875c-1.066406 2.699219-.59375 5.761719 1.242188 8.011719 1.835938 2.246094 4.742188 3.324218 7.601562 2.8125 2.855469-.507813 5.210938-2.523438 6.15625-5.265625l11.320313-30.550781c1.53125-4.140626-.582031-8.746094-4.726563-10.277344zm0 0"/><path d="m375.472656 375.621094c-4.144531-1.535156-8.746094.578125-10.28125 4.722656l-11.316406 30.546875c-1.0625 2.695313-.582031 5.753906 1.25 8 1.835938 2.242187 4.738281 3.316406 7.59375 2.8125 2.851562-.507813 5.207031-2.515625 6.15625-5.253906l11.316406-30.550781c1.535156-4.140626-.578125-8.742188-4.71875-10.277344zm0 0"/><path d="m38.621094 442.386719c-4.144532-1.535157-8.746094.578125-10.28125 4.722656l-11.3125 30.550781c-1.066406 2.695313-.589844 5.757813 1.246094 8.003906 1.832031 2.242188 4.738281 3.320313 7.59375 2.8125 2.855468-.507812 5.210937-2.519531 6.160156-5.261718l11.316406-30.546875c1.535156-4.144531-.578125-8.746094-4.722656-10.28125zm0 0"/><path d="m108.769531 442.386719c-4.140625-1.535157-8.746093.582031-10.277343 4.722656l-11.316407 30.550781c-1.066406 2.695313-.589843 5.757813 1.246094 8.003906 1.835937 2.242188 4.742187 3.320313 7.597656 2.8125 2.851563-.507812 5.210938-2.519531 6.15625-5.261718l11.316407-30.546875c1.535156-4.144531-.578126-8.746094-4.722657-10.28125zm0 0"/><path d="m180.054688 442.386719c-4.144532-1.535157-8.746094.582031-10.28125 4.722656l-11.316407 30.550781c-1.066406 2.695313-.589843 5.757813 1.246094 8.003906 1.835937 2.242188 4.742187 3.320313 7.59375 2.8125 2.855469-.507812 5.210937-2.519531 6.160156-5.261718l11.316407-30.546875c1.535156-4.144531-.578126-8.746094-4.71875-10.28125zm0 0"/><path d="m250.203125 442.386719c-4.144531-1.535157-8.746094.578125-10.28125 4.722656l-11.3125 30.550781c-1.066406 2.695313-.589844 5.757813 1.246094 8.003906 1.832031 2.242188 4.738281 3.320313 7.59375 2.8125 2.855469-.507812 5.210937-2.519531 6.160156-5.261718l11.3125-30.546875c1.535156-4.144531-.578125-8.746094-4.71875-10.28125zm0 0"/><path d="m321.484375 442.386719c-4.140625-1.535157-8.746094.582031-10.277344 4.722656l-11.316406 30.550781c-1.066406 2.695313-.589844 5.757813 1.246094 8.003906 1.835937 2.242188 4.742187 3.320313 7.59375 2.8125 2.855469-.507812 5.210937-2.519531 6.160156-5.261718l11.316406-30.546875c1.535157-4.144531-.578125-8.746094-4.722656-10.28125zm0 0"/><path d="m391.636719 442.386719c-4.144531-1.535157-8.746094.578125-10.28125 4.722656l-11.316407 30.550781c-1.0625 2.695313-.585937 5.757813 1.246094 8.003906 1.835938 2.242188 4.742188 3.320313 7.597656 2.8125 2.851563-.507812 5.210938-2.519531 6.15625-5.261718l11.316407-30.546875c1.535156-4.144531-.578125-8.746094-4.71875-10.28125zm0 0"/><path d="m437.960938 110.957031c-9.890626 4.082031-20.492188 6.164063-31.191407 6.128907-43.726562 0-79.296875-34.140626-79.296875-76.113282-.03125-10.238281 2.113282-20.371094 6.292969-29.71875 1.332031-2.988281.707031-6.484375-1.570313-8.828125-2.277343-2.347656-5.757812-3.070312-8.78125-1.824219-13.992187 5.710938-26.421874 14.679688-36.253906 26.152344-32.394531-22.925781-73.746094-29.128906-111.441406-16.710937-37.699219 12.414062-67.269531 41.972656-79.703125 79.664062-53.046875 8.878907-91.890625 54.820313-91.828125 108.605469 0 .089844 0 .183594.003906.273438v.238281c-.003906.117187-.007812.175781-.007812.292969.058594 49.210937 39.957031 89.078124 89.167968 89.101562h60.035157l-2.953125 31.714844c-.207032 2.320312.53125 4.628906 2.054687 6.398437 1.484375 1.738281 3.625 2.785157 5.914063 2.886719h27.515625l-4.191407 71.5c-.140624 2.1875.644532 4.332031 2.164063 5.90625 1.519531 1.578125 3.632813 2.441406 5.820313 2.378906 2.800781-.035156 5.386718-1.519531 6.828124-3.917968l71.347657-116.867188h66.027343c49.207032-.027344 89.101563-39.890625 89.164063-89.097656 0-.632813-.078125-1.265625-.230469-1.878906-.265625-12.3125-3.453125-24.390626-9.300781-35.230469 15.292969-9.785157 27.382813-23.835938 34.773437-40.417969 1.320313-2.988281.691407-6.476562-1.589843-8.816406-2.277344-2.339844-5.75-3.058594-8.769531-1.816406zm-238.394532 258.429688 2.820313-48.226563c.128906-2.121094-.660157-4.195312-2.164063-5.695312-1.542968-1.527344-3.652344-2.34375-5.820312-2.246094h-27.214844l8.171875-88h60.09375l-17.847656 43.199219c-1.019531 2.425781-.738281 5.203125.746093 7.375 1.496094 2.1875 3.992188 3.472656 6.644532 3.425781h29.609375zm207.308594-170.210938c-.003906.558594.058594 1.117188.183594 1.664063-.984375 39.691406-33.4375 71.359375-73.140625 71.378906h-57.117188c.238281-1.6875-.097656-3.410156-.953125-4.886719-1.414062-2.53125-4.082031-4.101562-6.980468-4.113281h-31.917969l17.847656-43.195312c1.019531-2.425782.738281-5.203126-.746094-7.375-1.5-2.1875-3.996093-3.476563-6.648437-3.429688h-79.335938c-4.101562-.0625-7.566406 3.035156-7.964844 7.121094l-5.222656 55.878906h-61.527344c-40.210937-.019531-72.878906-32.472656-73.160156-72.683594.007813-.164062.011719-.351562.007813-.515625 0-.269531-.011719-.800781-.027344-.800781h.015625c-.148438-47.691406 35.539062-87.890625 82.910156-93.402344 3.210938-.363281 5.882813-2.628906 6.769532-5.738281 9.660156-34.066406 35.257812-61.324219 68.652343-73.109375s70.429688-6.628906 99.335938 13.832031c-8.152344 13.800781-12.453125 29.539063-12.457031 45.566407 0 50.785156 42.75 92.101562 95.300781 92.101562 13.308593.007812 26.484375-2.691406 38.714843-7.941406 4.921876 9.105468 7.488282 19.296875 7.460938 29.648437zm-46.179688-37.707031c-43.722656 0-79.300781-34.136719-79.300781-76.101562 0-24.265626 11.957031-46.609376 31.5625-60.78125-1.003906 5.410156-1.5 10.898437-1.488281 16.402343 0 50.78125 42.75 92.097657 95.277344 92.097657 5.664062 0 11.320312-.480469 16.90625-1.425782-15.367188 18.984375-38.53125 29.953125-62.957032 29.808594zm0 0"/></svg>