<svg height="464pt" viewBox="-9 0 464 464.89791" width="464pt" xmlns="http://www.w3.org/2000/svg"><path d="m43.464844 351.910156c-4.144532-1.535156-8.746094.578125-10.28125 4.722656l-11.316406 30.550782c-1.0625 2.695312-.585938 5.757812 1.246093 8.003906 1.835938 2.242188 4.742188 3.320312 7.597657 2.8125 2.851562-.507812 5.210937-2.519531 6.15625-5.261719l11.316406-30.550781c1.535156-4.140625-.578125-8.742188-4.71875-10.277344zm0 0"/><path d="m113.613281 351.910156c-4.140625-1.535156-8.746093.578125-10.28125 4.722656l-11.3125 30.550782c-1.066406 2.695312-.589843 5.757812 1.246094 8.003906 1.832031 2.242188 4.738281 3.320312 7.59375 2.8125s5.210937-2.519531 6.160156-5.261719l11.3125-30.550781c1.535157-4.140625-.578125-8.742188-4.71875-10.277344zm0 0"/><path d="m184.894531 351.910156c-4.140625-1.535156-8.746093.578125-10.277343 4.722656l-11.316407 30.550782c-1.066406 2.695312-.589843 5.757812 1.246094 8.003906 1.835937 2.242188 4.742187 3.320312 7.59375 2.8125 2.855469-.507812 5.210937-2.519531 6.160156-5.261719l11.316407-30.550781c1.535156-4.140625-.578126-8.742188-4.722657-10.277344zm0 0"/><path d="m255.046875 351.910156c-4.144531-1.535156-8.746094.578125-10.28125 4.722656l-11.316406 30.550782c-1.0625 2.695312-.585938 5.757812 1.246093 8.003906 1.835938 2.242188 4.742188 3.320312 7.597657 2.8125 2.851562-.507812 5.210937-2.519531 6.15625-5.261719l11.316406-30.550781c1.535156-4.140625-.578125-8.742188-4.71875-10.277344zm0 0"/><path d="m326.328125 351.910156c-4.144531-1.535156-8.746094.578125-10.28125 4.722656l-11.3125 30.550782c-1.066406 2.695312-.589844 5.757812 1.242187 8.003906 1.835938 2.242188 4.742188 3.320312 7.597657 2.8125s5.210937-2.519531 6.160156-5.261719l11.3125-30.550781c1.535156-4.140625-.578125-8.742188-4.71875-10.277344zm0 0"/><path d="m396.476562 351.910156c-4.144531-1.535156-8.746093.578125-10.28125 4.722656l-11.3125 30.550782c-1.066406 2.695312-.589843 5.757812 1.242188 8.003906 1.835938 2.242188 4.742188 3.320312 7.597656 2.8125 2.855469-.507812 5.210938-2.519531 6.160156-5.261719l11.3125-30.550781c1.535157-4.140625-.578124-8.742188-4.71875-10.277344zm0 0"/><path d="m59.628906 418.675781c-4.144531-1.53125-8.746094.582031-10.28125 4.722657l-11.316406 30.550781c-1.066406 2.699219-.59375 5.761719 1.242188 8.007812 1.835937 2.25 4.742187 3.324219 7.601562 2.816407 2.855469-.507813 5.210938-2.523438 6.15625-5.265626l11.316406-30.550781c1.535156-4.140625-.578125-8.742187-4.71875-10.28125zm0 0"/><path d="m129.777344 418.675781c-4.144532-1.535156-8.746094.582031-10.28125 4.722657l-11.3125 30.550781c-1.070313 2.699219-.59375 5.761719 1.242187 8.007812 1.835938 2.25 4.742188 3.324219 7.597657 2.816407 2.855468-.507813 5.214843-2.523438 6.160156-5.265626l11.3125-30.550781c1.535156-4.140625-.578125-8.742187-4.71875-10.28125zm0 0"/><path d="m201.058594 418.675781c-4.144532-1.53125-8.746094.582031-10.28125 4.722657l-11.3125 30.550781c-1.070313 2.699219-.59375 5.761719 1.242187 8.007812 1.832031 2.25 4.742188 3.324219 7.597657 2.816407 2.855468-.507813 5.214843-2.523438 6.160156-5.265626l11.3125-30.550781c1.535156-4.140625-.578125-8.742187-4.71875-10.28125zm0 0"/><path d="m271.210938 418.675781c-4.144532-1.535156-8.746094.582031-10.28125 4.722657l-11.316407 30.550781c-1.066406 2.699219-.59375 5.761719 1.242188 8.007812 1.835937 2.25 4.746093 3.324219 7.601562 2.816407 2.855469-.507813 5.210938-2.523438 6.15625-5.265626l11.316407-30.550781c1.535156-4.140625-.578126-8.742187-4.71875-10.28125zm0 0"/><path d="m342.492188 418.675781c-4.144532-1.53125-8.746094.582031-10.28125 4.722657l-11.316407 30.550781c-1.066406 2.699219-.59375 5.761719 1.242188 8.007812 1.835937 2.25 4.742187 3.324219 7.601562 2.816407 2.855469-.507813 5.210938-2.523438 6.15625-5.265626l11.316407-30.550781c1.535156-4.140625-.578126-8.742187-4.71875-10.28125zm0 0"/><path d="m412.640625 418.675781c-4.140625-1.535156-8.746094.582031-10.28125 4.722657l-11.3125 30.550781c-1.070313 2.699219-.59375 5.761719 1.242187 8.007812 1.835938 2.25 4.742188 3.324219 7.597657 2.816407 2.859375-.507813 5.214843-2.523438 6.160156-5.265626l11.3125-30.550781c1.535156-4.140625-.578125-8.742187-4.71875-10.28125zm0 0"/><path d="m435.851562 111.078125c-9.820312 4.101563-20.355468 6.234375-31 6.273437h-.1875c-43.722656 0-79.296874-34.285156-79.296874-76.261718-.027344-10.261719 2.113281-20.414063 6.292968-29.789063 1.335938-2.992187.71875-6.496093-1.558594-8.851562-2.273437-2.3593752-5.757812-3.09375-8.792968-1.859375-18.960938 7.703125-34.898438 21.371094-45.398438 38.9375-17.246094-7.96875-36.015625-12.101563-55.015625-12.109375-28.765625-.089844-56.746093 9.402343-79.515625 26.980469-20.882812 16.082031-36.46875 38.046874-44.757812 63.066406-55.523438 9.179687-96.226563 57.222656-96.164063 113.5v.277344.265624c-.007812.121094-.007812.441407-.007812.5625 0 51.324219 41.753906 93.28125 93.074219 93.28125h252.175781c51.324219 0 93.078125-41.960937 93.078125-93.28125 0-.691406-.078125-1.378906-.238282-2.050781-.585937-25.453125-13.035156-49.171875-33.648437-64.113281 18.320313-9.761719 32.859375-25.355469 41.320313-44.3125 1.320312-2.976562.683593-6.460938-1.601563-8.78125s-5.757813-3.007812-8.757813-1.734375zm-13.289062 120.789063c0 .664062.066406 1.324218.199219 1.972656-.949219 41.683594-35.152344 75.511718-77.0625 75.511718h-252.167969c-42.355469 0-76.84375-34.546874-77.074219-76.851562.011719-.167969.011719-.246094.011719-.417969.003906-.246093-.007812-.488281-.03125-.730469h.019531c0-51 37.507813-92.722656 87.25-98.535156 3.230469-.417968 5.894531-2.722656 6.769531-5.859375 9.167969-32.277343 31.988282-58.929687 62.464844-72.964843 30.476563-14.03125 65.566406-14.039063 96.050782-.023438-3.769532 10.035156-5.699219 20.664062-5.703126 31.382812 0 50.785157 42.75 92.09375 95.300782 92.09375 9.464844.003907 18.882812-1.359374 27.957031-4.042968 22.117187 11.085937 36.0625 33.726562 36.015625 58.464844zm-63.976562-70.425782c-43.722657 0-79.300782-34.140625-79.300782-76.101562 0-24.265625 11.957032-46.613282 31.566406-60.78125-1.003906 5.410156-1.503906 10.898437-1.492187 16.398437 0 50.785157 42.75 92.101563 95.277344 92.101563 5.664062.019531 11.324219-.457032 16.90625-1.429688-15.367188 18.984375-38.53125 29.953125-62.957031 29.8125zm0 0"/></svg>