<svg height="499pt" viewBox="-21 0 499 499.32652" width="499pt" xmlns="http://www.w3.org/2000/svg"><path d="m323.238281 412.578125-36.921875-51.640625c-1.507812-2.082031-3.933594-3.304688-6.503906-3.273438-2.570312-.027343-4.992188 1.1875-6.5 3.265626l-12.320312 17.152343-35.152344-49.152343c-1.507813-2.082032-3.933594-3.296876-6.5-3.265626-2.566406-.039062-4.988282 1.167969-6.5 3.238282l-35.222656 49.152344-12.246094-17.09375c-1.503906-2.085938-3.929688-3.316407-6.503906-3.296876h-.007813c-2.570313-.03125-4.992187 1.1875-6.503906 3.265626l-36.921875 51.539062c-.148438.207031-.285156.398438-.414063.625-8.269531 14.261719-8.148437 31.542969.320313 46.242188 8.949218 15.609374 25.53125 25.269531 43.519531 25.363281 5.308594.007812 10.582031-.84375 15.617187-2.523438 25.539063 22.867188 64.1875 22.867188 89.726563 0 5.03125 1.675781 10.296875 2.523438 15.597656 2.519531 18.019531-.09375 34.621094-9.785156 43.566407-25.425781 8.429687-14.671875 8.53125-31.898437.265624-46.070312-.117187-.210938-.253906-.417969-.394531-.621094zm-194.035156 38.761719c-5.597656-9.71875-5.78125-20.601563-.523437-29.925782l30.171874-42.148437 8.910157 12.484375-7.359375 10.28125c-.148438.207031-.285156.421875-.414063.644531-11.132812 19.199219-10.960937 42.492188.460938 62.3125.6875 1.191407 1.410156 2.355469 2.164062 3.5-1.246093.140625-2.5.210938-3.753906.210938-12.273437-.089844-23.570313-6.703125-29.65625-17.359375zm90.128906 31.988281c-18.625-.125-35.777343-10.15625-45.019531-26.328125-8.59375-14.914062-8.828125-31.648438-.667969-45.980469l45.679688-63.808593 45.699219 64.011718c8.144531 14.210938 7.921874 30.855469-.617188 45.71875-9.238281 16.207032-26.417969 26.265625-45.074219 26.386719zm90.160157-32.027344c-6.082032 10.679688-17.398438 17.308594-29.691407 17.394531-1.246093 0-2.496093-.070312-3.734375-.207031.765625-1.167969 1.507813-2.355469 2.207032-3.578125 11.367187-19.777344 11.511718-42.976562.390624-62.050781-.121093-.210937-.257812-.417969-.398437-.621094l-7.449219-10.429687 8.976563-12.542969 30.199219 42.296875c5.242187 9.234375 5.070312 20.054688-.5 29.738281zm0 0"/><path d="m445.570312 110.957031c-9.898437 4.0625-20.496093 6.144531-31.195312 6.125-43.722656 0-79.292969-34.136719-79.292969-76.109375-.03125-10.242187 2.113281-20.371094 6.289063-29.71875 1.332031-2.988281.707031-6.484375-1.570313-8.828125-2.277343-2.3437498-5.753906-3.066406-8.777343-1.824219-16.414063 6.6875-30.617188 17.847657-40.996094 32.210938-46.246094-28.972656-105.625-26.167969-148.933594 7.039062-20.882812 16.082032-36.46875 38.046876-44.753906 63.066407-55.527344 9.179687-96.230469 57.222656-96.167969 113.5v.277343.265626c0 .121093-.007813.371093-.007813.492187 0 51.324219 41.753907 93.207031 93.078126 93.207031h252.175781c51.324219 0 93.078125-41.882812 93.078125-93.207031 0-.679687-.082032-1.355469-.242188-2.015625-.433594-19.003906-7.496094-37.261719-19.96875-51.605469 16.621094-9.828125 29.777344-24.582031 37.644532-42.222656 1.324218-2.988281.699218-6.480469-1.582032-8.828125-2.277344-2.34375-5.753906-3.066406-8.777344-1.828125zm-23.292968 106.363281c0 .640626.066406 1.277344.199218 1.902344-.996093 41.875-35.171874 75.332032-77.058593 75.441406h-252.167969c-42.40625-.113281-76.804688-34.375-77.078125-76.78125.011719-.167968.015625-.285156.011719-.453124.007812-.257813-.003906-.511719-.03125-.765626h.019531c0-50 37.511719-92.652343 87.253906-98.464843 3.222657-.402344 5.890625-2.695313 6.765625-5.824219 14.136719-49.289062 59.136719-83.3125 110.414063-83.476562 21.683593-.050782 42.933593 6.082031 61.25 17.6875-5.824219 12.101562-8.847657 25.359374-8.847657 38.789062 0 50.785156 42.75 92.097656 95.300782 92.097656 11.925781.007813 23.75-2.160156 34.898437-6.390625 12.238281 12.273438 19.097657 28.90625 19.070313 46.238281zm-53.972656-55.859374c-43.722657 0-79.300782-34.136719-79.300782-76.097657 0-24.265625 11.953125-46.613281 31.5625-60.78125-1.003906 5.335938-1.503906 10.757813-1.488281 16.1875.003906 50.792969 42.75 91.894531 95.277344 91.894531h.226562c5.585938.070313 11.167969-.335937 16.679688-1.21875-15.34375 19.039063-38.503907 30.082032-62.957031 30.015626zm0 0"/></svg>