<svg height="456pt" viewBox="-5 0 456 456.98208" width="456pt" xmlns="http://www.w3.org/2000/svg"><path d="m235.921875 362.816406c-3.125-3.121094-8.191406-3.121094-11.316406 0l-4.949219 4.953125-4.949219-4.953125c-3.132812-3.0625-8.152343-3.035156-11.25.0625-3.097656 3.101563-3.128906 8.117188-.0625 11.25l4.949219 4.953125-4.242188 4.242188c-3.125 3.125-3.125 8.191406.003907 11.316406 3.125 3.125 8.191406 3.121094 11.316406-.003906l4.242187-4.242188 4.242188 4.242188c3.125 3.125 8.191406 3.125 11.316406 0 3.121094-3.125 3.121094-8.191407 0-11.3125l-4.246094-4.242188 4.953126-4.953125c3.121093-3.125 3.117187-8.1875-.007813-11.3125zm0 0"/><path d="m315.921875 362.816406c-3.125-3.121094-8.191406-3.121094-11.316406 0l-4.949219 4.953125-4.949219-4.953125c-3.132812-3.0625-8.152343-3.035156-11.25.0625-3.097656 3.101563-3.128906 8.117188-.0625 11.25l4.949219 4.953125-4.242188 4.242188c-3.125 3.125-3.125 8.191406.003907 11.316406 3.125 3.125 8.191406 3.121094 11.316406-.003906l4.242187-4.242188 4.242188 4.242188c3.125 3.125 8.191406 3.125 11.316406 0 3.121094-3.125 3.121094-8.191407 0-11.3125l-4.246094-4.242188 4.953126-4.953125c3.121093-3.125 3.117187-8.1875-.007813-11.3125zm0 0"/><path d="m395.921875 362.816406c-3.125-3.121094-8.191406-3.121094-11.316406 0l-4.949219 4.953125-4.949219-4.953125c-3.132812-3.0625-8.152343-3.035156-11.25.0625-3.097656 3.101563-3.128906 8.117188-.0625 11.25l4.949219 4.953125-4.242188 4.242188c-3.125 3.125-3.125 8.191406.003907 11.316406 3.125 3.125 8.191406 3.121094 11.316406-.003906l4.242187-4.242188 4.242188 4.242188c3.125 3.125 8.191406 3.125 11.316406 0 3.121094-3.125 3.121094-8.191407 0-11.3125l-4.246094-4.242188 4.953126-4.953125c3.121093-3.125 3.117187-8.1875-.007813-11.3125zm0 0"/><path d="m155.921875 362.816406c-3.125-3.121094-8.191406-3.121094-11.316406 0l-4.949219 4.953125-4.949219-4.953125c-3.132812-3.0625-8.152343-3.035156-11.25.0625-3.097656 3.101563-3.128906 8.117188-.0625 11.25l4.949219 4.953125-4.242188 4.242188c-3.125 3.125-3.125 8.191406.003907 11.316406 3.125 3.125 8.191406 3.121094 11.316406-.003906l4.242187-4.242188 4.242188 4.242188c3.125 3.125 8.191406 3.125 11.316406 0 3.121094-3.125 3.121094-8.191407 0-11.3125l-4.246094-4.242188 4.953126-4.953125c3.121093-3.125 3.117187-8.1875-.007813-11.3125zm0 0"/><path d="m75.921875 362.816406c-3.125-3.121094-8.191406-3.121094-11.316406 0l-4.949219 4.953125-4.949219-4.953125c-3.132812-3.0625-8.152343-3.035156-11.25.0625-3.097656 3.101563-3.128906 8.117188-.0625 11.25l4.949219 4.953125-4.242188 4.242188c-3.125 3.125-3.125 8.191406.003907 11.316406 3.125 3.125 8.191406 3.121094 11.316406-.003906l4.238281-4.246094 4.242188 4.242187c2.019531 2.042969 4.972656 2.847657 7.746094 2.113282 2.773437-.738282 4.941406-2.902344 5.679687-5.675782.738281-2.773437-.066406-5.730468-2.105469-7.746093l-4.246094-4.242188 4.953126-4.953125c3.121093-3.125 3.117187-8.1875-.007813-11.3125zm0 0"/><path d="m275.921875 422.816406c-3.125-3.121094-8.191406-3.121094-11.316406 0l-4.949219 4.953125-4.949219-4.953125c-3.132812-3.0625-8.152343-3.035156-11.25.0625-3.097656 3.101563-3.128906 8.117188-.0625 11.25l4.949219 4.953125-4.242188 4.242188c-3.125 3.125-3.125 8.191406.003907 11.316406 3.125 3.125 8.191406 3.121094 11.316406-.003906l4.242187-4.242188 4.242188 4.242188c3.125 3.125 8.191406 3.125 11.316406 0 3.121094-3.125 3.121094-8.191407 0-11.3125l-4.246094-4.242188 4.953126-4.953125c3.121093-3.125 3.117187-8.1875-.007813-11.3125zm0 0"/><path d="m355.921875 422.816406c-3.125-3.121094-8.191406-3.121094-11.316406 0l-4.949219 4.953125-4.949219-4.953125c-3.132812-3.0625-8.152343-3.035156-11.25.0625-3.097656 3.101563-3.128906 8.117188-.0625 11.25l4.949219 4.953125-4.242188 4.242188c-3.125 3.125-3.125 8.191406.003907 11.316406 3.125 3.125 8.191406 3.121094 11.316406-.003906l4.242187-4.242188 4.242188 4.242188c3.125 3.125 8.191406 3.125 11.316406 0 3.121094-3.125 3.121094-8.191407 0-11.3125l-4.246094-4.242188 4.953126-4.953125c3.121093-3.125 3.117187-8.1875-.007813-11.3125zm0 0"/><path d="m195.921875 422.816406c-3.125-3.121094-8.191406-3.121094-11.316406 0l-4.949219 4.953125-4.949219-4.953125c-3.132812-3.0625-8.152343-3.035156-11.25.0625-3.097656 3.101563-3.128906 8.117188-.0625 11.25l4.949219 4.953125-4.242188 4.242188c-3.125 3.125-3.125 8.191406.003907 11.316406 3.125 3.125 8.191406 3.121094 11.316406-.003906l4.242187-4.242188 4.242188 4.242188c3.125 3.125 8.191406 3.125 11.316406 0 3.121094-3.125 3.121094-8.191407 0-11.3125l-4.246094-4.242188 4.953126-4.953125c3.121093-3.125 3.117187-8.1875-.007813-11.3125zm0 0"/><path d="m115.921875 422.816406c-3.125-3.121094-8.191406-3.121094-11.316406 0l-4.949219 4.953125-4.949219-4.953125c-3.132812-3.0625-8.152343-3.035156-11.25.0625-3.097656 3.101563-3.128906 8.117188-.0625 11.25l4.949219 4.953125-4.242188 4.242188c-3.125 3.125-3.125 8.191406.003907 11.316406 3.125 3.125 8.191406 3.121094 11.316406-.003906l4.242187-4.242188 4.242188 4.242188c3.125 3.125 8.191406 3.125 11.316406 0 3.121094-3.125 3.121094-8.191407 0-11.3125l-4.246094-4.242188 4.953126-4.953125c3.121093-3.125 3.117187-8.1875-.007813-11.3125zm0 0"/><path d="m435.898438 110.957031c-9.898438 4.066407-20.496094 6.148438-31.195313 6.128907-43.722656 0-79.292969-34.140626-79.292969-76.113282-.03125-10.242187 2.113282-20.371094 6.289063-29.71875 1.332031-2.988281.707031-6.484375-1.570313-8.828125-2.277344-2.347656-5.753906-3.066406-8.777344-1.824219-21.238281 8.601563-38.59375 24.679688-48.796874 45.199219-43.460938-18.628906-93.59375-12.359375-131.132813 16.398438-20.882813 16.082031-36.46875 38.046875-44.753906 63.066406-55.527344 9.179687-96.230469 57.222656-96.167969 113.5v.277344.269531c-.007812.117188-.007812.109375-.007812.226562.066406 51.359376 41.726562 92.957032 93.085937 92.949219h252.167969c51.355468.003907 93.007812-41.59375 93.074218-92.949219 0-.632812-.078124-1.265624-.238281-1.882812-.53125-28.347656-15.882812-54.34375-40.449219-68.5 21.414063-9.300781 38.578126-26.269531 48.121094-47.574219 1.324219-2.988281.699219-6.480469-1.582031-8.820312-2.28125-2.335938-5.757813-3.050781-8.777344-1.804688zm-13.292969 128.710938c0 .554687.066406 1.105469.199219 1.640625-1.019532 41.824218-35.222657 75.195312-77.058594 75.179687h-252.167969c-42.359375.015625-76.78125-34.164062-77.078125-76.519531.011719-.167969.015625-.410156.011719-.582031 0-.28125-.011719.101562-.03125-.898438h.019531c.019531-50.105469 37.496094-92.285156 87.253906-98.203125 3.203125-.34375 5.878906-2.597656 6.765625-5.695312 14.144531-49.273438 59.148438-83.273438 110.414063-83.40625 15.785156-.042969 31.40625 3.203125 45.871094 9.535156-2.300782 8.011719-3.46875 16.304688-3.46875 24.640625 0 50.785156 42.75 92.097656 95.300781 92.097656 4.941406 0 9.875-.371093 14.757812-1.109375 29.066407 7.199219 49.410157 33.378906 49.210938 63.320313zm-63.972657-78.199219c-43.726562 0-79.300781-34.140625-79.300781-76.101562 0-24.261719 11.953125-46.609376 31.5625-60.78125-1.003906 5.410156-1.503906 10.902343-1.492187 16.402343 0 50.785157 42.75 92.097657 95.277344 92.097657 5.664062 0 11.320312-.480469 16.90625-1.429688-15.367188 18.984375-38.53125 29.953125-62.953126 29.8125zm0 0"/></svg>