<svg height="446pt" viewBox="0 -10 446.4525 446" width="446pt" xmlns="http://www.w3.org/2000/svg"><path d="m435.40625 111.128906c-9.835938 4.035156-20.371094 6.09375-31 6.058594h-.191406c-43.722656 0-79.292969-34.070312-79.292969-76.042969-.03125-10.230469 2.113281-20.347656 6.292969-29.6875 1.324218-2.984375.699218-6.476562-1.578125-8.816406-2.28125-2.339844-5.753907-3.054687-8.773438-1.808594-18.519531 7.53125-34.167969 20.753907-44.679687 37.757813-17.441406-8.191406-36.472656-12.4375-55.742188-12.441406-28.765625-.089844-56.742187 9.402343-79.511718 26.976562-20.878907 16.085938-36.46875 38.050781-44.753907 63.070312-55.523437 9.179688-96.2304685 57.222657-96.1679685 113.5v.277344.265625c-.00390625.039063-.0078125.078125-.0078125.117188.078125 51.335937 41.75 92.894531 93.085938 92.832031h41.691406l-13.46875 13.941406 11.40625 11.101563 24.5-25.042969h41.734375l-28.621094 28.859375-36.210937-.179687-.132813 16.058593 20.480469.199219-19.421875 19.4375 11.316406 11.328125 19.421875-19.417969.171875 20.480469 16-.132813-.300781-36.210937 28.578125-28.585937v41.734374l-24.882813 24.46875 11.21875 11.40625 13.664063-13.433593v26.988281h16v-28.839844l15.542969 15.285156 11.21875-11.40625-26.761719-26.316406v-41.765625l30.460937 30.460938-.300781 36.210937 16 .136719.171875-20.480469 19.417969 19.417969 11.3125-11.316406-16.292969-16.285157-3.128906-3.128906 20.480468-.171875-.132812-16-36.214844.058594-28.613281-28.859375h41.738281l24.5 25.160156 11.410156-11.339844-13.476562-13.820312h41.691406c51.332032.058594 93-41.5 93.074219-92.832031.003906-.617188-.078125-1.230469-.238281-1.824219-.425782-24.941406-12.402344-48.269531-32.417969-63.152344 17.75-9.773437 31.828125-25.070312 40.09375-43.574218 1.324219-2.992188.703125-6.488282-1.578125-8.835938-2.277344-2.347656-5.753906-3.074219-8.78125-1.839844zm-13.292969 119.46875c0 .515625.070313 1.027344.199219 1.527344-1.027344 41.800781-35.246094 75.128906-77.058594 75.0625h-42.992187l14.769531-15.019531-11.402344-11.21875-25.804687 26.238281h-41.757813l29.9375-29.941406 36.214844.300781.132812-16-20.480468-.171875 3.128906-3.128906 16.292969-16.289063-11.3125-11.316406-19.421875 19.421875-.171875-20.480469-16 .132813.300781 36.214844-30.457031 30.46875v-41.769532l26.761719-26.3125-11.21875-11.410156-15.542969 15.28125v-30h-16v28.15625l-13.664063-13.4375-11.21875 11.410156 24.882813 24.464844v41.734375l-28.582031-28.582031.300781-36.210938-16-.136718-.171875 20.480468-19.421875-19.417968-11.3125 11.3125 19.417969 19.421874-20.476563.171876.132813 16 36.210937-.300782 29.945313 29.933594h-41.757813l-25.796875-26.238281-11.410156 11.21875 14.769531 15.019531h-42.992187c-42.332032.066406-76.769532-34.066406-77.074219-76.398438.007812-.167968.011719.027344.011719-.140624.011718-.152344 0-.304688-.035157-.457032h.019531c0-51 37.511719-92.773437 87.253907-98.585937 3.230469-.429688 5.894531-2.746094 6.765625-5.886719 9.191406-32.367188 32.113281-59.082031 62.707031-73.085938 30.597656-14.003906 65.796875-13.890624 96.300781.308594-4.089844 10.410156-6.191406 21.496094-6.191406 32.679688 0 50.785156 42.75 92.09375 95.300781 92.09375 10.113281 0 20.164063-1.558594 29.800781-4.621094 21.1875 11.332031 34.347657 33.476562 34.167969 57.503906zm-63.972656-68.890625c-43.722656 0-79.300781-34.136719-79.300781-76.101562 0-24.265625 11.957031-46.609375 31.5625-60.78125-1.003906 5.386719-1.5 10.855469-1.488282 16.332031 0 50.785156 42.746094 92.03125 95.273438 92.03125h.226562c5.589844.027344 11.171876-.429688 16.679688-1.359375-15.355469 19.003906-38.519531 29.996094-62.953125 29.878906zm0 0"/></svg>