<svg height="472pt" viewBox="0 -21 472.07506 472" width="472pt" xmlns="http://www.w3.org/2000/svg"><path d="m102.035156 168.867188c-4.417968 0-8 3.582031-8 8 0 4.417968 3.582032 8 8 8h167c4.421875 0 8-3.582032 8-8 0-4.417969-3.578125-8-8-8zm0 0"/><path d="m253.035156 238.867188c4.421875 0 8-3.582032 8-8 0-4.417969-3.578125-8-8-8h-177c-4.417968 0-8 3.582031-8 8 0 4.417968 3.582032 8 8 8zm0 0"/><path d="m140.035156 275.867188c-4.417968 0-8 3.582031-8 8 0 4.417968 3.582032 8 8 8h105c4.421875 0 8-3.582032 8-8 0-4.417969-3.578125-8-8-8zm0 0"/><path d="m221.035156 344.867188c4.421875 0 8-3.582032 8-8 0-4.417969-3.578125-8-8-8h-53c-4.417968 0-8 3.582031-8 8 0 4.417968 3.582032 8 8 8zm0 0"/><path d="m461.027344 110.882812c-9.839844 4.011719-20.371094 6.042969-31 5.984376h-.191406c-43.722657 0-79.292969-34-79.292969-75.972657-.03125-10.214843 2.117187-20.320312 6.292969-29.644531 1.324218-2.984375.699218-6.472656-1.582032-8.808594-2.28125-2.335937-5.753906-3.046875-8.769531-1.792968-35.238281 14.488281-58.011719 47.960937-58.011719 84.96875 0 1.691406.050782 3.246093.144532 5.246093h-280.617188c-4.417969 0-8 3.582031-8 8s3.582031 8 8 8h282.984375c.859375 3 1.929687 6.628907 3.199219 10h-220.148438c-4.417968 0-8 3.582031-8 8s3.582032 8 8 8h228.070313c2.148437 3.523438 4.578125 6.867188 7.265625 10h-245.1875c-18.777344 0-34 15.222657-34 34 0 18.777344 15.222656 34 34 34h226.238281c10.214844 0 18.5 8.285157 18.5 18.5 0 10.21875-8.285156 18.5-18.5 18.5h-188.785156c-18.777344 0-34 15.222657-34 34 0 18.777344 15.222656 34 34 34h158.816406c10.21875 0 18.5 8.285157 18.5 18.5 0 10.21875-8.28125 18.5-18.5 18.5h-83.152344c-18.863281-.070312-34.207031 15.171875-34.265625 34.035157v34.765624c0 4.421876 3.582032 8 8 8 4.421875 0 8-3.578124 8-8v-34.765624c.023438-4.816407 1.964844-9.425782 5.390625-12.808594 3.429688-3.382813 8.0625-5.261719 12.875-5.222656h83.152344c19.054687 0 34.5-15.449219 34.5-34.5 0-19.054688-15.445313-34.5-34.5-34.5h-158.816406c-9.941407 0-18-8.058594-18-18 0-9.941407 8.058593-18 18-18h188.785156c19.050781 0 34.5-15.449219 34.5-34.5 0-19.054688-15.449219-34.5-34.5-34.5h-226.238281c-9.941406 0-18-8.058594-18-18 0-9.941407 8.058594-18 18-18h262.207031c15.972656 12 35.847656 18.640624 57.375 18.640624 38.1875 0 72.582031-21.917968 87.621094-55.859374 1.328125-3.007813.703125-6.519532-1.582031-8.886719-2.265626-2.359375-5.738282-3.101563-8.777344-1.878907zm-77.261719 50.652344c-43.726563 0-79.296875-34.140625-79.296875-76.101562 0-24.265625 11.957031-46.609375 31.5625-60.78125-1.003906 5.410156-1.503906 10.898437-1.492188 16.402344 0 50.78125 42.75 92.097656 95.277344 92.097656 5.667969.007812 11.324219-.46875 16.90625-1.429688-15.367187 18.988282-38.53125 29.957032-62.957031 29.8125zm0 0"/></svg>