<svg height="452pt" viewBox="-8 0 452 452.98081" width="452pt" xmlns="http://www.w3.org/2000/svg"><path d="m146.84375 271.914062c58.679688 0 111.511719-33.664062 134.601562-85.769531 1.320313-2.988281.691407-6.480469-1.582031-8.824219-2.277343-2.34375-5.75-3.070312-8.777343-1.839843-16.144532 6.65625-33.445313 10.070312-50.910157 10.042969h-.308593c-71.878907 0-130.355469-56.183594-130.355469-125.28125-.050781-16.882813 3.488281-33.585938 10.375-49 1.324219-2.984376.699219-6.476563-1.578125-8.820313-2.277344-2.3398438-5.75-3.0625-8.769532-1.824219-54.09375 22.242188-89.046874 73.277344-89.046874 130.023438 0 77.910156 65.652343 141.292968 146.351562 141.292968zm-68.476562-247.917968c-3.257813 11.820312-4.890626 24.023437-4.855469 36.285156 0 77.90625 65.652343 141.289062 146.335937 141.289062 12.707032.0625 25.371094-1.523437 37.671875-4.714843-23.550781 36.398437-65.121093 59.058593-110.675781 59.058593-71.875 0-130.351562-56.207031-130.351562-125.292968 0-43.929688 23.757812-84.035156 61.875-106.625zm0 0"/><path d="m401.601562 296.222656c-4.417968 0-8 3.582032-8 8 0 4.417969 3.582032 8 8 8 10.429688.265625 18.726563 8.832032 18.664063 19.265625-.066406 10.429688-8.464844 18.894531-18.898437 19.035157h-375.910157c-4.417969 0-8 3.582031-8 8 0 4.417968 3.582031 8 8 8h375.910157c19.242187-.179688 34.761718-15.792969 34.824218-35.035157.066406-19.242187-15.351562-34.957031-34.589844-35.265625zm0 0"/><path d="m271.921875 318.523438h-246.464844c-4.417969 0-8 3.582031-8 8 0 4.417968 3.582031 8 8 8h246.464844c14.6875-.101563 26.535156-12.042969 26.523437-26.730469-.015624-14.6875-11.882812-26.605469-26.570312-26.683594-4.417969 0-8 3.582031-8 8s3.582031 8 8 8c5.875.042969 10.617188 4.808594 10.628906 10.683594.011719 5.875-4.707031 10.660156-10.582031 10.730469zm0 0"/><path d="m331.246094 383.523438h-305.789063c-4.417969 0-8 3.582031-8 8 0 4.417968 3.582031 8 8 8h305.789063c10.4375-.085938 18.976562 8.289062 19.089844 18.726562.046874 4.996094-1.921876 9.796875-5.460938 13.320312-3.539062 3.523438-8.34375 5.472657-13.339844 5.410157-4.417968 0-8 3.582031-8 8s3.582032 8 8 8c12.460938.023437 23.976563-6.628907 30.183594-17.433594 6.207031-10.800781 6.148438-24.101563-.148438-34.851563-6.300781-10.75-17.875-17.304687-30.332031-17.171874zm0 0"/></svg>