<svg height="484pt" viewBox="-31 0 484 484.84554" width="484pt" xmlns="http://www.w3.org/2000/svg"><path d="m93.414062 284.335938h60.035157l-2.953125 31.773437c-.210938 2.316406.53125 4.617187 2.054687 6.375 1.488281 1.726563 3.628907 2.761719 5.914063 2.851563h27.519531l-4.195313 71.558593c-.136718 2.1875.648438 4.335938 2.167969 5.917969 1.515625 1.585938 3.628907 2.460938 5.820313 2.414062 2.808594-.058593 5.390625-1.558593 6.828125-3.972656l71.34375-116.917968h66.035156c49.195313 0 89.097656-39.84375 89.160156-89.042969.003907-.621094-.074219-1.242188-.226562-1.847657-.882813-42.195312-35.351563-75.933593-77.554688-75.910156-1.808593 0-3.671875.03125-5.566406.113282-3.582031-59.925782-49.222656-108.859376-108.753906-116.601563-59.53125-7.746094-116.171875 27.886719-134.964844 84.902344-53.042969 8.878906-91.886719 54.816406-91.828125 108.597656 0 .089844 0 .179687.007812.269531v.25c-.007812.113282-.011718.109375-.011718.226563.066406 49.195312 39.96875 89.046875 89.167968 89.042969zm106.214844 81.226562 2.820313-48.199219c.125-2.132812-.660157-4.21875-2.167969-5.738281-1.535156-1.539062-3.644531-2.371094-5.816406-2.289062h-27.222656l8.175781-88h60.09375l-17.851563 43.261718c-1.019531 2.414063-.734375 5.183594.746094 7.34375 1.503906 2.179688 4.003906 3.457032 6.648438 3.398438h29.613281zm-179.378906-171.226562c-.144531-47.679688 35.546875-87.863282 82.910156-93.34375 3.207032-.351563 5.882813-2.609376 6.769532-5.707032 14.871093-52.375 66.070312-85.773437 119.996093-78.273437 53.925781 7.496093 94.070313 53.597656 94.089844 108.039062 0 .433594 0 .867188-.011719 1.300781-.058594 2.429688.988282 4.757813 2.847656 6.324219 1.859376 1.566407 4.332032 2.199219 6.714844 1.722657 18.078125-3.027344 36.578125 1.972656 50.671875 13.691406 14.089844 11.722656 22.378907 29 22.695313 47.324218 0 .542969.0625 1.082032.1875 1.609376-.992188 39.675781-33.449219 71.320312-73.136719 71.3125h-57.125c.148437-1.683594-.183594-3.378907-.953125-4.886719-1.410156-2.53125-4.078125-4.101563-6.976562-4.113281h-31.917969l17.847656-43.132813c1.019531-2.4375.738281-5.222656-.746094-7.40625-1.496093-2.195313-3.992187-3.496094-6.648437-3.460937h-79.335938c-4.105468-.0625-7.570312 3.035156-7.964844 7.121093l-5.222656 55.878907h-61.527344c-40.203124.011718-72.878906-32.429688-73.160156-72.632813.007813-.160156.011719-.371094.007813-.535156 0-.269531-.011719-.832031-.027344-.832031zm0 0"/><path d="m5.644531 417.410156c1.988281.738282 4.191407.65625 6.121094-.230468 1.925781-.886719 3.421875-2.503907 4.160156-4.492188l11.3125-30.550781c1.429688-4.113281-.691406-8.613281-4.777343-10.125-4.082032-1.511719-8.625.515625-10.222657 4.566406l-11.316406 30.550781c-1.535156 4.144532.578125 8.746094 4.722656 10.28125zm0 0"/><path d="m92.664062 371.855469c-4.140624-1.53125-8.742187.582031-10.277343 4.726562l-11.316407 30.546875c-1.066406 2.699219-.589843 5.757813 1.246094 8.003906 1.835938 2.246094 4.742188 3.320313 7.59375 2.8125 2.855469-.507812 5.210938-2.519531 6.160156-5.257812l11.3125-30.550781c1.535157-4.140625-.574218-8.742188-4.71875-10.28125zm0 0"/><path d="m163.949219 371.855469c-4.144531-1.535157-8.746094.582031-10.28125 4.726562l-11.316407 30.546875c-1.0625 2.699219-.585937 5.757813 1.246094 8.003906 1.835938 2.246094 4.742188 3.320313 7.597656 2.8125 2.851563-.507812 5.210938-2.519531 6.15625-5.257812l11.316407-30.550781c1.535156-4.140625-.578125-8.742188-4.71875-10.28125zm0 0"/><path d="m234.097656 371.855469c-4.144531-1.53125-8.746094.582031-10.28125 4.726562l-11.3125 30.546875c-1.066406 2.699219-.589844 5.757813 1.246094 8.003906 1.832031 2.246094 4.738281 3.320313 7.59375 2.8125 2.855469-.507812 5.210938-2.519531 6.160156-5.257812l11.3125-30.550781c1.535156-4.140625-.578125-8.742188-4.71875-10.28125zm0 0"/><path d="m305.382812 371.855469c-4.140624-1.535157-8.746093.582031-10.28125 4.726562l-11.316406 30.546875c-1.066406 2.699219-.589844 5.757813 1.246094 8.003906 1.832031 2.246094 4.738281 3.320313 7.59375 2.8125 2.855469-.507812 5.210938-2.519531 6.160156-5.257812l11.3125-30.550781c1.535156-4.140625-.574218-8.742188-4.714844-10.28125zm0 0"/><path d="m375.53125 371.855469c-4.144531-1.53125-8.746094.582031-10.28125 4.726562l-11.316406 30.546875c-1.0625 2.699219-.585938 5.757813 1.246094 8.003906 1.835937 2.246094 4.742187 3.320313 7.597656 2.8125 2.851562-.507812 5.210937-2.519531 6.15625-5.257812l11.320312-30.550781c1.535156-4.144531-.582031-8.746094-4.722656-10.28125zm0 0"/><path d="m28.398438 443.347656-11.3125 30.550782c-1.070313 2.695312-.597657 5.761718 1.238281 8.007812 1.835937 2.246094 4.746093 3.324219 7.601562 2.816406 2.855469-.511718 5.210938-2.527344 6.160157-5.269531l11.3125-30.546875c1.421874-4.113281-.699219-8.609375-4.78125-10.121094-4.078126-1.507812-8.617188.515625-10.21875 4.5625zm0 0"/><path d="m91.957031 484.179688c1.988281.738281 4.191407.652343 6.121094-.230469 1.925781-.886719 3.425781-2.503907 4.160156-4.496094l11.316407-30.546875c1.421874-4.113281-.703126-8.609375-4.78125-10.121094-4.082032-1.507812-8.621094.515625-10.21875 4.5625l-11.320313 30.550782c-1.535156 4.140624.578125 8.746093 4.722656 10.28125zm0 0"/><path d="m163.238281 484.179688c1.992188.738281 4.191407.652343 6.121094-.230469 1.929687-.886719 3.425781-2.503907 4.160156-4.496094l11.316407-30.546875c1.421874-4.113281-.703126-8.609375-4.78125-10.121094-4.082032-1.507812-8.621094.515625-10.21875 4.5625l-11.320313 30.550782c-1.535156 4.140624.578125 8.746093 4.722656 10.28125zm0 0"/><path d="m233.390625 484.179688c1.988281.738281 4.191406.652343 6.117187-.230469 1.929688-.886719 3.425782-2.503907 4.164063-4.496094l11.3125-30.546875c1.421875-4.113281-.699219-8.609375-4.78125-10.121094-4.078125-1.507812-8.617187.515625-10.21875 4.5625l-11.320313 30.550782c-1.53125 4.140624.582032 8.746093 4.726563 10.28125zm0 0"/><path d="m304.671875 484.179688c1.988281.738281 4.191406.652343 6.117187-.230469 1.929688-.886719 3.425782-2.503907 4.164063-4.496094l11.3125-30.546875c1.425781-4.113281-.699219-8.609375-4.78125-10.121094-4.078125-1.507812-8.617187.515625-10.21875 4.5625l-11.316406 30.550782c-1.535157 4.140624.578125 8.746093 4.722656 10.28125zm0 0"/><path d="m374.820312 484.179688c1.992188.738281 4.191407.65625 6.121094-.230469 1.929688-.886719 3.425782-2.503907 4.160156-4.496094l11.316407-30.546875c1.421875-4.113281-.703125-8.609375-4.78125-10.121094-4.082031-1.507812-8.621094.515625-10.21875 4.5625l-11.316407 30.550782c-1.535156 4.140624.578126 8.742187 4.71875 10.28125zm0 0"/></svg>