<svg height="492pt" viewBox="-34 0 492 492.64564" width="492pt" xmlns="http://www.w3.org/2000/svg"><path d="m104.605469 406.171875c51.023437 51.546875 101.230469 83.863281 103.34375 85.214844 2.625 1.679687 5.992187 1.679687 8.617187 0 2.113282-1.351563 52.320313-33.667969 103.34375-85.214844 30.09375-30.398437 54.101563-61.152344 71.367188-91.398437 21.839844-38.273438 32.914062-75.890626 32.914062-111.8125 0-111.910157-95.074218-202.960938-211.933594-202.960938-116.859374 0-211.933593 91.050781-211.933593 202.964844 0 35.921875 11.074219 73.539062 32.914062 111.808594 17.261719 30.25 41.273438 60.996093 71.367188 91.398437zm107.652343-390.171875c108.039063 0 195.933594 83.871094 195.933594 186.964844 0 33.058594-10.335937 67.960937-30.730468 103.738281-16.53125 29-39.644532 58.609375-68.699219 87.992187-29.613281 29.710938-61.917969 56.609376-96.503907 80.347657-34.582031-23.738281-66.890624-50.636719-96.5-80.347657-29.054687-29.382812-52.171874-58.992187-68.699218-87.992187-20.402344-35.78125-30.734375-70.679687-30.734375-103.738281 0-103.09375 87.894531-186.964844 195.933593-186.964844zm0 0"/><path d="m212.257812 365.230469c86.511719 0 156.894532-70.382813 156.894532-156.894531 0-86.511719-70.382813-156.890626-156.894532-156.890626-86.511718 0-156.894531 70.378907-156.894531 156.890626 0 86.515624 70.382813 156.894531 156.894531 156.894531zm0-297.785157c77.6875 0 140.894532 63.203126 140.894532 140.890626s-63.207032 140.894531-140.894532 140.894531-140.894531-63.207031-140.894531-140.894531c0-77.683594 63.207031-140.890626 140.894531-140.890626zm0 0"/><path d="m151.917969 273.488281c5.292969.003907 10.554687-.84375 15.574219-2.515625 25.488281 22.816406 64.054687 22.816406 89.539062 0 5.019531 1.667969 10.277344 2.515625 15.566406 2.511719 17.984375-.09375 34.558594-9.765625 43.484375-25.378906 8.414063-14.644531 8.515625-31.835938.265625-45.988281-.121094-.210938-.257812-.417969-.398437-.617188l-36.839844-51.71875c-1.488281-2.128906-3.90625-3.414062-6.503906-3.457031h-.007813c-2.59375.042969-5.011718 1.328125-6.5 3.453125l-12.265625 17.191406-35.058593-49.203125c-1.488282-2.125-3.914063-3.40625-6.511719-3.441406-2.59375.046875-5.011719 1.332031-6.5 3.460937l-35.140625 49.136719-12.191406-17.160156c-1.492188-2.125-3.910157-3.40625-6.507813-3.4375-2.59375.042969-5.011719 1.328125-6.5 3.453125l-36.839844 51.519531c-.148437.207031-.285156.449219-.414062.671875-8.253907 14.234375-8.132813 31.507812.320312 46.183594 8.929688 15.578125 25.472657 25.230468 43.429688 25.335937zm120.671875-105.183593 30.109375 42.175781c5.230469 9.210937 5.058593 20-.492188 29.65625-6.066406 10.65625-17.351562 17.265625-29.609375 17.351562-1.234375 0-2.472656-.066406-3.699218-.203125.761718-1.152344 1.492187-2.335937 2.1875-3.542968 11.34375-19.742188 11.488281-42.894532.390624-61.933594-.125-.214844-.257812-.421875-.398437-.621094l-7.425781-10.402344zm-60.339844-31.988282 45.582031 63.851563c8.121094 14.175781 7.902344 30.773437-.617187 45.601562-9.113282 16.242188-26.285156 26.304688-44.914063 26.320313-18.628906.011718-35.8125-10.027344-44.949219-26.261719-8.570312-14.875-8.808593-31.566406-.664062-45.859375zm-90.429688 74.019532 30.089844-42.03125 8.867188 12.425781-7.332032 10.246093c-.152343.207032-.289062.421876-.417968.644532-11.109375 19.160156-10.9375 42.410156.460937 62.199218.679688 1.183594 1.394531 2.335938 2.144531 3.464844-1.234374.136719-2.472656.203125-3.714843.203125-12.238281-.085937-23.507813-6.679687-29.578125-17.308593-5.582032-9.691407-5.765625-20.546876-.519532-29.84375zm0 0"/></svg>