<svg height="438pt" viewBox="0 -1 438.325 438" width="438pt" xmlns="http://www.w3.org/2000/svg"><path d="m93.078125 297.816406h252.167969c51.394531-.085937 93.027344-41.746094 93.078125-93.140625 0-.664062-.078125-1.328125-.238281-1.976562-.875-44.054688-36.835938-79.308594-80.898438-79.3125-2.015625 0-4.089844.019531-6.203125.121093-4-69.191406-61.238281-123.273437-130.546875-123.34375-28.765625-.0898432-56.742188 9.402344-79.511719 26.980469-20.882812 16.082031-36.46875 38.046875-44.753906 63.066407-55.527344 9.179687-96.2304688 57.222656-96.16796875 113.5 0 .09375 0 .183593.00390625.277343v.269531c-.00390625.117188-.0078125.296876-.0078125.421876.0546875 51.394531 41.6875 93.050781 93.078125 93.136718zm-77.074219-94c0-50 37.507813-92.578125 87.25-98.390625 3.21875-.386719 5.886719-2.671875 6.769532-5.792969 15.617187-55.09375 69.460937-90.238281 126.179687-82.367187 56.722656 7.871094 98.960937 56.351563 98.984375 113.617187 0 .453126 0 .898438-.007812 1.355469-.058594 2.429688.988281 4.753907 2.847656 6.316407 1.863281 1.566406 4.332031 2.199218 6.714844 1.722656 4.105468-.699219 8.273437-1 12.441406-.898438 35.796875 0 64.925781 29.261719 64.925781 65.234375 0 .617188.066406 1.230469.199219 1.832031-1.003906 41.863282-35.1875 75.296876-77.0625 75.371094h-252.167969c-42.390625-.078125-76.792969-34.316406-77.074219-76.710937.011719-.167969.015625-.316407.011719-.488281.003906-.265626-.007813-.53125-.03125-.796876zm0 0"/><path d="m43.011719 324.65625c-4.144531-1.535156-8.746094.582031-10.28125 4.722656l-11.316407 30.550782c-1.0625 2.695312-.585937 5.757812 1.246094 8.003906 1.835938 2.242187 4.742188 3.320312 7.597656 2.8125 2.855469-.507813 5.210938-2.519532 6.15625-5.261719l11.320313-30.546875c1.535156-4.144531-.578125-8.746094-4.722656-10.28125zm0 0"/><path d="m113.164062 324.65625c-4.144531-1.535156-8.746093.582031-10.28125 4.722656l-11.320312 30.550782c-1.0625 2.695312-.585938 5.757812 1.246094 8.003906 1.835937 2.242187 4.742187 3.320312 7.597656 2.8125 2.851562-.507813 5.210938-2.519532 6.15625-5.261719l11.316406-30.546875c1.535156-4.140625-.574218-8.742188-4.714844-10.28125zm0 0"/><path d="m184.441406 324.65625c-4.140625-1.535156-8.742187.582031-10.277344 4.722656l-11.316406 30.550782c-1.0625 2.695312-.589844 5.757812 1.246094 8.003906 1.835938 2.242187 4.742188 3.320312 7.597656 2.8125 2.851563-.507813 5.210938-2.519532 6.15625-5.261719l11.316406-30.546875c1.535157-4.144531-.578124-8.746094-4.722656-10.28125zm0 0"/><path d="m254.59375 324.65625c-4.144531-1.535156-8.746094.582031-10.28125 4.722656l-11.316406 30.550782c-1.0625 2.695312-.585938 5.757812 1.246094 8.003906 1.835937 2.242187 4.742187 3.320312 7.597656 2.8125 2.851562-.507813 5.210937-2.519532 6.15625-5.261719l11.316406-30.546875c1.535156-4.144531-.578125-8.746094-4.71875-10.28125zm0 0"/><path d="m325.875 324.65625c-4.144531-1.535156-8.746094.582031-10.28125 4.722656l-11.3125 30.550782c-1.066406 2.695312-.589844 5.757812 1.246094 8.003906 1.832031 2.242187 4.738281 3.320312 7.59375 2.8125 2.855468-.507813 5.210937-2.519532 6.160156-5.261719l11.3125-30.546875c1.535156-4.144531-.578125-8.746094-4.71875-10.28125zm0 0"/><path d="m396.027344 324.65625c-4.144532-1.535156-8.746094.582031-10.28125 4.722656l-11.316406 30.550782c-1.066407 2.695312-.589844 5.757812 1.246093 8.003906 1.835938 2.242187 4.742188 3.320312 7.59375 2.8125 2.855469-.507813 5.210938-2.519532 6.160157-5.261719l11.316406-30.546875c1.535156-4.140625-.578125-8.746094-4.71875-10.28125zm0 0"/><path d="m42.300781 436.976562c1.992188.738282 4.191407.65625 6.121094-.230468 1.929687-.886719 3.425781-2.5 4.160156-4.492188l11.316407-30.546875c1.429687-4.113281-.695313-8.613281-4.777344-10.128906-4.082032-1.511719-8.625.519531-10.222656 4.570313l-11.320313 30.546874c-1.535156 4.144532.582031 8.746094 4.722656 10.28125zm0 0"/><path d="m112.453125 436.976562c1.988281.738282 4.191406.65625 6.121094-.230468 1.925781-.886719 3.421875-2.5 4.160156-4.492188l11.3125-30.550781c1.417969-4.109375-.707031-8.597656-4.78125-10.109375-4.078125-1.511719-8.617187.511719-10.21875 4.554688l-11.3125 30.546874c-1.535156 4.144532.578125 8.746094 4.71875 10.28125zm0 0"/><path d="m183.734375 436.976562c1.988281.738282 4.191406.65625 6.121094-.230468 1.925781-.886719 3.425781-2.5 4.160156-4.492188l11.3125-30.550781c1.417969-4.109375-.707031-8.597656-4.78125-10.109375-4.078125-1.511719-8.613281.511719-10.21875 4.554688l-11.3125 30.546874c-1.535156 4.144532.578125 8.746094 4.71875 10.28125zm0 0"/><path d="m253.886719 436.976562c1.988281.738282 4.1875.65625 6.117187-.230468 1.929688-.886719 3.425782-2.5 4.160156-4.492188l11.316407-30.550781c1.417969-4.109375-.707031-8.597656-4.785157-10.109375-4.078124-1.511719-8.613281.511719-10.214843 4.554688l-11.316407 30.546874c-1.535156 4.144532.578126 8.746094 4.722657 10.28125zm0 0"/><path d="m325.164062 436.976562c1.988282.738282 4.191407.65625 6.121094-.230468 1.925782-.886719 3.421875-2.5 4.160156-4.492188l11.3125-30.550781c1.417969-4.109375-.707031-8.597656-4.78125-10.109375-4.078124-1.511719-8.617187.511719-10.21875 4.554688l-11.3125 30.546874c-1.535156 4.144532.578126 8.746094 4.71875 10.28125zm0 0"/><path d="m395.316406 436.976562c1.988282.738282 4.191406.65625 6.121094-.230468 1.929688-.886719 3.425781-2.5 4.160156-4.492188l11.3125-30.550781c1.417969-4.109375-.707031-8.597656-4.78125-10.109375-4.078125-1.511719-8.613281.511719-10.21875 4.554688l-11.316406 30.546874c-1.535156 4.144532.582031 8.746094 4.722656 10.28125zm0 0"/></svg>