<svg height="494pt" viewBox="-79 0 494 494.29274" width="494pt" xmlns="http://www.w3.org/2000/svg"><path d="m7.070312 339.136719c3.964844.539062 7.71875-1.9375 8.785157-5.792969 1-3.601562 4.835937-14.824219 9.371093-19.550781 6.285157-5.640625 14.4375-8.75 22.878907-8.730469h.308593c8.320313-.007812 16.339844 3.101562 22.476563 8.71875 5.722656 5.589844 8.992187 13.222656 9.089844 21.21875 0 4.421875 3.582031 8 8 8s8-3.578125 8-8c.09375-7.988281 3.355469-15.609375 9.066406-21.199219 6.285156-5.644531 14.445313-8.757812 22.894531-8.738281h.308594c8.320312-.011719 16.339844 3.101562 22.472656 8.71875 5.726563 5.589844 8.992188 13.222656 9.089844 21.21875v130.214844c0 7.332031-6.226562 13.078125-14.175781 13.078125s-14.175781-5.746094-14.175781-13.078125c0-4.417969-3.582032-8-8-8-4.417969 0-8 3.582031-8 8 0 16.304687 13.253906 29.078125 30.175781 29.078125 16.917969 0 30.175781-12.773438 30.175781-29.078125v-130.214844c.097656-7.988281 3.359375-15.609375 9.066406-21.199219 6.289063-5.644531 14.445313-8.761719 22.894532-8.738281h.308593c8.320313-.011719 16.339844 3.101562 22.472657 8.71875 5.722656 5.589844 8.992187 13.222656 9.089843 21.21875 0 4.417969 3.582031 8 8 8s8-3.582031 8-8c.097657-7.988281 3.355469-15.613281 9.066407-21.199219 6.289062-5.648437 14.449218-8.761719 22.902343-8.742187.097657-.003906.203125 0 .308594 0 8.3125-.011719 16.328125 3.097656 22.460937 8.710937 4.03125 4.183594 7.890626 14.195313 9.390626 19.570313 1.066406 3.855468 4.820312 6.332031 8.785156 5.792968 3.964844-.539062 6.925781-3.925781 6.925781-7.925781 0-42.789062-17.480469-82.96875-49.226563-113.136719-31.632812-30.070312-73.695312-46.621093-118.445312-46.621093s-86.808594 16.550781-118.441406 46.621093c-31.742188 30.171876-49.226563 70.351563-49.226563 113.140626 0 4 2.960938 7.386718 6.925781 7.925781zm53.324219-109.46875c28.644531-27.226563 66.792969-42.21875 107.417969-42.21875 40.628906 0 78.777344 14.992187 107.421875 42.21875 19.496094 18.304687 33.382813 41.773437 40.046875 67.671875-8.078125-5.402344-17.574219-8.28125-27.292969-8.277344h-.453125c-12.480468-.011719-24.511718 4.640625-33.738281 13.039062-.105469.09375-.203125.191407-.300781.292969-2.15625 2.164063-4.113282 4.519531-5.847656 7.035157-1.738282-2.515626-3.695313-4.871094-5.847657-7.039063-.085937-.082031-.171875-.164063-.257812-.246094-9.082031-8.414062-21.007813-13.085937-33.390625-13.082031-.152344 0-.300782 0-.449219 0-12.480469-.011719-24.511719 4.640625-33.742187 13.039062-.101563.09375-.203126.191407-.296876.292969-1.65625 1.667969-3.195312 3.445313-4.609374 5.320313-.820313-.140625-1.65625-.140625-2.476563 0-1.414063-1.875-2.957031-3.65625-4.609375-5.324219-.085938-.082031-.171875-.164063-.257812-.246094-9.082032-8.414062-21.007813-13.085937-33.386719-13.085937-.152344 0-.300781 0-.453125 0-12.480469-.007813-24.511719 4.640625-33.738282 13.042968-.101562.09375-.203124.1875-.300781.289063-2.152343 2.167969-4.109375 4.523437-5.847656 7.039063-1.734375-2.519532-3.691406-4.871094-5.847656-7.039063-.082031-.085937-.167969-.167969-.257813-.25-9.082031-8.414063-21.007812-13.085937-33.386718-13.082031-.152344 0-.300782 0-.453126 0-9.851562-.007813-19.488281 2.890625-27.699218 8.339844 6.652344-25.921876 20.546875-49.414063 40.054687-67.730469zm0 0"/><path d="m114.847656 141.167969c4.5625.003906 9.09375-.703125 13.441406-2.089844 22.605469 19.871094 56.449219 19.871094 79.058594 0 4.34375 1.386719 8.871094 2.089844 13.429688 2.085937 16.136718-.078124 31.007812-8.753906 39.015625-22.761718 7.5625-13.164063 7.652343-28.621094.234375-41.347656-.125-.210938-.257813-.417969-.402344-.617188l-32.335938-45.191406c-1.511718-2.074219-3.9375-3.285156-6.503906-3.246094h-.007812c-2.5625-.039062-4.984375 1.167969-6.5 3.238281l-9.96875 13.871094-29.980469-41.875c-1.511719-2.074219-3.941406-3.28125-6.507813-3.234375-2.558593-.0507812-4.984374 1.140625-6.5 3.203125l-30.054687 41.890625-9.90625-13.808594c-1.507813-2.085937-3.929687-3.308594-6.5-3.285156h-.007813c-2.5625-.039062-4.984374 1.167969-6.5 3.238281l-32.34375 45.121094c-.148437.207031-.289062.398437-.417968.617187-7.421875 12.796876-7.316406 28.296876.28125 41.488282 8.015625 13.976562 22.867187 22.625 38.976562 22.703125zm105.921875-91.625 25.601563 35.867187c4.390625 7.769532 4.230468 16.867188-.453125 25.019532-5.152344 9.046874-14.734375 14.664062-25.144531 14.738281-.515626 0-1.03125-.015625-1.542969-.042969.363281-.585938.71875-1.179688 1.066406-1.78125 10.132813-17.636719 10.257813-38.324219.339844-55.34375-.125-.214844-.257813-.421875-.402344-.621094l-6.109375-8.558594zm-52.964843-28.074219 39.1875 54.894531c6.925781 12.121094 6.726562 26.320313-.5625 39.007813-7.828126 13.957031-22.578126 22.601562-38.578126 22.613281-16 .007813-30.761718-8.617187-38.609374-22.5625-7.335938-12.730469-7.550782-27.011719-.605469-39.238281zm-78.550782 63.816406 25.585938-35.742187 6.585937 9.226562-6.03125 8.425781c-.152343.207032-.289062.421876-.417969.644532-9.929687 17.125-9.777343 37.898437.402344 55.570312.332032.578125.671875 1.152344 1.023438 1.714844-.515625.027344-1.035156.042969-1.554688.042969-10.394531-.074219-19.960937-5.675781-25.117187-14.699219-4.710938-8.1875-4.878907-17.34375-.476563-25.183594zm0 0"/></svg>