<svg height="486pt" viewBox="-24 0 486 486.46245" width="486pt" xmlns="http://www.w3.org/2000/svg"><path d="m323.699219 400.332031c-.121094-.210937-.257813-.417969-.398438-.617187l-36.921875-51.925782c-1.476562-2.152343-3.890625-3.472656-6.5-3.558593-2.609375.082031-5.019531 1.402343-6.5 3.550781l-12.304687 17.292969-35.152344-49.363281c-1.488281-2.140626-3.914063-3.433594-6.519531-3.476563-2.601563.070313-5.015625 1.378906-6.5 3.519531l-35.222656 49.292969-12.234376-17.296875c-1.480468-2.148438-3.90625-3.457031-6.515624-3.515625h-.003907c-2.609375.082031-5.019531 1.398437-6.5 3.550781l-36.925781 51.675782c-.152344.210937-.289062.476562-.417969.703124-8.269531 14.261719-8.148437 31.578126.320313 46.277344 8.949218 15.613282 25.527344 25.28125 43.519531 25.378906 5.308594.011719 10.582031-.839843 15.617187-2.511718 25.535157 22.867187 64.1875 22.871094 89.726563.007812 5.03125 1.675782 10.296875 2.523438 15.597656 2.515625 18.019531-.089843 34.621094-9.777343 43.566407-25.421875 8.4375-14.675781 8.535156-31.898437.269531-46.078125zm-194.433594 38.140625c-5.597656-9.71875-5.785156-20.597656-.519531-29.925781l30.167968-42.144531 8.910157 12.480468-7.359375 10.28125c-.148438.207032-.285156.421876-.414063.644532-11.132812 19.199218-10.960937 42.492187.460938 62.3125.6875 1.195312 1.40625 2.359375 2.164062 3.5-1.246093.140625-2.5.210937-3.753906.210937-12.269531-.089843-23.566406-6.699219-29.652344-17.355469zm90.132813 31.988282c-18.625-.121094-35.777344-10.152344-45.019532-26.328126-8.59375-14.914062-8.828125-31.648437-.667968-45.980468l45.679687-63.808594 45.699219 64.011719c8.144531 14.210937 7.925781 30.855469-.617188 45.71875-9.238281 16.210937-26.414062 26.269531-45.074218 26.386719zm90.164062-32.027344c-6.082031 10.683594-17.398438 17.316406-29.691406 17.398437-1.246094 0-2.496094-.066406-3.734375-.207031.765625-1.164062 1.503906-2.355469 2.207031-3.574219 11.367188-19.777343 11.511719-42.976562.390625-62.054687-.125-.210938-.257813-.417969-.398437-.617188l-7.449219-10.433594 8.976562-12.539062 30.191407 42.292969c5.246093 9.234375 5.074218 20.054687-.492188 29.734375zm0 0"/><path d="m93.316406 297.234375h252.167969c51.351563.011719 93.003906-41.578125 93.074219-92.929687 0-.628907-.078125-1.257813-.238282-1.867188-.894531-44.035156-36.855468-79.257812-80.898437-79.234375-2.011719 0-4.085937.035156-6.199219.132813-4.003906-69.1875-61.246094-123.2656255-130.550781-123.335938-28.765625-.0898438-56.742187 9.40625-79.511719 26.984375-20.878906 16.082031-36.46875 38.046875-44.753906 63.066406-55.523438 9.183594-96.230469 57.226563-96.167969 113.503907v.277343.265625c0 .121094-.007812.089844-.007812.207032.070312 51.355468 41.730469 92.945312 93.085937 92.929687zm-77.078125-94c.019531-50.101563 37.5-92.277344 87.25-98.179687 3.203125-.34375 5.878907-2.589844 6.769531-5.683594 15.648438-55.082032 69.5-90.199219 126.214844-82.308594 56.710938 7.890625 98.933594 56.375 98.953125 113.636719 0 .453125 0 .914062-.011719 1.371093-.0625 2.429688.984376 4.757813 2.847657 6.324219 1.859375 1.566407 4.332031 2.199219 6.714843 1.722657 4.109376-.695313 8.273438-1 12.441407-.898438 35.800781 0 64.925781 29.265625 64.925781 65.234375 0 .546875.066406 1.089844.199219 1.617187-1.019531 41.820313-35.226563 75.183594-77.058594 75.164063h-252.167969c-42.355468.023437-76.78125-34.148437-77.078125-76.5.011719-.167969.015625-.425781.015625-.597656 0-.28125-.015625.09375-.035156-.90625zm0 0"/></svg>