<svg height="438pt" viewBox="0 -8 438.328 438" width="438pt" xmlns="http://www.w3.org/2000/svg"><path d="m414.414062 147.082031c-15.140624-15.234375-35.75-23.769531-57.226562-23.699219-2.015625 0-4.089844.023438-6.203125.125-4-69.191406-61.238281-123.269531-130.542969-123.34375-28.765625-.0898432-56.742187 9.40625-79.511718 26.984376-20.882813 16.082031-36.46875 38.046874-44.753907 63.066406-55.527343 9.179687-96.2304685 57.222656-96.1679685 113.5v.277344.265624c0 .121094-.0078125.414063-.0078125.535157.0078125 51.324219 41.761719 93.253906 93.085938 93.253906h252.167968c51.320313 0 93.074219-41.929687 93.074219-93.253906 0-.683594-.078125-1.367188-.238281-2.035157-.40625-20.917968-8.890625-40.871093-23.675782-55.675781zm-69.160156 134.964844h-252.167968c-42.359376 0-76.847657-34.519531-77.078126-76.824219.011719-.167968.015626-.261718.011719-.429687.003907-.25-.003906-.5-.03125-.746094h.019531c0-51 37.511719-92.691406 87.25-98.507813 3.226563-.410156 5.894532-2.710937 6.769532-5.84375 15.601562-55.101562 69.4375-90.265624 126.160156-82.40625 56.726562 7.863282 98.972656 56.339844 99.003906 113.605469 0 .457031 0 .898438-.007812 1.351563-.058594 2.429687.992187 4.75 2.851562 6.3125s4.328125 2.195312 6.710938 1.722656c4.109375-.699219 8.273437-1 12.441406-.902344 35.796875 0 64.925781 29.265625 64.925781 65.234375 0 .652344.066407 1.304688.199219 1.945313-.945312 41.6875-35.152344 75.488281-77.058594 75.488281zm0 0"/><path d="m235.433594 327.765625c-3.125-3.125-8.191406-3.125-11.316406 0l-4.949219 4.949219-4.949219-4.949219c-3.125-3.125-8.1875-3.125-11.3125 0-3.125 3.121094-3.125 8.1875-.003906 11.3125l4.953125 4.949219-4.246094 4.246094c-3.121094 3.121093-3.121094 8.1875.003906 11.3125 3.121094 3.125 8.1875 3.125 11.3125 0l4.242188-4.238282 4.242187 4.242188c3.125 3.125 8.191406 3.125 11.3125 0 3.125-3.125 3.125-8.191406.003906-11.3125l-4.246093-4.246094 4.953125-4.949219c3.125-3.125 3.125-8.191406 0-11.316406zm0 0"/><path d="m315.433594 327.765625c-3.125-3.125-8.191406-3.125-11.316406 0l-4.949219 4.949219-4.949219-4.949219c-3.125-3.125-8.1875-3.125-11.3125 0-3.125 3.121094-3.125 8.1875-.003906 11.3125l4.953125 4.949219-4.246094 4.246094c-3.121094 3.121093-3.121094 8.1875.003906 11.3125 3.121094 3.125 8.1875 3.125 11.3125 0l4.242188-4.238282 4.242187 4.242188c3.125 3.125 8.191406 3.125 11.3125 0 3.125-3.125 3.125-8.191406.003906-11.3125l-4.246093-4.246094 4.953125-4.949219c3.125-3.125 3.125-8.191406 0-11.316406zm0 0"/><path d="m395.433594 327.765625c-3.125-3.125-8.191406-3.125-11.316406 0l-4.949219 4.949219-4.949219-4.949219c-3.125-3.125-8.1875-3.125-11.3125 0-3.125 3.121094-3.125 8.1875-.003906 11.3125l4.953125 4.949219-4.246094 4.246094c-3.121094 3.121093-3.121094 8.1875.003906 11.3125 3.121094 3.125 8.1875 3.125 11.3125 0l4.242188-4.238282 4.242187 4.242188c3.125 3.125 8.191406 3.125 11.3125 0 3.125-3.125 3.125-8.191406.003906-11.3125l-4.246093-4.246094 4.953125-4.949219c3.125-3.125 3.125-8.191406 0-11.316406zm0 0"/><path d="m155.433594 327.765625c-3.125-3.125-8.191406-3.125-11.316406 0l-4.949219 4.949219-4.949219-4.949219c-3.125-3.125-8.1875-3.125-11.3125 0-3.125 3.121094-3.125 8.1875-.003906 11.3125l4.953125 4.949219-4.246094 4.246094c-3.121094 3.121093-3.121094 8.1875.003906 11.3125 3.121094 3.125 8.1875 3.125 11.3125 0l4.242188-4.238282 4.242187 4.242188c3.125 3.125 8.191406 3.125 11.3125 0 3.125-3.125 3.125-8.191406.003906-11.3125l-4.246093-4.246094 4.953125-4.949219c3.125-3.125 3.125-8.191406 0-11.316406zm0 0"/><path d="m75.433594 327.765625c-3.125-3.125-8.191406-3.125-11.316406 0l-4.949219 4.949219-4.949219-4.949219c-3.125-3.125-8.1875-3.125-11.3125 0-3.125 3.121094-3.125 8.1875-.003906 11.3125l4.953125 4.949219-4.246094 4.246094c-3.121094 3.121093-3.121094 8.1875.003906 11.3125 3.121094 3.125 8.1875 3.125 11.3125 0l4.242188-4.238282 4.242187 4.242188c3.125 3.125 8.191406 3.125 11.3125 0 3.125-3.125 3.125-8.191406.003906-11.3125l-4.246093-4.246094 4.953125-4.949219c3.125-3.125 3.125-8.191406 0-11.316406zm0 0"/><path d="m275.433594 387.765625c-3.125-3.125-8.191406-3.125-11.316406 0l-4.949219 4.949219-4.949219-4.949219c-3.125-3.125-8.1875-3.125-11.3125 0-3.125 3.121094-3.125 8.1875-.003906 11.3125l4.953125 4.949219-4.246094 4.246094c-3.121094 3.121093-3.121094 8.1875.003906 11.3125 3.121094 3.125 8.1875 3.125 11.3125 0l4.242188-4.238282 4.242187 4.242188c3.125 3.125 8.191406 3.125 11.3125 0 3.125-3.125 3.125-8.191406.003906-11.3125l-4.246093-4.246094 4.953125-4.949219c3.125-3.125 3.125-8.191406 0-11.316406zm0 0"/><path d="m355.433594 387.765625c-3.125-3.125-8.191406-3.125-11.316406 0l-4.949219 4.949219-4.949219-4.949219c-3.125-3.125-8.1875-3.125-11.3125 0-3.125 3.121094-3.125 8.1875-.003906 11.3125l4.953125 4.949219-4.246094 4.246094c-3.121094 3.121093-3.121094 8.1875.003906 11.3125 3.121094 3.125 8.1875 3.125 11.3125 0l4.242188-4.238282 4.242187 4.242188c3.125 3.125 8.191406 3.125 11.3125 0 3.125-3.125 3.125-8.191406.003906-11.3125l-4.246093-4.246094 4.953125-4.949219c3.125-3.125 3.125-8.191406 0-11.316406zm0 0"/><path d="m195.433594 387.765625c-3.125-3.125-8.191406-3.125-11.316406 0l-4.949219 4.949219-4.949219-4.949219c-3.125-3.125-8.1875-3.125-11.3125 0-3.125 3.121094-3.125 8.1875-.003906 11.3125l4.953125 4.949219-4.246094 4.246094c-3.121094 3.121093-3.121094 8.1875.003906 11.3125 3.121094 3.125 8.1875 3.125 11.3125 0l4.242188-4.238282 4.242187 4.242188c3.125 3.125 8.191406 3.125 11.3125 0 3.125-3.125 3.125-8.191406.003906-11.3125l-4.246093-4.246094 4.953125-4.949219c3.125-3.125 3.125-8.191406 0-11.316406zm0 0"/><path d="m115.433594 387.765625c-3.125-3.125-8.191406-3.125-11.316406 0l-4.949219 4.949219-4.949219-4.949219c-3.125-3.125-8.1875-3.125-11.3125 0-3.125 3.121094-3.125 8.1875-.003906 11.3125l4.953125 4.949219-4.246094 4.246094c-3.121094 3.121093-3.121094 8.1875.003906 11.3125 3.121094 3.125 8.1875 3.125 11.3125 0l4.242188-4.238282 4.242187 4.242188c3.125 3.125 8.191406 3.125 11.3125 0 3.125-3.125 3.125-8.191406.003906-11.3125l-4.246093-4.246094 4.953125-4.949219c3.125-3.125 3.125-8.191406 0-11.316406zm0 0"/></svg>