<svg height="438pt" viewBox="0 -19 438.328 438" width="438pt" xmlns="http://www.w3.org/2000/svg"><path d="m414.414062 147.085938c-15.140624-15.234376-35.75-23.769532-57.226562-23.699219-2.015625 0-4.089844.023437-6.203125.125-3.996094-69.191407-61.238281-123.273438-130.542969-123.347657-28.765625-.0898432-56.742187 9.40625-79.511718 26.984376-20.882813 16.082031-36.46875 38.046874-44.753907 63.066406-55.527343 9.179687-96.2304685 57.222656-96.1679685 113.5v.277344.265624c-.00390625.046876-.0078125.097657-.0078125.144532.0742188 51.339844 41.742188 92.910156 93.085938 92.863281h41.542968l-13.324218 13.765625 11.410156 11.113281 24.351562-24.878906h41.734375l-28.472656 28.6875-36.210937-.199219-.132813 16.050782 20.480469.199218-19.421875 19.433594 11.316406 11.328125 19.417969-19.417969.171875 20.480469 16-.132813-.300781-36.210937 29.519531-29.519531v41.75l-25.820313 25.390625 11.21875 11.402343 14.601563-14.355468v28.113281h16v-28.113281l14.601562 14.355468 11.214844-11.40625-25.816406-25.390624v-41.746094l29.519531 29.523437-.296875 36.210938 16 .132812.171875-20.476562 3.125 3.125 16.289062 16.285156 11.3125-11.3125-19.417968-19.421875 20.480468-.171875-.136718-16-36.210938.089844-28.472656-28.683594h41.738281l24.355469 24.984375 11.40625-11.324219-13.324219-13.660156h41.546875c51.335938.039063 92.996094-41.523437 93.074219-92.859375 0-.621094-.078125-1.238281-.238281-1.839844-.410156-20.859375-8.898438-40.75-23.675782-55.480468zm-69.160156 134.179687h-14.085937v-1h-28.121094l13.984375-14.222656-11.410156-11.21875-25.015625 25.441406h-41.738281l29.140624-29.140625 36.210938.304688.136719-16-20.480469-.171876 19.421875-19.421874-11.320313-11.3125-16.292968 16.292968-3.125 3.128906-.171875-20.480468-16 .132812.300781 36.214844-29.519531 29.519531v-41.75l25.820312-25.390625-11.21875-11.40625-14.601562 14.359375v-28.878906h-16v28.878906l-14.601563-14.359375-11.214844 11.40625 25.816407 25.390625v41.75l-29.519531-29.519531.296874-36.214844-16-.132812-.171874 20.480468-19.414063-19.421874-11.3125 11.316406 19.417969 19.417968-20.480469.171876.136719 16 36.210937-.304688 29.136719 29.140625h-41.738281l-25.015625-25.441406-11.410156 11.21875 13.984374 14.222656h-28.121093v1h-14.082031c-42.339844.054687-76.777344-34.09375-77.078126-76.433594.011719-.167969.015626-.457031.011719-.625 0-.285156-.011719.058594-.03125-.941406h.019531c.023438-50.089844 37.507813-92.242187 87.25-98.113281 3.199219-.328125 5.875-2.5625 6.769532-5.652344 15.652344-55.078125 69.511718-90.1875 126.222656-82.292969 56.714844 7.898438 98.929688 56.386719 98.941406 113.648438 0 .457031 0 .917969-.007812 1.375-.0625 2.433593.984375 4.761719 2.84375 6.324219 1.863281 1.566406 4.332031 2.203124 6.71875 1.726562 4.109375-.699219 8.273437-1 12.441406-.898438 35.796875 0 64.925781 29.265626 64.925781 65.234376 0 .523437.066407 1.046874.199219 1.550781-1.027344 41.808593-35.242188 75.148437-77.058594 75.097656zm0 0"/></svg>