<svg height="494pt" viewBox="-53 0 494 494.43439" width="494pt" xmlns="http://www.w3.org/2000/svg"><path d="m325.734375 190.28125c-5.5625-5.289062-11.441406-10.234375-17.597656-14.816406 19.691406-23.449219 21.21875-57.1875 3.726562-82.320313-17.496093-25.128906-49.664062-35.414062-78.492187-25.09375-28.828125 10.324219-47.15625 38.691407-44.71875 69.214844-50.050782.5625-97.011719 19.332031-132.453125 53.019531-36.101563 34.3125-55.980469 80-55.980469 128.652344 0 4 2.953125 7.386719 6.917969 7.925781 3.964843.539063 7.71875-1.929687 8.789062-5.785156 1.257813-4.515625 5.671875-17.347656 11.035157-22.90625 7.40625-6.660156 17.023437-10.335937 26.984374-10.316406h.363282c9.820312-.011719 19.289062 3.667969 26.527344 10.304687 4.9375 5.027344 10.753906 13.429688 10.753906 25.121094 0 4.417969 3.582031 8 8 8 4.417968 0 8-3.582031 8-8 0-11.671875 5.800781-20.070312 10.734375-25.101562 7.40625-6.667969 17.027343-10.347657 26.992187-10.324219h.363282c9.851562-.015625 19.355468 3.660156 26.632812 10.300781 4.9375 5.023438 10.859375 13.429688 10.859375 25.117188v139.035156c0 9.042968-7.738281 16.125-17.484375 16.125-9.75 0-17.433594-7.082032-17.433594-16.125 0-4.429688-3.589844-8.019532-8.019531-8.019532s-8.019531 3.589844-8.019531 8.019532c0 18.015625 14.757812 32.125 33.476562 32.125s33.484375-14.109375 33.484375-32.125v-139.035156c0-11.671876 5.695313-19.882813 10.625-24.914063 7.390625-6.613281 16.980469-10.230469 26.894531-10.140625h.015626c9.914062-.136719 19.511718 3.476562 26.871093 10.117188 4.9375 5.027343 10.757813 13.339843 10.757813 25.027343.015625 4.417969 3.613281 7.984375 8.03125 7.96875 4.417968-.019531 7.984375-3.617187 7.96875-8.035156 0-11.671875 5.796875-20.078125 10.730468-25.109375 7.410157-6.667969 17.03125-10.351562 27-10.332031h.363282c9.816406-.011719 19.28125 3.664062 26.519531 10.296875 5.375 5.546875 9.800781 18.40625 11.054687 22.917968 1.066407 3.859376 4.820313 6.332032 8.785157 5.792969 3.964843-.539062 6.925781-3.925781 6.925781-7.925781-.003906-48.65625-19.886719-94.347656-55.984375-128.65625zm-84.964844-107.835938c22.242188-6.949218 46.386719 1.808594 59 21.40625 12.609375 19.597657 10.578125 45.203126-4.960937 62.566407-27.210938-16.792969-58.125-26.648438-90.035156-28.714844-2.734376-24.648437 12.339843-47.796875 35.996093-55.257813zm87.257813 189.773438h-.035156c-13.972657-.078125-27.46875 5.070312-37.835938 14.441406-.101562.09375-.203125.097656-.300781.199219-2.824219 2.820313-5.34375 5.933594-7.515625 9.285156-2.167969-3.375-4.6875-6.507812-7.515625-9.355469-.082031-.085937-.167969-.179687-.253907-.257812-10.203124-9.386719-23.578124-14.5625-37.441406-14.492188-.15625 0-.3125.179688-.46875.179688h-.039062c-13.972656-.078125-27.46875 5.074219-37.835938 14.441406-.101562.09375-.199218.097656-.300781.199219-2.023437 2.027344-3.898437 4.203125-5.597656 6.507813-1.257813-.339844-2.578125-.351563-3.835938-.035157-1.703125-2.320312-3.574219-4.515625-5.601562-6.558593-.085938-.085938-.171875-.171876-.257813-.253907-10.203125-9.382812-23.578125-14.554687-37.4375-14.484375-.15625 0-.3125.183594-.472656.183594h-.035156c-13.972656-.078125-27.46875 5.070312-37.835938 14.441406-.101562.09375-.199218.097656-.300781.199219-2.824219 2.820313-5.34375 5.933594-7.515625 9.285156-2.167969-3.375-4.6875-6.507812-7.515625-9.355469-.082031-.085937-.167969-.179687-.257813-.257812-10.199218-9.386719-23.578124-14.5625-37.4375-14.492188-.15625 0-.3125.179688-.472656.179688h-.035156c-12.070312-.078125-23.839844 3.753906-33.554688 10.914062 7.324219-31.074218 23.636719-59.300781 46.902344-81.164062 33-31.367188 76.949219-48.6875 123.742188-48.6875 46.796875 0 90.742187 17.25 123.746094 48.617188 23.253906 21.882812 39.5625 50.121093 46.890624 81.199218-9.707031-7.1875-21.496093-11.007812-33.574218-10.878906zm0 0"/><path d="m219.402344 36.605469c.828125 2.757812 3.074218 4.859375 5.882812 5.503906 2.808594.640625 5.746094-.277344 7.6875-2.40625 1.945313-2.125 2.59375-5.132813 1.703125-7.871094l-8.203125-26.21875c-1.316406-4.21875-5.804687-6.566406-10.019531-5.25-4.21875 1.320313-6.570313 5.808594-5.25 10.023438zm0 0"/><path d="m137.972656 78.988281 23.835938 12.476563c3.90625 2.015625 8.710937.496094 10.75-3.398438 2.039062-3.894531.550781-8.707031-3.328125-10.773437l-23.832031-12.476563c-2.539063-1.398437-5.632813-1.3125-8.089844.222656-2.460938 1.53125-3.898438 4.273438-3.757813 7.167969.136719 2.894531 1.828125 5.488281 4.421875 6.78125zm0 0"/><path d="m343.210938 186.453125 23.832031 12.476563c2.535156 1.351562 5.597656 1.238281 8.023437-.292969 2.429688-1.53125 3.851563-4.246094 3.726563-7.113281-.125-2.871094-1.777344-5.453126-4.328125-6.765626l-23.832032-12.480468c-3.914062-2.050782-8.75-.539063-10.800781 3.375-2.050781 3.914062-.539062 8.75 3.378907 10.800781zm0 0"/><path d="m387.765625 91.894531c-1.320313-4.21875-5.808594-6.566406-10.023437-5.25l-26.21875 8.203125c-2.753907.828125-4.851563 3.074219-5.488282 5.882813-.640625 2.804687.277344 5.738281 2.398438 7.679687 2.125 1.941406 5.128906 2.59375 7.867187 1.707032l26.214844-8.199219c4.21875-1.320313 6.566406-5.808594 5.25-10.023438zm0 0"/><path d="m300.003906 48.257812c1.878906.988282 4.074219 1.1875 6.097656.554688 2.027344-.636719 3.71875-2.046875 4.699219-3.929688l12.480469-23.832031c1.367188-2.535156 1.269531-5.613281-.265625-8.054687-1.53125-2.441406-4.257813-3.867188-7.136719-3.738282-2.878906.132813-5.464844 1.800782-6.769531 4.371094l-12.480469 23.832032c-2.050781 3.914062-.539062 8.75 3.375 10.796874zm0 0"/></svg>