<svg height="492pt" viewBox="0 -85 492.035 492" width="492pt" xmlns="http://www.w3.org/2000/svg"><path d="m468.964844 176.757812c-14.605469-14.695312-34.488282-22.933593-55.207032-22.863281-1.839843 0-3.734374.019531-5.660156.105469-4.011718-66.515625-59.089844-118.425781-125.726562-118.496094-27.707032-.085937-54.652344 9.058594-76.585938 25.988282-12.0625 9.292968-22.351562 20.679687-30.386718 33.613281-10.988282-22.941407-35.210938-36.507813-60.515626-33.890625-25.300781 2.621094-46.234374 20.855468-52.292968 45.5625-6.058594 24.707031 4.058594 50.558594 25.277344 64.585937-11.519532 17.898438-17.632813 38.742188-17.605469 60.027344 0 .101563 0 .1875.003906.285156v.226563c0 .117187-.007813.246094-.007813.363281.054688 49.546875 40.203126 89.695313 89.75 89.75h242.285157c49.542969-.058594 89.6875-40.207031 89.742187-89.75 0-.644531-.078125-1.289063-.230468-1.917969-.402344-20.144531-8.585938-39.347656-22.839844-53.589844zm-392.105469-55.632812c.003906-23.398438 18.222656-42.746094 41.578125-44.152344s43.765625 15.617188 46.574219 38.84375c-.808594 2.0625-1.578125 4.140625-2.273438 6.242188-25.335937 4.1875-48.410156 17.089844-65.238281 36.484375-12.832031-8.117188-20.617188-22.234375-20.640625-37.417969zm325.433594 184.890625h-242.285157c-40.542968-.050781-73.460937-32.78125-73.742187-73.320313.007813-.167968.011719-.53125.011719-.699218 0-.269532-.015625.023437-.03125-.976563h.019531c-.019531-47.984375 35.894531-88.386719 83.554687-93.988281 3.199219-.335938 5.875-2.578125 6.765626-5.667969 14.996093-52.773437 66.59375-86.417969 120.929687-78.855469s94.785156 54.019532 94.796875 108.878907c0 .433593 0 .875-.007812 1.308593-.0625 2.429688.980468 4.757813 2.84375 6.328126 1.859374 1.566406 4.332031 2.203124 6.71875 1.726562 18.222656-3.050781 36.871093 1.992188 51.074218 13.804688 14.207032 11.816406 22.5625 29.230468 22.886719 47.707031 0 .585937.0625 1.167969.1875 1.738281-.988281 40.023438-33.6875 71.96875-73.722656 72.015625zm0 0"/><path d="m120 40.015625c4.417969 0 8-3.578125 8-8v-24c0-4.417969-3.582031-8-8-8s-8 3.582031-8 8v24c0 4.421875 3.582031 8 8 8zm0 0"/><path d="m184.347656 65.875c2.121094 0 4.152344-.84375 5.652344-2.34375l16.621094-16.621094c3.125-3.125 3.125-8.191406 0-11.316406-3.125-3.121094-8.191406-3.121094-11.3125 0l-16.621094 16.625c-2.289062 2.285156-2.972656 5.726562-1.734375 8.71875 1.238281 2.988281 4.15625 4.9375 7.394531 4.9375zm0 0"/><path d="m52.1875 178.71875-16.625 16.621094c-3.121094 3.125-3.121094 8.191406.003906 11.316406 3.125 3.121094 8.1875 3.121094 11.3125-.003906l16.621094-16.617188c3.125-3.125 3.125-8.191406 0-11.316406s-8.1875-3.125-11.3125 0zm0 0"/><path d="m40 122.015625c0-4.417969-3.582031-8-8-8h-24c-4.417969 0-8 3.582031-8 8 0 4.421875 3.582031 8 8 8h24c4.417969 0 8-3.578125 8-8zm0 0"/><path d="m52.1875 63.53125c3.128906 3.089844 8.167969 3.074219 11.277344-.035156 3.113281-3.109375 3.125-8.148438.035156-11.277344l-16.621094-16.625c-3.125-3.121094-8.191406-3.121094-11.3125 0-3.125 3.125-3.125 8.191406-.003906 11.316406zm0 0"/></svg>