<svg height="492pt" viewBox="0 -18 492.07 492" width="492pt" xmlns="http://www.w3.org/2000/svg"><path d="m112.253906 347.378906c-4.140625-1.535156-8.746094.578125-10.277344 4.722656l-10.875 29.351563c-1.0625 2.695313-.585937 5.753906 1.25 7.996094 1.832032 2.246093 4.734376 3.320312 7.589844 2.8125 2.851563-.503907 5.207032-2.511719 6.160156-5.25l10.871094-29.351563c1.535156-4.144531-.578125-8.746094-4.71875-10.28125zm0 0"/><path d="m179.65625 347.378906c-4.144531-1.535156-8.746094.578125-10.28125 4.722656l-10.875 29.351563c-1.066406 2.695313-.589844 5.757813 1.246094 8.003906 1.835937 2.246094 4.738281 3.320313 7.59375 2.8125 2.855468-.507812 5.210937-2.519531 6.160156-5.257812l10.871094-29.355469c1.535156-4.140625-.574219-8.742188-4.714844-10.277344zm0 0"/><path d="m234.492188 392.234375c3.347656 0 6.339843-2.085937 7.5-5.222656l10.871093-29.351563c1.425781-4.113281-.699219-8.609375-4.777343-10.121094-4.082032-1.507812-8.621094.515626-10.222657 4.5625l-10.871093 29.351563c-.90625 2.457031-.554688 5.199219.9375 7.347656 1.496093 2.148438 3.945312 3.429688 6.5625 3.433594zm0 0"/><path d="m315.546875 347.378906c-4.144531-1.535156-8.746094.578125-10.28125 4.722656l-10.871094 29.351563c-1.066406 2.695313-.589843 5.757813 1.246094 8.003906 1.832031 2.246094 4.738281 3.320313 7.59375 2.8125 2.855469-.507812 5.210937-2.519531 6.160156-5.257812l10.871094-29.355469c1.535156-4.140625-.578125-8.742188-4.71875-10.277344zm0 0"/><path d="m384.035156 347.378906c-4.144531-1.535156-8.746094.578125-10.28125 4.722656l-10.871094 29.351563c-1.066406 2.695313-.589843 5.757813 1.246094 8.003906 1.835938 2.246094 4.742188 3.320313 7.59375 2.8125 2.855469-.507812 5.210938-2.519531 6.160156-5.257812l10.871094-29.355469c1.535156-4.140625-.578125-8.742188-4.71875-10.277344zm0 0"/><path d="m451.4375 347.378906c-4.144531-1.535156-8.746094.578125-10.28125 4.722656l-10.875 29.351563c-1.0625 2.695313-.582031 5.753906 1.25 7.996094 1.835938 2.246093 4.738281 3.320312 7.59375 2.8125 2.851562-.503907 5.207031-2.511719 6.15625-5.25l10.875-29.351563c1.535156-4.144531-.578125-8.746094-4.71875-10.28125zm0 0"/><path d="m111.355469 455.886719c1.988281.738281 4.191406.65625 6.121093-.230469 1.929688-.886719 3.425782-2.503906 4.160157-4.496094l10.871093-29.351562c1.417969-4.109375-.707031-8.601563-4.785156-10.109375-4.074218-1.511719-8.613281.511719-10.214844 4.554687l-10.875 29.351563c-1.535156 4.140625.582032 8.746093 4.722657 10.28125zm0 0"/><path d="m178.757812 455.886719c1.988282.738281 4.191407.65625 6.121094-.230469 1.925782-.886719 3.425782-2.503906 4.160156-4.496094l10.871094-29.351562c1.066406-2.695313.59375-5.761719-1.242187-8.007813-1.835938-2.246093-4.742188-3.324219-7.601563-2.816406-2.855468.511719-5.210937 2.527344-6.15625 5.269531l-10.875 29.351563c-1.535156 4.144531.578125 8.746093 4.722656 10.28125zm0 0"/><path d="m257.527344 451.160156 10.871094-29.351562c1.070312-2.695313.59375-5.761719-1.238282-8.007813-1.835937-2.246093-4.746094-3.324219-7.601562-2.816406-2.855469.511719-5.210938 2.527344-6.160156 5.269531l-10.875 29.351563c-1.070313 2.695312-.59375 5.761719 1.238281 8.007812 1.835937 2.246094 4.746093 3.324219 7.601562 2.816407 2.855469-.511719 5.210938-2.527344 6.160157-5.269532zm0 0"/><path d="m314.648438 455.886719c1.988281.738281 4.191406.65625 6.117187-.230469 1.929687-.886719 3.425781-2.503906 4.164063-4.496094l10.871093-29.351562c1.417969-4.109375-.707031-8.601563-4.785156-10.109375-4.078125-1.511719-8.613281.511719-10.214844 4.554687l-10.875 29.351563c-1.535156 4.140625.578125 8.746093 4.722657 10.28125zm0 0"/><path d="m383.136719 455.886719c1.988281.738281 4.191406.65625 6.117187-.230469 1.929688-.886719 3.425782-2.503906 4.160156-4.496094l10.871094-29.351562c1.417969-4.109375-.707031-8.601563-4.78125-10.109375-4.078125-1.511719-8.613281.511719-10.21875 4.554687l-10.875 29.351563c-1.53125 4.144531.582032 8.746093 4.726563 10.28125zm0 0"/><path d="m450.535156 455.886719c1.992188.738281 4.191406.65625 6.121094-.230469s3.425781-2.503906 4.160156-4.496094l10.871094-29.351562c1.070312-2.695313.59375-5.761719-1.242188-8.007813-1.835937-2.246093-4.742187-3.324219-7.597656-2.816406-2.855468.511719-5.214844 2.527344-6.160156 5.269531l-10.875 29.351563c-1.535156 4.144531.582031 8.746093 4.722656 10.28125zm0 0"/><path d="m87.722656 171.214844c-11.402344 17.832031-17.445312 38.5625-17.421875 59.726562v.285156.230469c0 .117188-.007812.476563-.007812.597657.007812 49.480468 40.265625 89.980468 89.746093 89.980468h242.289063c49.484375 0 89.742187-40.5 89.742187-89.984375 0-.683593-.078124-1.367187-.230468-2.035156-.847656-42.5-35.535156-76.519531-78.046875-76.539063-1.839844 0-3.730469.003907-5.660157.089844-4.015624-66.515625-59.089843-118.421875-125.726562-118.5-27.707031-.085937-54.652344 9.054688-76.585938 25.984375-12.125 9.339844-22.457031 20.792969-30.507812 33.8125-11.050781-22.863281-35.253906-36.335937-60.503906-33.691406-25.253906 2.648437-46.136719 20.851563-52.203125 45.503906-6.070313 24.65625 3.976562 50.472657 25.117187 64.539063zm194.683594-120.15625c60.679688.058594 109.863281 49.21875 109.945312 109.898437 0 .433594 0 .859375-.011718 1.292969-.0625 2.429688.984375 4.757812 2.84375 6.324219 1.863281 1.566406 4.332031 2.199219 6.71875 1.726562 18.222656-3.054687 36.871094 1.980469 51.078125 13.796875 14.207031 11.8125 22.5625 29.234375 22.882812 47.707032 0 .664062.0625 1.324218.1875 1.972656-.921875 39.871094-33.640625 72.257812-73.722656 72.257812h-242.289063c-40.515624 0-73.507812-33.089844-73.738281-73.554687.007813-.167969.011719-.414063.011719-.585938 0-.269531-.015625-.859375-.03125-.859375h.019531c0-48 35.921875-88.652344 83.554688-94.222656 3.214843-.382812 5.886719-2.667969 6.765625-5.785156 13.546875-47.222656 56.660156-79.816406 105.785156-79.96875zm-161.304688 25.785156c22.269532.050781 41.046876 16.609375 43.882813 38.699219-.78125 2.003906-1.53125 4.023437-2.207031 6.070312-25.457032 4.203125-48.632813 17.214844-65.476563 36.757813-16.570312-10.578125-24.171875-30.816406-18.664062-49.6875 5.507812-18.867188 22.804687-31.839844 42.464843-31.839844zm0 0"/><path d="m120 40.035156c4.417969 0 8-3.582031 8-8v-24c0-4.417968-3.582031-7.9999998-8-7.9999998s-8 3.5820318-8 7.9999998v24c0 4.417969 3.582031 8 8 8zm0 0"/><path d="m184.347656 65.824219c2.121094 0 4.152344-.839844 5.652344-2.34375l16.621094-16.621094c3.03125-3.136719 2.988281-8.128906-.097656-11.214844-3.085938-3.085937-8.074219-3.128906-11.214844-.097656l-16.621094 16.621094c-2.289062 2.289062-2.972656 5.726562-1.734375 8.71875 1.238281 2.988281 4.15625 4.9375 7.394531 4.9375zm0 0"/><path d="m46.878906 206.605469 16.621094-16.621094c3.125-3.125 3.125-8.191406 0-11.3125-3.125-3.125-8.191406-3.125-11.3125 0l-16.625 16.617187c-3.121094 3.125-3.121094 8.191407.003906 11.316407 3.121094 3.125 8.1875 3.125 11.3125 0zm0 0"/><path d="m8 130.035156h24c4.417969 0 8-3.582031 8-8 0-4.417968-3.582031-8-8-8h-24c-4.417969 0-8 3.582032-8 8 0 4.417969 3.582031 8 8 8zm0 0"/><path d="m52.1875 63.480469c3.121094 3.125 8.1875 3.125 11.3125 0s3.125-8.1875 0-11.3125l-16.621094-16.621094c-3.125-3.125-8.1875-3.125-11.3125 0s-3.125 8.1875-.003906 11.3125zm0 0"/></svg>