<svg height="473pt" viewBox="0 0 473 473.26885" width="473pt" xmlns="http://www.w3.org/2000/svg"><path d="m473.121094 173.433594c-.949219-3.46875-4.128906-5.855469-7.726563-5.800782h-.128906l-93.558594 1.429688c-2.65625-5.289062-5.617187-10.417969-8.875-15.363281l48.171875-80.324219c1.890625-3.144531 1.390625-7.175781-1.203125-9.769531s-6.621093-3.089844-9.769531-1.203125l-80.324219 48.167968c-4.902343-3.222656-9.984375-6.160156-15.222656-8.800781l1.546875-93.636719c.0625-3.667968-2.382812-6.910156-5.925781-7.859374-3.546875-.949219-7.285157.632812-9.066407 3.84375l-45.492187 81.886718c-5.847656-.332031-11.710937-.332031-17.558594 0l-45.492187-81.882812c-1.78125-3.210938-5.519532-4.792969-9.066406-3.84375-3.542969.949218-5.988282 4.1875-5.929688 7.855468l1.554688 93.628907c-5.238282 2.640625-10.320313 5.578125-15.222657 8.800781l-80.324219-48.160156c-3.148437-1.886719-7.175781-1.390625-9.769531 1.203125-2.597656 2.59375-3.09375 6.625-1.207031 9.769531l48.171875 80.324219c-3.253906 4.945312-6.214844 10.074219-8.875 15.363281l-93.554687-1.429688h-.136719c-3.617188-.070312-6.8125 2.339844-7.734375 5.835938-.921875 3.5.667968 7.175781 3.851562 8.894531l81.882813 45.488281c-.167969 2.914063-.265625 5.851563-.265625 8.78125 0 2.933594.097656 5.847657.261718 8.75l-81.878906 45.457032c-3.1875 1.730468-4.78125 5.414062-3.863281 8.921875.921875 3.507812 4.121094 5.933593 7.746094 5.871093h.136719l93.554687-1.425781c2.660156 5.289063 5.621094 10.417969 8.875 15.363281l-48.171875 80.320313c-1.886719 3.148437-1.390625 7.175781 1.207031 9.773437 2.59375 2.59375 6.621094 3.089844 9.769531 1.203126l80.324219-48.167969c4.902344 3.222656 9.984375 6.160156 15.222657 8.796875l-1.554688 93.636718c-.058594 3.671876 2.382812 6.914063 5.929688 7.863282 3.546874.949218 7.28125-.632813 9.066406-3.84375l45.488281-81.882813c2.914063.167969 5.847656.261719 8.78125.261719s5.871094-.097656 8.78125-.261719l45.492187 81.882813c1.78125 3.210937 5.519532 4.792968 9.066407 3.84375 3.542969-.949219 5.988281-4.191406 5.925781-7.863282l-1.554688-93.628906c5.242188-2.636718 10.324219-5.574218 15.222657-8.796875l80.328125 48.167969c3.144531 1.886719 7.171875 1.390625 9.769531-1.203125 2.59375-2.597656 3.089844-6.625 1.203125-9.769531l-48.171875-80.324219c3.253906-4.945313 6.21875-10.074219 8.875-15.363281l93.5625 1.417968h.136719c3.613281.074219 6.8125-2.335937 7.734375-5.835937.921875-3.496094-.667969-7.171875-3.851563-8.890625l-81.882812-45.496094c.167968-2.910156.261718-5.84375.261718-8.777344 0-2.929687-.097656-5.84375-.257812-8.746093l81.878906-45.457031c3.199219-1.753907 4.785156-5.472657 3.835938-8.996094zm-92.285156-80.863282-28.328126 47.234376c-.074218-.089844-.152343-.171876-.226562-.257813-.921875-1.09375-1.871094-2.160156-2.824219-3.226563-.5-.558593-.976562-1.132812-1.480469-1.683593-1.449218-1.582031-2.933593-3.132813-4.449218-4.652344l-.109375-.105469c-1.519531-1.519531-3.074219-3.003906-4.660157-4.457031-.527343-.488281-1.082031-.949219-1.621093-1.429687-1.085938-.96875-2.171875-1.9375-3.289063-2.878907-.085937-.070312-.164062-.148437-.25-.21875zm-91.332032-52.734374-.914062 55.042968c-.101563-.039062-.210938-.074218-.3125-.109375-.582032-.214843-1.167969-.417969-1.753906-.621093-.4375-.152344-.875-.308594-1.316407-.457032-.640625-.21875-1.285156-.425781-1.929687-.636718-.386719-.125-.773438-.253907-1.160156-.375-.765626-.242188-1.535157-.472657-2.300782-.703126-.273437-.078124-.542968-.164062-.816406-.242187-2.097656-.613281-4.210938-1.175781-6.335938-1.695313-.28125-.066406-.5625-.128906-.84375-.199218-.777343-.183594-1.554687-.367188-2.335937-.542969-.371094-.082031-.746094-.15625-1.121094-.234375-.691406-.148438-1.386719-.300781-2.082031-.433594-.40625-.082031-.816406-.15625-1.226562-.230468-.664063-.128907-1.328126-.253907-2-.371094-.097657-.015625-.199219-.039063-.296876-.054688zm-78.726562 48.136718c-.109375.019532-.214844.042969-.324219.058594-.628906.113281-1.253906.230469-1.882813.347656-.445312.085938-.890624.167969-1.335937.253906-.652344.128907-1.300781.269532-1.949219.40625-.414062.089844-.832031.171876-1.25.265626-.71875.15625-1.433594.328124-2.148437.5-.34375.078124-.6875.15625-1.03125.238281-1.011719.25-2.019531.507812-3.027344.773437l-.132813.035156c-1.054687.28125-2.101562.574219-3.148437.878907-.332031.101562-.65625.199219-.988281.300781-.710938.210938-1.421875.421875-2.128906.644531-.421876.132813-.839844.273438-1.257813.410157-.613281.199218-1.226563.394531-1.835937.601562-.460938.15625-.921876.320312-1.382813.480469-.558594.199219-1.125.390625-1.683594.59375-.109375.042969-.21875.078125-.324219.117187l-.914062-55.042968zm-70.839844 32.921875c-.085938.070313-.167969.148438-.25.21875-1.121094.941407-2.207031 1.914063-3.300781 2.882813-.535157.480468-1.085938.941406-1.617188 1.425781-1.582031 1.449219-3.132812 2.933594-4.652343 4.449219l-.105469.105468c-1.519531 1.523438-3.007813 3.074219-4.460938 4.660157-.503906.554687-.984375 1.128906-1.480469 1.6875-.949218 1.066406-1.902343 2.128906-2.820312 3.222656-.074219.085937-.15625.167969-.226562.257813l-28.328126-47.238282zm-44.929688 63.917969c-.039062.105469-.074218.214844-.113281.324219-.199219.5625-.402343 1.128906-.601562 1.699219-.160157.457031-.324219.914062-.476563 1.371093-.210937.617188-.410156 1.238281-.609375 1.855469-.132812.414062-.273437.824219-.402343 1.238281-.226563.714844-.4375 1.4375-.652344 2.15625-.101563.320313-.203125.640625-.292969.960938-.609375 2.09375-1.171875 4.199219-1.6875 6.320312-.074219.300781-.136719.601563-.210937.894531-.179688.761719-.359376 1.523438-.527344 2.289063-.085938.378906-.160156.765625-.242188 1.148437-.144531.679688-.289062 1.363282-.425781 2.046876-.085937.425781-.160156.851562-.242187 1.277343-.121094.644531-.246094 1.289063-.359376 1.9375-.015624.105469-.039062.210938-.058593.316407l-48.140625-26.75zm-55.042968 104.558594 48.144531-26.746094c.019531.113281.042969.222656.0625.335938.105469.613281.222656 1.222656.335937 1.832031.085938.460937.171876.921875.261719 1.378906.128907.644531.265625 1.285156.398438 1.929687.089843.421876.175781.84375.269531 1.265626.15625.710937.324219 1.417968.492188 2.128906.082031.347656.160156.699218.246093 1.050781.234375.957031.476563 1.914063.730469 2.863281.027344.101563.050781.203125.078125.300782.28125 1.046874.570313 2.089843.875 3.128906.109375.378906.226563.753906.339844 1.128906.199219.664062.398437 1.328125.597656 1.992188.144531.445312.289063.886718.433594 1.328124.191406.589844.382812 1.175782.578125 1.761719.164062.484375.335937.964844.5 1.445313.191406.542968.378906 1.082031.574218 1.625.039063.109375.078126.222656.117188.335937zm52.734375 91.332031 28.328125-47.238281c.070312.085937.152344.171875.226562.257812.917969 1.101563 1.875 2.164063 2.824219 3.230469.5.554687.972656 1.128906 1.476563 1.675781 1.453124 1.582032 2.9375 3.132813 4.453124 4.65625l.105469.105469c1.519531 1.519531 3.074219 3.003906 4.664063 4.457031.523437.484375 1.074218.945313 1.609375 1.421875 1.089843.972657 2.179687 1.945313 3.300781 2.886719.085938.070312.167969.144531.253906.21875zm91.332031 52.730469.914062-55.042969c.097657.035156.191407.066406.289063.097656.613281.226563 1.230469.441407 1.851563.65625.410156.140625.816406.289063 1.226562.429688.664062.222656 1.332031.4375 2 .652343.367188.121094.734375.242188 1.101562.359376.78125.246093 1.5625.480468 2.347657.710937.257812.078125.511719.160156.769531.234375 2.101562.613281 4.214844 1.175781 6.34375 1.695312.265625.066407.53125.121094.800781.1875.792969.1875 1.585938.375 2.382813.550782.359375.078125.726562.152344 1.085937.230468.703125.148438 1.410157.300782 2.117188.4375.398437.082032.808593.15625 1.210937.230469.667969.128907 1.332032.253907 2 .371094.101563.015625.203125.039063.308594.054687zm40.175781-62.488282c-2.851562-.261718-5.683593-.613281-8.5-1.054687-1.875-.292969-3.742187-.628906-5.597656-1-1.859375-.371094-3.707031-.78125-5.542969-1.226563-8.277344-2.023437-16.34375-4.835937-24.082031-8.398437h-.007813c-18.78125-8.640625-35.328124-21.484375-48.359374-37.535156-1.863282-2.296875-3.679688-4.632813-5.398438-7.054688-4.851562-6.84375-9.058594-14.117187-12.570312-21.734375-.003907-.007812-.007813-.015625-.007813-.023437-6.351563-13.804688-10.304687-28.59375-11.6875-43.726563v-.011718c-.382813-4.113282-.578125-8.332032-.578125-12.539063s.199219-8.410156.578125-12.523437v-.019532c1.382813-15.128906 5.332031-29.910156 11.683594-43.707031.027343-.058594.046875-.121094.070312-.183594 6.621094-14.347656 15.710938-27.421875 26.851563-38.625.105468-.109375.207031-.222656.316406-.332031.25-.25.515625-.488281.769531-.738281 4.554688-4.476563 9.417969-8.621094 14.554688-12.410157.679687-.5 1.34375-1.019531 2.035156-1.507812 6.84375-4.855469 14.125-9.066406 21.75-12.578125.863281-.402344 1.730469-.789063 2.597656-1.164063 13.066407-5.679687 26.953125-9.230468 41.136719-10.523437 4.113281-.386719 8.335938-.582031 12.546875-.582031 4.214844 0 8.433594.199218 12.558594.582031 15.132812 1.382813 29.921875 5.332031 43.722656 11.6875 18.785156 8.636719 35.332031 21.480469 48.363281 37.535156 1.863282 2.292969 3.679688 4.632813 5.398438 7.054688 4.855468 6.84375 9.066406 14.128906 12.578125 21.75.402343.863281.789062 1.730469 1.164062 2.601562 5.296875 12.179688 8.746094 25.078125 10.238281 38.277344.050782.46875.097657.9375.144532 1.40625.042968.46875.105468.960937.148437 1.441406.382813 4.117188.578125 8.335938.578125 12.546875 0 4.210938-.195312 8.410156-.578125 12.527344v.015625c-1.382812 15.128906-5.332031 29.910156-11.683593 43.707031-.027344.0625-.046876.125-.070313.183594-6.621094 14.347656-15.710937 27.421875-26.851563 38.628906-.105468.105469-.207031.222656-.316406.328125-.25.253907-.515625.492188-.769531.742188-4.554687 4.472656-9.417969 8.621093-14.554687 12.40625-.679688.5-1.34375 1.019531-2.035157 1.507812-6.84375 4.859375-14.125 9.070313-21.75 12.582031-1.722656.792969-3.464843 1.550782-5.21875 2.269532-12.296875 5.035156-25.28125 8.207031-38.515625 9.417968-8.351562.769532-16.757812.769532-25.109375.003907zm38.550781 14.347657c.109376-.019531.21875-.042969.328126-.0625.625-.109375 1.25-.226563 1.878906-.347657.441406-.082031.886718-.164062 1.332031-.25.660156-.132812 1.320313-.273437 1.980469-.414062.402344-.085938.8125-.167969 1.21875-.253906.730468-.164063 1.457031-.335938 2.1875-.507813.328125-.078125.660156-.152343.992187-.230469 1.042969-.253906 2.082031-.523437 3.117188-.800781l.042969-.011719c1.054687-.28125 2.105468-.574218 3.152343-.878906.3125-.089844.625-.191406.933594-.28125.730469-.21875 1.460937-.4375 2.1875-.664062.398437-.125.796875-.257813 1.191406-.386719.636719-.207031 1.273438-.414063 1.90625-.628906.433594-.144531.863281-.296875 1.292969-.449219.597656-.207031 1.195312-.417969 1.789062-.632812l.296876-.105469.914062 55.042969zm70.839844-32.921875c.082032-.070313.164063-.148438.25-.21875 1.121094-.941406 2.210938-1.917969 3.300782-2.890625.53125-.476563 1.082031-.933594 1.605468-1.417969 1.582032-1.449219 3.132813-2.933594 4.65625-4.449219l.101563-.101562c1.523437-1.519531 3.011719-3.074219 4.460937-4.660157.5-.550781.984375-1.121093 1.480469-1.679687.949219-1.066406 1.902344-2.132813 2.824219-3.226563.074218-.089843.152344-.171874.226562-.261718l28.328125 47.242187zm44.929688-63.917969c.039062-.105469.074218-.214844.113281-.324219.199219-.5625.398437-1.128906.597656-1.699218.160157-.457032.324219-.914063.480469-1.371094.207031-.613282.398438-1.226563.601562-1.84375.132813-.417969.273438-.832032.40625-1.25.222657-.714844.4375-1.429688.648438-2.144532.101562-.324218.203125-.648437.292969-.972656.609375-2.09375 1.175781-4.199218 1.691406-6.320312.070313-.300782.136719-.601563.210937-.898438.179688-.757812.355469-1.515625.527344-2.277344.082032-.390624.160156-.777343.242188-1.167968.148437-.675782.289062-1.351563.425781-2.03125.082031-.425782.160156-.855469.242187-1.28125.121094-.644532.242188-1.289063.359376-1.933594.015624-.105469.039062-.210938.054687-.316406l48.144531 26.75zm6.898437-77.8125c-.019531-.109375-.042969-.21875-.0625-.332031-.109375-.617188-.226562-1.230469-.339843-1.84375-.085938-.457032-.167969-.914063-.257813-1.371094-.128906-.640625-.265625-1.277344-.402344-1.914062-.089843-.429688-.175781-.855469-.269531-1.285157-.15625-.707031-.324219-1.410156-.488281-2.113281-.085938-.355469-.164063-.707031-.25-1.0625-.234375-.957031-.476563-1.914062-.730469-2.863281-.027344-.101563-.050781-.199219-.078125-.300781-.277344-1.046876-.570313-2.089844-.875-3.128907-.109375-.382812-.226563-.761719-.34375-1.140625-.199219-.660156-.390625-1.320312-.597656-1.976562-.140625-.449219-.292969-.902344-.4375-1.347656-.191407-.582032-.378907-1.164063-.574219-1.746094-.164062-.480469-.332031-.957032-.5-1.4375-.191406-.542969-.378906-1.089844-.578125-1.632813-.039063-.113281-.078125-.222656-.117187-.335937l55.042968-.914063zm0 0"/></svg>