<svg height="494pt" viewBox="-122 0 494 494.61205" width="494pt" xmlns="http://www.w3.org/2000/svg"><path d="m192.304688 273.429688v-211.929688c0-33.964844-27.53125-61.5-61.5-61.5-33.964844 0-61.5 27.535156-61.5 61.5v211.898438c-36.296876 21.765624-58.238282 61.226562-57.574219 103.542968.28125 29.953125 12.246093 58.621094 33.515625 80.71875 20.886718 21.886719 49.300781 35.039063 79.507812 36.792969 2.101563.105469 4.226563.160156 6.316406.160156 53.550782.046875 100.542969-35.667969 114.832032-87.277343 14.289062-51.609376-7.644532-106.410157-53.597656-133.90625zm9.996093 176.789062c-29.832031 28.003906-73.351562 35.816406-111.058593 19.929688-37.703126-15.882813-62.519532-52.480469-63.316407-93.386719-.484375-38.484375 19.84375-73.601563 53.367188-91.65625l4.011719-2.265625v-19.511719h10c4.417968 0 8-3.582031 8-8s-3.582032-8-8-8h-10v-14h20c4.417968 0 8-3.582031 8-8s-3.582032-8-8-8h-20v-14h10c4.417968 0 8-3.582031 8-8s-3.582032-8-8-8h-10v-14h20c4.417968 0 8-3.582031 8-8s-3.582032-8-8-8h-20v-14h10c4.417968 0 8-3.582031 8-8s-3.582032-8-8-8h-10v-14h20c4.417968 0 8-3.582031 8-8s-3.582032-8-8-8h-20v-14h10c4.417968 0 8-3.582031 8-8s-3.582032-8-8-8h-10v-5.828125c0-25.128906 20.371093-45.5 45.5-45.5 25.128906 0 45.5 20.371094 45.5 45.5v221.300781l4.304687 2.273438c28.898437 15.78125 48.515625 44.414062 52.804687 77.058593 4.289063 32.644532-7.273437 65.375-31.113281 88.082032zm0 0"/><path d="m139.304688 333.445312v-284.152343c0-4.417969-3.582032-8-8-8-4.417969 0-8 3.582031-8 8v284.152343c-21.820313 4.128907-36.917969 24.1875-34.84375 46.300782 2.074218 22.109375 20.636718 39.011718 42.84375 39.011718 22.210937 0 40.773437-16.902343 42.84375-39.011718 2.074218-22.113282-13.019532-42.171875-34.84375-46.300782zm-8.160157 69.429688c-14.960937 0-27.09375-12.132812-27.09375-27.09375 0-14.964844 12.132813-27.09375 27.09375-27.09375 14.964844 0 27.09375 12.128906 27.09375 27.09375-.015625 14.957031-12.136719 27.078125-27.09375 27.09375zm0 0"/><path d="m43.304688 255.328125c0-4.417969-3.582032-8-8-8h-27c-4.417969 0-8 3.582031-8 8s3.582031 8 8 8h27c4.417968 0 8-3.582031 8-8zm0 0"/><path d="m8.304688 83.328125h5v6c0 4.417969 3.582031 8 8 8 4.417968 0 8-3.582031 8-8v-6h6c4.417968 0 8-3.582031 8-8s-3.582032-8-8-8h-6v-5c0-4.417969-3.582032-8-8-8-4.417969 0-8 3.582031-8 8v5h-5c-4.417969 0-8 3.582031-8 8s3.582031 8 8 8zm0 0"/></svg>