<svg height="494pt" viewBox="-48 0 494 494.58009" width="494pt" xmlns="http://www.w3.org/2000/svg"><path d="m128.023438 333.414062v-284.152343c0-4.421875-3.578126-8-8-8-4.417969 0-8 3.578125-8 8v284.152343c-22.390626 4.144532-37.683594 25.003907-34.90625 47.605469 2.777343 22.601563 22.664062 39.136719 45.394531 37.742188 22.726562-1.394531 40.445312-20.242188 40.433593-43.011719 0-21.027344-15.921874-38.574219-34.921874-42.335938zm-8.460938 69.429688c-14.960938 0-27.089844-12.132812-27.089844-27.09375 0-14.964844 12.128906-27.09375 27.089844-27.09375 14.964844 0 27.09375 12.128906 27.09375 27.09375-.015625 14.953125-12.136719 27.074219-27.09375 27.09375zm0 0"/><path d="m397.4375 169.039062c-.957031-3.457031-4.136719-5.824218-7.722656-5.742187h-.136719l-69.542969.980469c-1.722656-3.351563-3.609375-6.617188-5.65625-9.800782l35.832032-59.746093c1.886718-3.148438 1.390624-7.175781-1.203126-9.769531-2.597656-2.597657-6.625-3.09375-9.773437-1.203126l-59.746094 35.828126c-3.109375-2-6.3125-3.851563-9.605469-5.554688l1.15625-69.644531c.0625-3.667969-2.382812-6.910157-5.925781-7.863281-3.546875-.949219-7.285156.636718-9.066406 3.84375l-33.835937 60.910156c-3.683594-.171875-7.402344-.171875-11.078126 0l-33.839843-60.910156-.007813.007812c-10.246094-28.007812-39.105468-44.628906-68.472656-39.433594-29.363281 5.191406-50.773438 30.707032-50.789062 60.527344v211.898438c-36.332032 21.746093-58.328126 61.203124-57.722657 103.539062.28125 29.957031 12.171875 58.625 33.441407 80.722656 20.871093 21.886719 49.277343 35.035156 79.46875 36.792969 2.101562.105469 4.210937.15625 6.300781.15625 34 .019531 66.394531-14.484375 89.023437-39.859375 22.632813-25.371094 33.351563-59.203125 29.464844-92.984375l18.046875 32.488281c1.78125 3.210938 5.519531 4.792969 9.066406 3.84375 3.542969-.949218 5.988281-4.191406 5.925781-7.863281l-1.15625-69.644531c3.285157-1.695313 6.484376-3.546875 9.605469-5.550782l59.746094 35.828126c3.148437 1.886718 7.175781 1.390624 9.773437-1.203126 2.59375-2.59375 3.089844-6.625 1.203126-9.773437l-35.832032-59.746094c2.042969-3.171875 3.925782-6.441406 5.65625-9.800781l69.542969.984375h.136719c3.585937.078125 6.769531-2.289063 7.722656-5.746094.949219-3.496093-.644531-7.179687-3.839844-8.878906l-60.90625-33.84375c.085938-1.839844.132813-3.6875.132813-5.53125 0-1.847656-.046875-3.667969-.132813-5.492187l60.902344-33.792969c3.203125-1.738281 4.792969-5.453125 3.84375-8.972657zm-77.390625-55.117187-16.054687 26.773437c-.402344-.453124-.8125-.890624-1.214844-1.339843-.300782-.332031-.601563-.664063-.902344-.992188-2.007812-2.167969-4.097656-4.257812-6.269531-6.269531-.324219-.300781-.65625-.59375-.984375-.894531-.449219-.40625-.890625-.820313-1.347656-1.21875zm-65.535156-37.84375-.515625 31.195313c-.554688-.1875-1.117188-.359376-1.671875-.539063-.445313-.140625-.890625-.289063-1.335938-.425781-1.351562-.417969-2.710937-.816406-4.074219-1.183594l-.21875-.0625c-1.398437-.375-2.816406-.714844-4.230468-1.035156-.457032-.097656-.914063-.199219-1.371094-.292969-.578125-.125-1.15625-.257813-1.738281-.375zm-28.515625 41.5c2.824218.261719 5.621094.636719 8.394531 1.132813 8.308594 1.476562 16.398437 4.011718 24.066406 7.542968 5.65625 2.605469 11.058594 5.734375 16.140625 9.335938 1.152344.820312 2.289063 1.660156 3.402344 2.523437 6.675781 5.171875 12.671875 11.171875 17.847656 17.847657.859375 1.113281 1.703125 2.246093 2.523438 3.398437 3.605468 5.085937 6.730468 10.492187 9.339844 16.152344 4.714843 10.25 7.652343 21.230469 8.675781 32.46875.285156 3.054687.429687 6.191406.429687 9.316406s-.144531 6.230469-.429687 9.285156v.019531c-1.023438 11.226563-3.957031 22.195313-8.675781 32.433594-.03125.074219-.054688.152344-.085938.230469-7.351562 15.898437-18.738281 29.601563-33.023438 39.738281-5.082031 3.605469-10.488281 6.730469-16.148437 9.339844-1.28125.585938-2.574219 1.148438-3.875 1.683594-9.132813 3.738281-18.769531 6.09375-28.597656 6.992187-.792969.074219-1.589844.125-2.390625.179688-10.152344-18.042969-24.820313-33.136719-42.566406-43.804688v-149.699219c8.445312-3.277343 17.3125-5.335937 26.335937-6.113281 6.199219-.574219 12.4375-.578125 18.636719-.007812zm-44.972656-37.566406 12.984374 23.371093c-4.394531.835938-8.734374 1.960938-12.984374 3.363282zm9.695312 370.175781c-29.828125 28.003906-73.351562 35.8125-111.054688 19.929688-37.707031-15.882813-62.519531-52.484376-63.316406-93.390626-.488281-38.480468 19.992188-73.597656 53.515625-91.652343l4.160157-2.265625v-18.511719h10c4.421874 0 8-3.582031 8-8s-3.578126-8-8-8h-10v-14h20c4.421874 0 8-3.582031 8-8s-3.578126-8-8-8h-20v-14h10c4.421874 0 8-3.582031 8-8s-3.578126-8-8-8h-10v-14h20c4.421874 0 8-3.582031 8-8s-3.578126-8-8-8h-20v-14h10c4.421874 0 8-3.582031 8-8s-3.578126-8-8-8h-10v-14h20c4.421874 0 8-3.582031 8-8s-3.578126-8-8-8h-20v-14h10c4.421874 0 8-3.582031 8-8s-3.578126-8-8-8h-10v-6.828125c0-25.128906 20.371093-45.5 45.5-45.5 25.128906 0 45.5 20.371094 45.5 45.5v221.300781l4.15625 2.273438c28.882812 15.800781 48.480468 44.449219 52.738281 77.09375 4.261719 32.648437-7.335938 65.363281-31.199219 88.046875zm48.636719-118.957031c.589843-.113281 1.171875-.25 1.761719-.375.441406-.097657.890624-.1875 1.335937-.289063 1.433594-.324218 2.867187-.667968 4.289063-1.050781l.113281-.03125c1.390625-.371094 2.769531-.777344 4.140625-1.199219.4375-.136718.878906-.28125 1.316406-.425781.5625-.179687 1.125-.347656 1.683594-.539063l.515625 31.195313zm53.917969-26.613281c.453124-.402344.894531-.8125 1.34375-1.21875.332031-.300782.664062-.597657.992187-.898438 1.082031-1 2.152344-2.023438 3.199219-3.066406 1.042968-1.042969 2.0625-2.113282 3.066406-3.195313.296875-.328125.597656-.664062.898438-1 .398437-.445312.816406-.886719 1.210937-1.339843l16.058594 26.773437zm33.421874-50c.1875-.554688.355469-1.117188.535157-1.675782.144531-.441406.289062-.882812.429687-1.328125.421875-1.367187.824219-2.742187 1.199219-4.128906.011719-.039063.023437-.078125.035156-.121094.378907-1.421875.722657-2.851562 1.050781-4.289062.097657-.441407.1875-.886719.285157-1.328125.125-.589844.261719-1.175782.378906-1.769532l27.277344 15.15625zm3.910157-60.007813c-.117188-.601563-.253907-1.195313-.382813-1.792969-.09375-.429687-.179687-.863281-.277344-1.289062-.328124-1.445313-.675781-2.882813-1.054687-4.3125l-.011719-.046875c-.378906-1.410157-.792968-2.8125-1.222656-4.207031-.136719-.433594-.277344-.863282-.417969-1.296876-.179687-.5625-.351562-1.132812-.542969-1.699218l31.191407-.515625zm0 0"/></svg>