<svg height="458pt" viewBox="0 -19 458.725 458" width="458pt" xmlns="http://www.w3.org/2000/svg"><path d="m418.226562.363281h-410.226562c-4.417969 0-8 3.582031-8 8s3.582031 8 8 8h410.226562c13.53125 0 24.5 10.96875 24.5 24.5s-10.96875 24.5-24.5 24.5h-339.824218c-22.640625 0-41 18.355469-41 41s18.359375 41 41 41h283.5c13.808594 0 25 11.191407 25 25 0 13.804688-11.191406 25-25 25h-236.5625c-22.367188 0-40.5 18.132813-40.5 40.5 0 22.367188 18.132812 40.5 40.5 40.5h199.011718c13.808594 0 25 11.191407 25 25 0 13.804688-11.191406 25-25 25h-104.199218c-22.519532.074219-40.707032 18.402344-40.613282 40.921875v43.566406c0 4.417969 3.582032 8 8 8 4.417969 0 8-3.582031 8-8v-43.566406c-.050781-6.574218 2.519532-12.894531 7.136719-17.570312 4.617188-4.675782 10.90625-7.320313 17.476563-7.351563h104.199218c22.644532 0 41-18.355469 41-41s-18.355468-41-41-41h-199.011718c-13.53125 0-24.5-10.96875-24.5-24.5s10.96875-24.5 24.5-24.5h236.558594c22.644531 0 41-18.355469 41-41s-18.355469-41-41-41h-283.5c-13.804688 0-25-11.195312-25-25 0-13.808593 11.195312-25 25-25h339.828124c22.367188 0 40.5-18.132812 40.5-40.5 0-22.367187-18.132812-40.5-40.5-40.5zm0 0"/><path d="m55.539062 48.363281h315c4.417969 0 8-3.582031 8-8s-3.582031-8-8-8h-315c-4.417968 0-8 3.582031-8 8s3.582032 8 8 8zm0 0"/><path d="m125.539062 97.363281c-4.417968 0-8 3.582031-8 8s3.582032 8 8 8h220c4.417969 0 8-3.582031 8-8s-3.582031-8-8-8zm0 0"/><path d="m132.539062 181.363281h182c4.417969 0 8-3.582031 8-8s-3.582031-8-8-8h-182c-4.417968 0-8 3.582031-8 8s3.582032 8 8 8zm0 0"/><path d="m172.539062 231.363281c-4.417968 0-8 3.582031-8 8s3.582032 8 8 8h142c4.417969 0 8-3.582031 8-8s-3.582031-8-8-8zm0 0"/><path d="m274.539062 313.363281c4.417969 0 8-3.582031 8-8s-3.582031-8-8-8h-71c-4.417968 0-8 3.582031-8 8s3.582032 8 8 8zm0 0"/></svg>