<svg height="461pt" viewBox="0 -89 461.5 461" width="461pt" xmlns="http://www.w3.org/2000/svg"><path d="m423.410156 106.46875c.007813-23.859375-19.300781-43.21875-43.160156-43.28125-4.417969 0-8 3.582031-8 8s3.582031 8 8 8c15.066406.058594 27.234375 12.320312 27.175781 27.386719-.054687 15.066406-12.316406 27.234375-27.382812 27.175781h-372.042969c-4.417969 0-8 3.582031-8 8s3.582031 8 8 8h372.042969c23.914062-.003906 43.316406-19.363281 43.367187-43.28125zm0 0"/><path d="m0 99.75c0 4.417969 3.582031 8 8 8h202.613281c17.785157-.042969 32.167969-14.496094 32.125-32.277344-.046875-17.785156-14.496093-32.164062-32.28125-32.121094-4.417969 0-8 3.582032-8 8 0 4.417969 3.582031 8 8 8 9.019531-.066406 16.386719 7.179688 16.472657 16.199219.03125 4.324219-1.679688 8.480469-4.75 11.53125-3.070313 3.046875-7.238282 4.730469-11.566407 4.667969h-202.613281c-4.417969 0-8 3.582031-8 8zm0 0"/><path d="m288.261719 177.75h-280.261719c-4.417969 0-8 3.582031-8 8s3.582031 8 8 8h280.261719c9.703125-.117188 18.726562 4.972656 23.640625 13.339844 4.917968 8.367187 4.972656 18.726562.144531 27.148437-4.824219 8.417969-13.792969 13.605469-23.496094 13.589844-4.417969 0-8 3.582031-8 8 0 4.421875 3.582031 8 8 8 15.4375.042969 29.714844-8.191406 37.414063-21.570313 7.703125-13.378906 7.644531-29.859374-.144532-43.1875-7.789062-13.328124-22.121093-21.464843-37.558593-21.320312zm0 0"/><path d="m75.5 29.25c0-16.015625-12.984375-29-29-29s-29 12.984375-29 29 12.984375 29 29 29c16.007812-.019531 28.980469-12.992188 29-29zm-42 0c0-7.179688 5.820312-13 13-13s13 5.820312 13 13-5.820312 13-13 13c-7.175781-.007812-12.992188-5.824219-13-13zm0 0"/><path d="m190.5 223.25c-16.570312 0-30 13.429688-30 30s13.429688 30 30 30 30-13.429688 30-30c-.019531-16.5625-13.4375-29.980469-30-30zm0 44c-7.730469 0-14-6.269531-14-14s6.269531-14 14-14 14 6.269531 14 14c-.007812 7.730469-6.269531 13.992188-14 14zm0 0"/><path d="m426.5 200.25c-19.328125 0-35 15.671875-35 35s15.671875 35 35 35 35-15.671875 35-35c-.023438-19.320312-15.679688-34.976562-35-35zm0 54c-10.492188 0-19-8.507812-19-19s8.507812-19 19-19 19 8.507812 19 19c-.011719 10.488281-8.511719 18.988281-19 19zm0 0"/><path d="m287.257812 67.371094c0 15.53125 12.589844 28.121094 28.121094 28.121094s28.121094-12.589844 28.121094-28.121094-12.589844-28.121094-28.121094-28.121094c-15.523437.019531-28.101562 12.597656-28.121094 28.121094zm40.242188 0c0 6.695312-5.425781 12.121094-12.121094 12.121094-6.695312 0-12.121094-5.425782-12.121094-12.121094 0-6.695313 5.425782-12.121094 12.121094-12.121094 6.691406.007812 12.113282 5.429688 12.121094 12.121094zm0 0"/></svg>