<svg height="476pt" viewBox="-54 0 476 476.00223" width="476pt" xmlns="http://www.w3.org/2000/svg"><path d="m7.628906 476h107c4.417969 0 8.378906-3.363281 8.378906-7.78125v-24c-.160156-4.53125-3.84375-8.144531-8.378906-8.21875h-31.621094v-259.523438l48 15.660157v11.753906c-.085937 2.28125.835938 4.488281 2.523438 6.03125 1.410156 1.265625 3.242188 1.96875 5.140625 1.96875.347656 0 .699219-.027344 1.042969-.078125l221.609375-30.785156c3.910156-.570313 6.78125-3.972656 6.683593-7.925782v-94.199218c.082032-3.957032-2.796874-7.359375-6.714843-7.925782l-221.726563-30.789062c-2.210937-.316406-4.445312.378906-6.082031 1.890625-1.671875 1.550781-2.578125 3.757813-2.476563 6.035156v11.75l-48 15.660157v-67.738282c0-4.417968-3.960937-7.785156-8.378906-7.785156h-27c-2.058594-.0351562-4.042968.78125-5.484375 2.25-1.441406 1.472656-2.214843 3.476562-2.136719 5.535156v428.214844h-32.378906c-4.417968 0-7.6210935 3.800781-7.6210935 8.21875v24c-.078125 2.058594.6953125 4.058594 2.1367185 5.53125 1.441407 1.472656 3.425781 2.285156 5.484375 2.25zm224.378906-293.128906v-113.738282l53.320313 7.414063-.640625 99.003906zm120-16.734375-51.636718 7.191406.566406-94.5625 51.070312 7.097656zm-205-108.835938 69 9.613281v118.175782l-69 9.609375zm-16 19.398438v98.601562l-48-15.660156v-67.285156zm-75-60.699219h11v420h-11zm-40 436h91v8h-91zm0 0"/></svg>